<svg width="75" height="51" viewBox="0 0 75 51" fill="none" xmlns="http://www.w3.org/2000/svg">
<path fill-rule="evenodd" clip-rule="evenodd" d="M17.8602 48.8778C13.3777 50.8305 8.46715 51.438 3.71202 50.6898C0.672728 50.2115 -0.740799 46.9105 0.384862 44.0471C1.51052 41.1838 4.79272 39.8981 7.86913 39.8567C9.75923 39.8313 11.6439 39.4328 13.4105 38.6633C16.9016 37.1425 19.6457 34.2971 21.0389 30.7531C22.4321 27.2091 22.3605 23.2568 20.8396 19.7656C20.0701 17.999 18.9613 16.4238 17.5946 15.118C15.3699 12.9927 13.842 9.81601 14.9676 6.95265C16.0933 4.08928 19.3763 2.63458 21.9276 4.35413C23.9859 5.74138 25.8289 7.42073 27.3992 9.33666C27.7932 9.81742 28.5411 9.81744 28.9351 9.33667C32.5642 4.90838 37.5779 1.83023 43.169 0.597809C48.7602 -0.634613 54.6034 0.0504227 59.7579 2.54261C64.9123 5.0348 69.0781 9.18913 71.5845 14.3367C73.0385 17.3229 73.885 20.5425 74.1019 23.8119C74.3634 27.7526 70.4467 30.2396 66.5876 29.4001C62.7285 28.5606 60.4888 24.4877 58.8625 20.8887C58.8184 20.7912 58.7729 20.6942 58.7259 20.5977C57.6252 18.3372 55.7959 16.5129 53.5324 15.4185C51.2688 14.3241 48.7029 14.0233 46.2476 14.5645C43.7923 15.1057 41.5906 16.4574 39.997 18.402C38.4034 20.3466 37.5105 22.771 37.4622 25.2847C37.4139 27.7985 38.213 30.2553 39.7307 32.2597C41.2485 34.2641 43.3967 35.6994 45.8293 36.3346C45.9331 36.3617 46.0372 36.3872 46.1415 36.4113C49.9898 37.2989 54.4234 38.6948 56.0047 42.3137C57.5859 45.9327 55.9169 50.2617 52.0016 50.7795C48.7533 51.2091 45.4301 51.0116 42.2165 50.1726C36.6768 48.7264 31.7851 45.4579 28.3288 40.8935C28.2478 40.7865 28.0865 40.7865 28.0055 40.8935C25.3875 44.3508 21.9064 47.1152 17.8602 48.8778Z" fill="#0E1744"/>
</svg>
