<svg width="70" height="40" viewBox="0 0 70 40" fill="none" xmlns="http://www.w3.org/2000/svg">
<path fill-rule="evenodd" clip-rule="evenodd" d="M67.4749 11.2446C68.7484 13.415 69.5287 15.7427 69.7994 18.113C70.1958 21.5839 66.7031 23.7722 63.2653 23.1516L61.9795 22.9195C58.8351 22.3518 56.9392 18.9111 55.3222 16.1552V16.1552C54.282 14.3822 52.5531 12.9514 50.4139 12.093C48.2746 11.2347 45.8495 10.9987 43.5291 11.4232C41.2086 11.8477 39.1278 12.9079 37.6217 14.4331C36.1155 15.9582 35.2717 17.8597 35.226 19.8312C35.1804 21.8028 35.9356 23.7297 37.37 25.3018C38.8045 26.8739 40.8347 27.9996 43.1338 28.4977C43.7857 28.639 44.4486 28.7275 45.1133 28.7637C47.9837 28.9202 51.0422 29.9429 52.3815 32.4866V32.4866C54.0073 35.5744 52.5105 39.4288 49.0427 39.8187C45.9487 40.1665 42.7814 40.0145 39.7193 39.3511C34.4838 38.2168 29.8606 35.6533 26.5941 32.0733V32.0733C26.5122 31.9835 26.3705 31.9835 26.2885 32.0733C23.8142 34.7849 20.5242 36.953 16.7002 38.3355C12.4215 39.8823 7.73009 40.3529 3.19415 39.7387C0.529019 39.3778 -0.722954 36.462 0.428425 34.0315V34.0315C1.39011 32.0014 3.71807 31.0696 5.95917 31.223C8.17386 31.3747 10.4205 31.074 12.4948 30.3241C15.7943 29.1313 18.3877 26.8996 19.7044 24.12C21.0211 21.3404 20.9534 18.2406 19.5161 15.5025C18.7966 14.1318 17.7634 12.9079 16.4907 11.8903C14.3901 10.2108 13.0592 7.36841 14.2105 4.93788V4.93788C15.1722 2.9078 17.5169 1.8698 19.5255 2.87554C21.8845 4.05667 23.977 5.56253 25.7156 7.32306C26.1127 7.72514 26.7701 7.72509 27.1671 7.323V7.323C30.5969 3.84985 35.3354 1.43561 40.6195 0.469013C45.9037 -0.497589 51.4261 0.0396919 56.2976 1.99434C61.169 3.949 65.1061 7.20728 67.4749 11.2446Z" fill="white"/>
</svg>
