<svg width="72" height="72" viewBox="0 0 72 72" fill="none" xmlns="http://www.w3.org/2000/svg">
<g clip-path="url(#clip0_75_178)">
<path d="M36 45C42.2132 45 47.25 39.9632 47.25 33.75C47.25 27.5368 42.2132 22.5 36 22.5C29.7868 22.5 24.75 27.5368 24.75 33.75C24.75 39.9632 29.7868 45 36 45Z" stroke="#3D6CB4" stroke-width="3" stroke-linecap="round" stroke-linejoin="round"/>
<path d="M17.9435 56.074C19.6383 52.7417 22.2222 49.9435 25.4091 47.989C28.5959 46.0345 32.2615 45 36 45C39.7384 45 43.404 46.0345 46.5909 47.989C49.7777 49.9434 52.3616 52.7417 54.0565 56.0739" stroke="#3D6CB4" stroke-width="3" stroke-linecap="round" stroke-linejoin="round"/>
<path d="M49.5 15.75H63" stroke="#3D6CB4" stroke-width="3" stroke-linecap="round" stroke-linejoin="round"/>
<path d="M56.25 9V22.5" stroke="#3D6CB4" stroke-width="3" stroke-linecap="round" stroke-linejoin="round"/>
<path d="M62.666 31.7412C63.5598 37.3678 62.649 43.1329 60.0643 48.2099C57.4796 53.2869 53.3536 57.4152 48.2781 60.0028C43.2025 62.5903 37.4379 63.5043 31.8108 62.6137C26.1838 61.7231 20.9832 59.0737 16.9547 55.0452C12.9263 51.0167 10.2768 45.8162 9.38623 40.1891C8.49565 34.562 9.40967 28.7975 11.9972 23.7219C14.5848 18.6463 18.7131 14.5204 23.7901 11.9357C28.8671 9.35096 34.6322 8.44019 40.2588 9.33395" stroke="#3D6CB4" stroke-width="3" stroke-linecap="round" stroke-linejoin="round"/>
</g>
<defs>
<clipPath id="clip0_75_178">
<rect width="72" height="72" fill="white"/>
</clipPath>
</defs>
</svg>
