<svg width="72" height="72" viewBox="0 0 72 72" fill="none" xmlns="http://www.w3.org/2000/svg">
<path d="M61.663 28.3125V46.4335C61.663 49.7225 58.972 52.414 55.6825 52.414H17.989C14.7 52.414 12.0085 49.723 12.0085 46.4335V17.0465M61.663 17.0465V22.936" stroke="#3D6CB4" stroke-miterlimit="10" stroke-linecap="round" stroke-linejoin="round"/>
<path opacity="0.3" d="M63.285 11.5275H43.4105C43.385 11.0275 42.623 9.52753 41.6905 9.52753H31.716C30.7835 9.52753 30.0215 11.0275 29.996 11.5275H10.1215C8.86099 11.5275 7.67999 12.0285 7.67999 13.2535V13.873C7.67999 15.098 8.86099 16.5275 10.1215 16.5275H63.285C64.5455 16.5275 65.18 15.0975 65.18 13.873V13.2535C65.18 12.0285 64.5455 11.5275 63.285 11.5275ZM40.6915 13.5275H32.8795C32.245 13.5275 31.726 13.162 31.726 12.5275C31.726 11.893 32.245 11.5275 32.8795 11.5275H40.691C41.3255 11.5275 41.8445 11.893 41.8445 12.5275C41.845 13.162 41.326 13.5275 40.6915 13.5275Z" fill="#3D6CB4"/>
<path d="M63.285 11.2775H43.4105C43.385 10.7775 42.623 9.27753 41.6905 9.27753H31.716C30.7835 9.27753 30.0215 10.7775 29.996 11.2775H10.1215C8.86099 11.2775 7.92999 12.097 7.92999 13.3575V13.995C7.92999 15.2555 8.86099 16.7775 10.1215 16.7775H63.285C64.5455 16.7775 65.43 15.2555 65.43 13.995V13.3575C65.43 12.097 64.5455 11.2775 63.285 11.2775V11.2775Z" stroke="#3D6CB4" stroke-miterlimit="10" stroke-linecap="round" stroke-linejoin="round"/>
<path d="M3.77049 22.987V28.23M1.14899 25.6085H6.39199M22.575 30.1705V33.3095M21.0055 31.74H24.1445M50.1415 24.039V27.178M51.711 25.6085H48.572M68.188 34.0805V39.3235M70.8095 36.702H65.5665M36.8415 52.414L36.836 59.636M40.8135 13.49H32.757C32.4838 13.4892 32.222 13.3803 32.0288 13.1871C31.8357 12.9939 31.7268 12.7322 31.726 12.459V12.2145C31.726 11.6475 32.19 11.1835 32.757 11.1835H40.8135C41.3805 11.1835 41.845 11.6475 41.845 12.2145V12.459C41.8441 12.7322 41.7351 12.994 41.5418 13.1872C41.3486 13.3803 41.0867 13.4892 40.8135 13.49V13.49Z" stroke="#3D6CB4" stroke-miterlimit="10" stroke-linecap="round" stroke-linejoin="round"/>
<path d="M36.836 63.362C37.8649 63.362 38.699 62.5279 38.699 61.499C38.699 60.4701 37.8649 59.636 36.836 59.636C35.8071 59.636 34.973 60.4701 34.973 61.499C34.973 62.5279 35.8071 63.362 36.836 63.362Z" stroke="#3D6CB4" stroke-miterlimit="10" stroke-linecap="round" stroke-linejoin="round"/>
<path d="M48.659 38.0395L60.122 27.473M39.0345 31.696L44.688 37.829M23.567 42.0165L35.0985 31.3865" stroke="#3D6CB4" stroke-miterlimit="10" stroke-linecap="round" stroke-linejoin="round"/>
<path opacity="0.3" d="M62.4481 28.3344C63.9439 28.157 65.0129 26.8007 64.8355 25.3048C64.6582 23.8089 63.3018 22.74 61.8059 22.9173C60.3101 23.0946 59.2412 24.451 59.4185 25.9469C59.5958 27.4428 60.9522 28.5117 62.4481 28.3344Z" fill="#3D6CB4"/>
<path d="M62.4481 28.3344C63.9439 28.157 65.0129 26.8007 64.8355 25.3048C64.6582 23.8089 63.3018 22.74 61.8059 22.9173C60.3101 23.0946 59.2412 24.451 59.4185 25.9469C59.5958 27.4428 60.9522 28.5117 62.4481 28.3344Z" stroke="#3D6CB4" stroke-miterlimit="10" stroke-linecap="round" stroke-linejoin="round"/>
<path opacity="0.3" d="M46.8947 42.5094C48.3905 42.3321 49.4595 40.9757 49.2821 39.4798C49.1048 37.9839 47.7484 36.915 46.2525 37.0923C44.7567 37.2696 43.6877 38.626 43.8651 40.1219C44.0424 41.6178 45.3988 42.6867 46.8947 42.5094Z" fill="#3D6CB4"/>
<path d="M46.8947 42.5094C48.3905 42.3321 49.4595 40.9757 49.2821 39.4798C49.1048 37.9839 47.7484 36.915 46.2525 37.0923C44.7567 37.2696 43.6877 38.626 43.8651 40.1219C44.0424 41.6178 45.3988 42.6867 46.8947 42.5094Z" stroke="#3D6CB4" stroke-miterlimit="10" stroke-linecap="round" stroke-linejoin="round"/>
<path opacity="0.3" d="M37.5449 32.3629C39.035 32.1797 40.0945 30.8233 39.9113 29.3333C39.7282 27.8434 38.3718 26.784 36.8817 26.9673C35.3917 27.1505 34.3322 28.5069 34.5153 29.9969C34.6984 31.4868 36.0548 32.5462 37.5449 32.3629Z" fill="#3D6CB4"/>
<path d="M37.5449 32.3629C39.035 32.1797 40.0945 30.8233 39.9113 29.3333C39.7282 27.8434 38.3718 26.784 36.8817 26.9673C35.3917 27.1505 34.3322 28.5069 34.5153 29.9969C34.6984 31.4868 36.0548 32.5462 37.5449 32.3629Z" stroke="#3D6CB4" stroke-miterlimit="10" stroke-linecap="round" stroke-linejoin="round"/>
<path opacity="0.3" d="M21.893 46.563C23.383 46.3798 24.4425 45.0234 24.2594 43.5334C24.0763 42.0434 22.7199 40.9841 21.2298 41.1673C19.7397 41.3506 18.6803 42.7069 18.8634 44.1969C19.0465 45.6869 20.4029 46.7462 21.893 46.563Z" fill="#3D6CB4"/>
<path d="M21.893 46.563C23.383 46.3798 24.4425 45.0234 24.2594 43.5334C24.0763 42.0434 22.7199 40.9841 21.2298 41.1673C19.7397 41.3506 18.6803 42.7069 18.8634 44.1969C19.0465 45.6869 20.4029 46.7462 21.893 46.563Z" stroke="#3D6CB4" stroke-miterlimit="10" stroke-linecap="round" stroke-linejoin="round"/>
<path opacity="0.3" d="M12.009 16.658H61.663V19.9675H12.009V16.658Z" fill="#3D6CB4"/>
</svg>
