<svg width="28" height="36" viewBox="0 0 28 36" fill="none" xmlns="http://www.w3.org/2000/svg">
<path d="M27.8326 31.7646L24.404 28.3326C24.2969 28.2253 24.1515 28.165 24 28.165H6.85714V27.0209C6.85714 26.5658 6.67653 26.1293 6.35504 25.8075C6.03355 25.4857 5.59751 25.3049 5.14286 25.3049H1.71429C1.56273 25.3049 1.41739 25.2446 1.31022 25.1374C1.20306 25.0301 1.14286 24.8846 1.14286 24.7329C1.14286 24.5812 1.20306 24.4357 1.31022 24.3284C1.41739 24.2211 1.56273 24.1609 1.71429 24.1609H5.14286C5.59751 24.1609 6.03355 23.9801 6.35504 23.6583C6.67653 23.3364 6.85714 22.9 6.85714 22.4448V21.3008H10.8571V23.5889H8.57143C8.41988 23.5889 8.27453 23.6491 8.16737 23.7564C8.0602 23.8637 8 24.0092 8 24.1609V26.4489C8 26.6006 8.0602 26.7461 8.16737 26.8534C8.27453 26.9607 8.41988 27.0209 8.57143 27.0209H20C20.1516 27.0209 20.2969 26.9607 20.4041 26.8534C20.5112 26.7461 20.5714 26.6006 20.5714 26.4489V24.1609C20.5714 24.0092 20.5112 23.8637 20.4041 23.7564C20.2969 23.6491 20.1516 23.5889 20 23.5889H17.7143V21.3008H25.7143C26.1689 21.3008 26.605 21.12 26.9265 20.7982C27.248 20.4764 27.4286 20.0399 27.4286 19.5848V4.71249C27.4286 4.25737 27.248 3.82089 26.9265 3.49907C26.605 3.17726 26.1689 2.99646 25.7143 2.99646H21.1429V4.14048H25.7143C25.8658 4.14048 26.0112 4.20075 26.1183 4.30802C26.2255 4.41529 26.2857 4.56079 26.2857 4.71249V16.7247H2.28571V4.71249C2.28571 4.56079 2.34592 4.41529 2.45308 4.30802C2.56025 4.20075 2.70559 4.14048 2.85714 4.14048H7.42857V2.99646H2.85714C2.40249 2.99646 1.96645 3.17726 1.64496 3.49907C1.32347 3.82089 1.14286 4.25737 1.14286 4.71249V19.5848C1.14286 20.0399 1.32347 20.4764 1.64496 20.7982C1.96645 21.12 2.40249 21.3008 2.85714 21.3008H5.71429V22.4448C5.71429 22.5966 5.65408 22.742 5.54692 22.8493C5.43975 22.9566 5.29441 23.0169 5.14286 23.0169H1.71429C1.25963 23.0169 0.823594 23.1977 0.502103 23.5195C0.180612 23.8413 0 24.2778 0 24.7329C0 25.188 0.180612 25.6245 0.502103 25.9463C0.823594 26.2681 1.25963 26.4489 1.71429 26.4489H5.14286C5.29441 26.4489 5.43975 26.5092 5.54692 26.6165C5.65408 26.7237 5.71429 26.8692 5.71429 27.0209V28.165H4.57143C4.41989 28.165 4.27457 28.2253 4.16743 28.3326L0.738857 31.7646C0.631686 31.8719 0.571461 32.0173 0.571429 32.169V33.8851C0.571429 34.1885 0.691837 34.4795 0.906164 34.694C1.12049 34.9086 1.41118 35.0291 1.71429 35.0291H26.8571C27.1602 35.0291 27.4509 34.9086 27.6653 34.694C27.8796 34.4795 28 34.1885 28 33.8851V32.169C28 32.0173 27.9397 31.8719 27.8326 31.7646ZM19.4286 25.8769H9.14286V24.7329H19.4286V25.8769ZM16.5714 23.5889H12V21.3008H16.5714V23.5889ZM2.28571 19.5848V17.8688H26.2857V19.5848C26.2857 19.7365 26.2255 19.882 26.1183 19.9893C26.0112 20.0965 25.8658 20.1568 25.7143 20.1568H2.85714C2.70559 20.1568 2.56025 20.0965 2.45308 19.9893C2.34592 19.882 2.28571 19.7365 2.28571 19.5848ZM4.808 29.309H23.7634L26.0491 31.597H2.52229L4.808 29.309ZM1.71429 33.8851V32.7411H26.8571V33.8851H1.71429Z" fill="#3D6CB4"/>
<path d="M5.14288 29.881H6.28574V31.025H5.14288V29.881Z" fill="#3D6CB4"/>
<path d="M7.42859 29.881H8.57145V31.025H7.42859V29.881Z" fill="#3D6CB4"/>
<path d="M20 29.881H21.1429V31.025H20V29.881Z" fill="#3D6CB4"/>
<path d="M9.71429 29.881H18.8572V31.025H9.71429V29.881Z" fill="#3D6CB4"/>
<path d="M22.2857 29.881H23.4286V31.025H22.2857V29.881Z" fill="#3D6CB4"/>
<path d="M22.8571 18.4407H24V19.5847H22.8571V18.4407Z" fill="#3D6CB4"/>
<path d="M14.2857 14.4366C15.6419 14.4366 16.9677 14.0341 18.0954 13.2798C19.223 12.5256 20.1019 11.4536 20.6209 10.1993C21.1399 8.94505 21.2757 7.5649 21.0111 6.23339C20.7465 4.90187 20.0935 3.6788 19.1345 2.71884C18.1755 1.75887 16.9536 1.10512 15.6235 0.84027C14.2933 0.575415 12.9146 0.711348 11.6616 1.23088C10.4086 1.75041 9.3377 2.6302 8.58423 3.759C7.83075 4.8878 7.42859 6.21491 7.42859 7.57251C7.43056 9.39239 8.15363 11.1372 9.43917 12.424C10.7247 13.7109 12.4677 14.4347 14.2857 14.4366ZM8.60059 8.14452H10.8709C10.8984 8.97137 11.0049 9.79368 11.1892 10.6002C10.7718 10.811 10.3775 11.0646 10.0126 11.3569C9.21549 10.4618 8.7213 9.33753 8.60059 8.14452ZM12.0354 12.8287C11.6199 12.6472 11.2274 12.4167 10.8663 12.1423C11.0744 11.9855 11.293 11.8431 11.5206 11.7162C11.6586 12.1017 11.8309 12.4741 12.0354 12.8287ZM12.5823 11.2626C13.6927 10.9236 14.8788 10.9236 15.9892 11.2626C15.5389 12.5198 14.892 13.2926 14.2857 13.2926C13.6794 13.2926 13.0326 12.5198 12.5823 11.2626ZM17.0509 11.7202C17.2784 11.8472 17.497 11.9895 17.7052 12.1463C17.344 12.4207 16.9516 12.6512 16.536 12.8327C16.7408 12.4776 16.9131 12.1046 17.0509 11.7185V11.7202ZM16.5366 2.31802C16.9521 2.49958 17.3446 2.73001 17.7057 3.00443C17.4976 3.16128 17.279 3.30366 17.0514 3.43058C16.9134 3.04443 16.7409 2.6715 16.536 2.3163L16.5366 2.31802ZM15.9897 3.88418C14.8793 4.2231 13.6933 4.2231 12.5829 3.88418C13.0326 2.62519 13.6794 1.8524 14.2857 1.8524C14.892 1.8524 15.5389 2.62519 15.9892 3.88247L15.9897 3.88418ZM11.5212 3.42657C11.2936 3.29959 11.075 3.15721 10.8669 3.00043C11.228 2.726 11.6205 2.49558 12.036 2.31401C11.8312 2.66861 11.6586 3.04097 11.5206 3.42657H11.5212ZM12.2726 4.98588C12.9251 5.18471 13.6036 5.28534 14.2857 5.28447C14.9681 5.28559 15.6467 5.18495 16.2994 4.98588C16.4436 5.64869 16.5302 6.32274 16.5583 7.0005H12.0132C12.0412 6.32274 12.1278 5.64869 12.272 4.98588H12.2726ZM16.5583 8.14452C16.5303 8.82247 16.4437 9.49672 16.2994 10.1597C14.986 9.76418 13.5854 9.76418 12.272 10.1597C12.1278 9.49672 12.0412 8.82247 12.0132 8.14452H16.5583ZM18.5583 11.3569C18.1932 11.0648 17.7989 10.8112 17.3817 10.6002C17.5661 9.7937 17.6729 8.97139 17.7006 8.14452H19.9709C19.8502 9.33753 19.356 10.4618 18.5589 11.3569H18.5583ZM19.9709 7.0005H17.7006C17.6731 6.17366 17.5665 5.35135 17.3823 4.54486C17.7996 4.33407 18.1939 4.08045 18.5589 3.78809C19.356 4.68318 19.8502 5.8075 19.9709 7.0005ZM10.0126 3.78809C10.3777 4.08018 10.772 4.33378 11.1892 4.54486C11.0049 5.35135 10.8984 6.17366 10.8709 7.0005H8.60059C8.7213 5.8075 9.21549 4.68318 10.0126 3.78809Z" fill="#3D6CB4"/>
</svg>
