<svg width="64" height="64" viewBox="0 0 64 64" fill="none" xmlns="http://www.w3.org/2000/svg">
<path d="M51.6919 50.4615H41.8458C40.8665 50.4615 39.9274 50.0725 39.2349 49.38C38.5425 48.6876 38.1535 47.7484 38.1535 46.7692V40.6153C38.1535 39.6361 38.5425 38.6969 39.2349 38.0045C39.9274 37.312 40.8665 36.923 41.8458 36.923H51.6919C52.6711 36.923 53.6103 37.312 54.3027 38.0045C54.9951 38.6969 55.3841 39.6361 55.3841 40.6153V46.7692C55.3841 47.7484 54.9951 48.6876 54.3027 49.38C53.6103 50.0725 52.6711 50.4615 51.6919 50.4615ZM41.8458 39.3846C41.5194 39.3846 41.2063 39.5142 40.9755 39.7451C40.7447 39.9759 40.615 40.2889 40.615 40.6153V46.7692C40.615 47.0956 40.7447 47.4086 40.9755 47.6395C41.2063 47.8703 41.5194 47.9999 41.8458 47.9999H51.6919C52.0183 47.9999 52.3313 47.8703 52.5621 47.6395C52.7929 47.4086 52.9226 47.0956 52.9226 46.7692V40.6153C52.9226 40.2889 52.7929 39.9759 52.5621 39.7451C52.3313 39.5142 52.0183 39.3846 51.6919 39.3846H41.8458Z" fill="#3D6CB4"/>
<path d="M51.6919 39.3846H41.8458C41.5194 39.3846 41.2063 39.2549 40.9755 39.0241C40.7447 38.7933 40.6151 38.4802 40.6151 38.1538V36.923C40.6151 35.2909 41.2634 33.7257 42.4175 32.5716C43.5715 31.4175 45.1368 30.7692 46.7688 30.7692C48.4009 30.7692 49.9662 31.4175 51.1202 32.5716C52.2743 33.7257 52.9226 35.2909 52.9226 36.923V38.1538C52.9226 38.4802 52.793 38.7933 52.5622 39.0241C52.3314 39.2549 52.0183 39.3846 51.6919 39.3846ZM43.0766 36.923H50.4611C50.4611 35.9438 50.0721 35.0046 49.3797 34.3122C48.6872 33.6197 47.7481 33.2307 46.7688 33.2307C45.7896 33.2307 44.8505 33.6197 44.158 34.3122C43.4656 35.0046 43.0766 35.9438 43.0766 36.923ZM46.7688 45.5384C46.4424 45.5384 46.1294 45.4087 45.8986 45.1779C45.6678 44.9471 45.5381 44.634 45.5381 44.3076V43.0769C45.5381 42.7504 45.6678 42.4374 45.8986 42.2066C46.1294 41.9758 46.4424 41.8461 46.7688 41.8461C47.0953 41.8461 47.4083 41.9758 47.6391 42.2066C47.8699 42.4374 47.9996 42.7504 47.9996 43.0769V44.3076C47.9996 44.634 47.8699 44.9471 47.6391 45.1779C47.4083 45.4087 47.0953 45.5384 46.7688 45.5384ZM26.4613 17.2307C13.3168 17.2307 0 14.2769 0 8.61537C0 2.95384 13.3168 0 26.4613 0C39.6058 0 52.9226 2.95384 52.9226 8.61537C52.9226 14.2769 39.6058 17.2307 26.4613 17.2307ZM26.4613 2.46153C11.8153 2.46153 2.46152 6.15384 2.46152 8.61537C2.46152 11.0769 11.8153 14.7692 26.4613 14.7692C41.1074 14.7692 50.4611 11.0769 50.4611 8.61537C50.4611 6.15384 41.1074 2.46153 26.4613 2.46153Z" fill="#3D6CB4"/>
<path d="M46.7688 63.9999C46.6088 64.0019 46.45 63.9726 46.3011 63.9138C42.4136 62.322 38.9496 59.8476 36.1834 56.6861C33.4171 53.5247 31.4244 49.7629 30.3628 45.6984C29.9086 43.9628 29.6323 42.1854 29.5382 40.3938C29.5382 39.9507 29.5382 39.5446 29.5382 39.163V27.3231C29.53 27.0419 29.6184 26.7664 29.7886 26.5425C29.9588 26.3186 30.2005 26.1597 30.4736 26.0923L46.4735 22.1538C46.6675 22.1059 46.8702 22.1059 47.0642 22.1538L63.0641 26.0923C63.3372 26.1597 63.5789 26.3186 63.7491 26.5425C63.9193 26.7664 64.0077 27.0419 63.9995 27.3231V39.1384C63.988 44.4658 62.3866 49.6686 59.4002 54.0802C56.4137 58.4919 52.1784 61.9117 47.2365 63.9015C47.0886 63.9645 46.9297 63.998 46.7688 63.9999ZM31.9997 28.3077V39.1384C31.9997 39.52 31.9997 39.9015 31.9997 40.283C32.075 41.9038 32.3184 43.5125 32.7259 45.083C33.1083 46.5735 33.6316 48.0241 34.2889 49.4153C35.8988 52.7963 38.2555 55.7674 41.1812 58.1045C42.891 59.4543 44.7694 60.5755 46.7688 61.4399C51.1418 59.5743 54.8717 56.4673 57.4968 52.5034C60.1219 48.5394 61.5269 43.8927 61.5379 39.1384V28.3077L46.7688 24.6154L31.9997 28.3077Z" fill="#3D6CB4"/>
<path d="M26.4613 46.7692C13.3168 46.7692 0 43.8153 0 38.1538V23.3846C0 23.0582 0.129669 22.7451 0.360481 22.5143C0.591293 22.2835 0.904342 22.1538 1.23076 22.1538C1.55718 22.1538 1.87023 22.2835 2.10104 22.5143C2.33185 22.7451 2.46152 23.0582 2.46152 23.3846C2.46152 25.8461 11.8153 29.5384 26.4613 29.5384C27.9054 29.5384 29.3208 29.5015 30.7074 29.4276C30.8747 29.4201 31.0418 29.4468 31.1984 29.506C31.355 29.5653 31.4978 29.6559 31.6182 29.7723C31.7382 29.8867 31.8339 30.0241 31.8994 30.1764C31.965 30.3287 31.9991 30.4926 31.9997 30.6584V39.1384C31.9997 39.5199 31.9997 39.9015 31.9997 40.283C32.0751 41.9038 32.3184 43.5124 32.7259 45.083C32.7715 45.2592 32.7776 45.4433 32.7435 45.622C32.7095 45.8008 32.6362 45.9698 32.529 46.1169C32.422 46.264 32.2837 46.3855 32.1241 46.4728C31.9645 46.56 31.7875 46.6108 31.6059 46.6215C29.969 46.7692 28.2213 46.7692 26.4613 46.7692ZM2.46152 27.2492V38.1538C2.46152 40.6153 11.8153 44.3076 26.4613 44.3076C27.6921 44.3076 28.9228 44.3076 30.0305 44.2338C29.7741 42.9673 29.6096 41.684 29.5382 40.3938C29.5382 39.9507 29.5382 39.5446 29.5382 39.163V31.9999C28.529 31.9999 27.4952 31.9999 26.4613 31.9999C16.726 31.9999 6.90456 30.3753 2.46152 27.2492Z" fill="#3D6CB4"/>
<path d="M26.4613 31.9999C13.3168 31.9999 0 29.0461 0 23.3846V8.61535C0 8.28893 0.129669 7.97588 0.360481 7.74507C0.591293 7.51425 0.904342 7.38458 1.23076 7.38458C1.55718 7.38458 1.87022 7.51425 2.10104 7.74507C2.33185 7.97588 2.46152 8.28893 2.46152 8.61535C2.46152 11.0769 11.8153 14.7692 26.4613 14.7692C41.1074 14.7692 50.4611 11.0769 50.4611 8.61535C50.4611 8.28893 50.5908 7.97588 50.8216 7.74507C51.0524 7.51425 51.3655 7.38458 51.6919 7.38458C52.0183 7.38458 52.3314 7.51425 52.5622 7.74507C52.793 7.97588 52.9226 8.28893 52.9226 8.61535V23.3846C52.9218 23.9831 52.7693 24.5716 52.4796 25.0953C52.3508 25.3364 52.1454 25.5277 51.8958 25.6392C51.6462 25.7506 51.3666 25.7758 51.1011 25.7107L46.7688 24.6153L31.9997 28.3076V30.683C32.0001 30.999 31.8789 31.3031 31.6613 31.5322C31.4436 31.7614 31.1462 31.898 30.8305 31.9138C29.4028 31.9999 27.9382 31.9999 26.4613 31.9999ZM2.46152 12.48V23.3846C2.46152 25.8461 11.8153 29.5384 26.4613 29.5384C27.4952 29.5384 28.529 29.5384 29.5382 29.4769V27.323C29.53 27.0419 29.6184 26.7664 29.7886 26.5425C29.9588 26.3185 30.2005 26.1596 30.4736 26.0922L46.4735 22.1538C46.6675 22.1058 46.8702 22.1058 47.0642 22.1538L50.4611 23.0153V12.48C46.0181 15.6061 36.1966 17.2307 26.4613 17.2307C16.726 17.2307 6.90456 15.6061 2.46152 12.48Z" fill="#3D6CB4"/>
<path d="M51.6919 25.8461C51.5938 25.858 51.4946 25.858 51.3965 25.8461L51.1011 25.7722C50.9198 25.7269 50.7511 25.6408 50.608 25.5205C50.4649 25.4003 50.3511 25.249 50.2752 25.0781C50.1992 24.9073 50.1632 24.7214 50.1699 24.5346C50.1765 24.3478 50.2256 24.165 50.3134 23.9999C50.4155 23.8112 50.4664 23.5991 50.4611 23.3846C50.4611 23.0581 50.5908 22.7451 50.8216 22.5143C51.0524 22.2835 51.3655 22.1538 51.6919 22.1538C52.0183 22.1538 52.3314 22.2835 52.5622 22.5143C52.793 22.7451 52.9226 23.0581 52.9226 23.3846V24.6153C52.9226 24.9417 52.793 25.2548 52.5622 25.4856C52.3314 25.7164 52.0183 25.8461 51.6919 25.8461ZM26.4613 61.5384C13.3168 61.5384 0 58.5845 0 52.923V38.1538C0 37.8274 0.129669 37.5143 0.360481 37.2835C0.591293 37.0527 0.904342 36.923 1.23076 36.923C1.55718 36.923 1.87022 37.0527 2.10104 37.2835C2.33185 37.5143 2.46152 37.8274 2.46152 38.1538C2.46152 40.6153 11.8153 44.3076 26.4613 44.3076C28.1721 44.3076 29.8705 44.3076 31.4828 44.1599C31.7623 44.1511 32.0365 44.2377 32.2602 44.4055C32.4839 44.5732 32.6438 44.8122 32.7136 45.083C33.096 46.5734 33.6193 48.0241 34.2766 49.4153C35.8865 52.7962 38.2432 55.7674 41.1689 58.1045C41.3488 58.2487 41.4845 58.4406 41.5607 58.6582C41.6368 58.8758 41.6503 59.1104 41.5997 59.3353C41.543 59.5628 41.4225 59.7693 41.2525 59.9307C41.0824 60.092 40.8698 60.2014 40.6397 60.246C35.9648 61.1226 31.2176 61.5553 26.4613 61.5384ZM2.46152 42.0184V52.923C2.46152 55.3845 11.8153 59.0768 26.4613 59.0768C30.2212 59.0897 33.9769 58.8264 37.6982 58.2891C35.3762 56.0377 33.4792 53.3861 32.0982 50.4614C31.5158 49.2321 31.0263 47.9608 30.6336 46.6584C29.2798 46.6584 27.8767 46.7568 26.4613 46.7568C16.726 46.7691 6.90456 45.1445 2.46152 42.0184ZM33.2305 9.84612H19.6921C19.3657 9.84612 19.0527 9.71645 18.8219 9.48563C18.5911 9.25482 18.4614 8.94177 18.4614 8.61535C18.4614 8.28893 18.5911 7.97588 18.8219 7.74507C19.0527 7.51425 19.3657 7.38458 19.6921 7.38458H33.2305C33.5569 7.38458 33.87 7.51425 34.1008 7.74507C34.3316 7.97588 34.4613 8.28893 34.4613 8.61535C34.4613 8.94177 34.3316 9.25482 34.1008 9.48563C33.87 9.71645 33.5569 9.84612 33.2305 9.84612Z" fill="#3D6CB4"/>
</svg>
