<svg width="66" height="67" viewBox="0 0 66 67" fill="none" xmlns="http://www.w3.org/2000/svg">
<path fill-rule="evenodd" clip-rule="evenodd" d="M42.215 32.7929L40.19 34.8181C39.8972 35.1106 39.6649 35.4579 39.5064 35.8403C39.3479 36.2226 39.2663 36.6325 39.2663 37.0464C39.2663 37.4603 39.3479 37.8701 39.5064 38.2524C39.6649 38.6348 39.8972 38.9821 40.19 39.2746L41.4056 40.4872C41.9962 41.0777 42.7971 41.4093 43.6322 41.4093C44.4673 41.4093 45.2683 41.0777 45.8588 40.4872L47.8839 38.4589L53.5527 44.128C56.9454 40.7346 59.1388 36.3272 59.8004 31.5745C60.4619 26.8217 59.5555 21.9828 57.2186 17.7918L64.0779 10.929C64.6683 10.3384 65 9.53741 65 8.70227C65 7.86714 64.6683 7.06619 64.0779 6.47557L60.0278 2.42214C59.4372 1.83169 58.6363 1.5 57.8012 1.5C56.9661 1.5 56.1652 1.83169 55.5746 2.42214L48.7153 9.28494C44.5238 6.94638 39.6839 6.03907 34.93 6.70069C30.1761 7.36231 25.7678 9.55675 22.3741 12.951L28.0429 18.6201L26.0147 20.6452C25.4243 21.2359 25.0926 22.0368 25.0926 22.872C25.0926 23.7071 25.4243 24.508 26.0147 25.0987L27.2304 26.3112C27.821 26.9017 28.6219 27.2334 29.457 27.2334C30.2921 27.2334 31.093 26.9017 31.6836 26.3112L33.7086 24.2861L42.2182 32.7898L42.215 32.7929ZM8.7877 49.2145L1.92209 56.0742C1.33168 56.6648 1 57.4657 1 58.3009C1 59.136 1.33168 59.937 1.92209 60.5276L5.97217 64.5779C6.56276 65.1683 7.36367 65.5 8.19877 65.5C9.03387 65.5 9.83478 65.1683 10.4254 64.5779L17.2847 57.7182C21.4762 60.0568 26.3161 60.9641 31.07 60.3025C35.8239 59.6408 40.2322 57.4464 43.6259 54.0522L12.4473 22.872C9.05349 26.2668 6.8599 30.6763 6.19944 35.4311C5.53898 40.1858 6.44771 45.0263 8.7877 49.2177V49.2145Z" stroke="#3D6CB4" stroke-width="1.5"/>
</svg>
