<svg width="64" height="64" viewBox="0 0 64 64" fill="none" xmlns="http://www.w3.org/2000/svg">
<path d="M44.2438 18.7429L49.3715 21.4476C49.5834 21.5431 49.8133 21.5924 50.0457 21.5924C50.2782 21.5924 50.508 21.5431 50.72 21.4476L55.8476 18.7429C55.9355 18.6983 56.0133 18.636 56.076 18.56C56.1388 18.484 56.1852 18.3959 56.2123 18.3012C56.2395 18.2065 56.2469 18.1071 56.2339 18.0094C56.221 17.9117 56.1881 17.8178 56.1372 17.7334L50.4343 8.08383C50.3996 8.00818 50.3452 7.94321 50.2769 7.89565C50.2086 7.8481 50.1287 7.81968 50.0457 7.81335C49.9632 7.81981 49.884 7.84833 49.8163 7.89591C49.7486 7.94349 49.695 8.0084 49.661 8.08383L43.9581 17.7334C43.9074 17.8176 43.8744 17.9113 43.8614 18.0088C43.8483 18.1063 43.8554 18.2054 43.8821 18.3001C43.9089 18.3947 43.9548 18.4828 44.0171 18.559C44.0793 18.6351 44.1565 18.6977 44.2438 18.7429ZM50.8076 11.7143L53.8743 16.9029L50.8076 15.7029V11.7143ZM50.8076 17.341L53.3562 18.3353L50.8076 19.6762V17.341ZM49.2838 19.68L46.6934 18.3124L49.2838 17.3143V19.68ZM49.2838 11.7105V15.6838L46.2515 16.8495L49.2838 11.7105Z" fill="#3D6CB4"/>
<path d="M49.8095 29.4133C49.8304 29.4451 49.8586 29.4713 49.8918 29.4899C49.9249 29.5085 49.962 29.5188 50 29.52C50.0385 29.5189 50.0762 29.5086 50.11 29.4901C50.1438 29.4715 50.1727 29.4452 50.1943 29.4133L56.0914 19.6876C56.2248 19.5048 56.2438 19.4095 56.1638 19.4095C56.0754 19.4236 55.9918 19.4589 55.92 19.5124L50.3314 22.6324C50.2473 22.682 50.151 22.7071 50.0534 22.7048C49.9562 22.707 49.8602 22.6833 49.7753 22.6362L44.0838 19.5086C44.0115 19.4561 43.9281 19.4209 43.84 19.4057C43.7562 19.4057 43.7753 19.5048 43.9086 19.6876L49.8095 29.4133ZM50.8076 24.0876C50.9076 24.051 51.0044 24.0064 51.0972 23.9543L52.0457 23.421L50.8076 25.4591V24.0876ZM49.021 23.9619C49.106 24.0079 49.1938 24.0487 49.2838 24.0838V25.6114L47.9162 23.3524L49.021 23.9619ZM13.9848 28.5486C13.9859 29.0067 14.1381 29.4517 14.4177 29.8147C14.6973 30.1776 15.0887 30.4382 15.5315 30.5562C15.6858 30.9794 15.9669 31.3447 16.3364 31.6023C16.7058 31.86 17.1458 31.9975 17.5962 31.9962C17.9234 31.9988 18.2468 31.9267 18.5419 31.7854C18.837 31.6442 19.0959 31.4374 19.2991 31.181C19.5022 31.4374 19.7612 31.6442 20.0563 31.7854C20.3513 31.9267 20.6748 31.9988 21.0019 31.9962C21.5176 31.9991 22.0177 31.82 22.4142 31.4904C22.8107 31.1608 23.0782 30.7018 23.1695 30.1943C23.7491 29.8957 24.2591 29.4782 24.6662 28.969C25.0733 28.4597 25.3683 27.8703 25.5319 27.2392C25.6955 26.6081 25.7241 25.9496 25.6157 25.3067C25.5073 24.6639 25.2644 24.0511 24.9029 23.5086C25.2643 22.9628 25.5071 22.3472 25.6155 21.7016C25.7239 21.0561 25.6955 20.3949 25.5321 19.7611C25.3687 19.1272 25.0739 18.5347 24.6669 18.022C24.26 17.5093 23.7498 17.0878 23.1695 16.7848C23.0776 16.2776 22.8099 15.819 22.4135 15.4895C22.0171 15.16 21.5174 14.9806 21.0019 14.9829C20.6744 14.9801 20.3505 15.0525 20.0553 15.1945C19.7601 15.3365 19.5014 15.5443 19.2991 15.8019C19.0967 15.5443 18.838 15.3365 18.5428 15.1945C18.2476 15.0525 17.9238 14.9801 17.5962 14.9829C17.1442 14.9809 16.7025 15.1185 16.3316 15.3769C15.9607 15.6353 15.6786 16.0019 15.5238 16.4267C15.0823 16.5457 14.6923 16.8068 14.4141 17.1697C14.1359 17.5326 13.985 17.977 13.9848 18.4343C13.9824 18.8869 14.131 19.3274 14.4069 19.6861C14.6829 20.0449 15.0705 20.3014 15.5086 20.4152V26.5638C15.07 26.678 14.682 26.9352 14.406 27.2946C14.13 27.6541 13.9818 28.0954 13.9848 28.5486ZM16.1829 18.9829C15.8095 18.9829 15.5086 18.7848 15.5086 18.4343C15.5124 18.3513 15.5332 18.27 15.5697 18.1953C15.6063 18.1207 15.6577 18.0543 15.7209 18.0004C15.7842 17.9465 15.8578 17.9061 15.9372 17.8818C16.0167 17.8575 16.1003 17.8498 16.1829 17.8591H16.9219V17.1467C16.9276 16.9728 17.0015 16.8081 17.1277 16.6883C17.2539 16.5685 17.4222 16.5033 17.5962 16.5067C17.6804 16.5056 17.7639 16.5215 17.8418 16.5534C17.9197 16.5852 17.9904 16.6324 18.0497 16.6921C18.1091 16.7517 18.1558 16.8227 18.1872 16.9008C18.2186 16.9789 18.2339 17.0625 18.2324 17.1467V17.8591H20.3657V17.1467C20.3642 17.0625 20.3796 16.9789 20.411 16.9008C20.4423 16.8227 20.4891 16.7517 20.5484 16.6921C20.6077 16.6324 20.6785 16.5852 20.7564 16.5534C20.8343 16.5215 20.9178 16.5056 21.0019 16.5067C21.1761 16.5026 21.3448 16.5676 21.4711 16.6876C21.5975 16.8075 21.6712 16.9725 21.6762 17.1467V17.8552C22.384 17.9993 23.0192 18.3861 23.4721 18.9489C23.9249 19.5116 24.1669 20.2149 24.1562 20.9371C24.1521 21.4383 24.0307 21.9315 23.8018 22.3774C23.573 22.8232 23.2429 23.2093 22.8381 23.5048C23.2392 23.7968 23.5669 24.178 23.7957 24.6183C24.0244 25.0585 24.1478 25.5459 24.1562 26.0419C24.1669 26.7641 23.9249 27.4674 23.4721 28.0302C23.0192 28.5929 22.384 28.9797 21.6762 29.1238V29.8324C21.6712 30.0065 21.5975 30.1716 21.4711 30.2915C21.3448 30.4114 21.1761 30.4765 21.0019 30.4724C20.9178 30.4734 20.8343 30.4576 20.7564 30.4257C20.6785 30.3939 20.6077 30.3467 20.5484 30.287C20.4891 30.2273 20.4423 30.1563 20.411 30.0782C20.3796 30.0001 20.3642 29.9165 20.3657 29.8324V29.1238H18.2324V29.8324C18.2339 29.9165 18.2186 30.0001 18.1872 30.0782C18.1558 30.1563 18.1091 30.2273 18.0497 30.287C17.9904 30.3467 17.9197 30.3939 17.8418 30.4257C17.7639 30.4575 17.6804 30.4734 17.5962 30.4724C17.423 30.4756 17.2557 30.41 17.1307 30.2901C17.0058 30.1701 16.9334 30.0055 16.9295 29.8324V29.1238H16.1829C16.1004 29.1328 16.0169 29.1248 15.9376 29.1004C15.8583 29.0759 15.7848 29.0355 15.7216 28.9817C15.6585 28.9278 15.607 28.8616 15.5704 28.7871C15.5338 28.7126 15.5127 28.6315 15.5086 28.5486C15.5086 28.1943 15.8095 27.9962 16.1829 27.9962H17.0324V18.9829H16.1829Z" fill="#3D6CB4"/>
<path d="M22.7314 20.9143C22.7314 20.404 22.5295 19.9145 22.1698 19.5526C21.81 19.1908 21.3217 18.9859 20.8114 18.9829H18.2324V22.9257H20.8114C21.3319 22.9109 21.8254 22.6913 22.1849 22.3147C22.5444 21.9381 22.7408 21.4349 22.7314 20.9143ZM19.7562 20.5067H20.8114C20.9175 20.5098 21.0182 20.5541 21.0922 20.6302C21.1661 20.7063 21.2076 20.8082 21.2076 20.9143C21.2137 21.0302 21.1766 21.1443 21.1034 21.2344C21.0302 21.3245 20.9262 21.3842 20.8114 21.4019H19.7562V20.5067ZM22.7314 26.0991C22.736 25.5766 22.539 25.0724 22.1814 24.6915C21.8238 24.3105 21.3332 24.0819 20.8114 24.0534H18.2324V27.9962H20.8114C21.0631 28.0014 21.3132 27.9561 21.547 27.8629C21.7808 27.7697 21.9936 27.6305 22.1726 27.4536C22.3516 27.2767 22.4933 27.0657 22.5893 26.833C22.6853 26.6003 22.7337 26.3508 22.7314 26.0991ZM19.7562 25.5772H20.8114C20.9262 25.6075 21.0275 25.6754 21.0993 25.77C21.1711 25.8645 21.2092 25.9804 21.2076 26.0991C21.2092 26.1505 21.1999 26.2017 21.1802 26.2492C21.1605 26.2968 21.131 26.3396 21.0935 26.3749C21.0561 26.4102 21.0116 26.4371 20.963 26.4539C20.9143 26.4707 20.8627 26.477 20.8114 26.4724H19.7562V25.5772ZM18.9311 33.2513L8.02562 42.659C7.87263 42.7911 7.77835 42.9784 7.76352 43.18C7.74868 43.3815 7.81452 43.5807 7.94653 43.7336C8.07854 43.8866 8.26592 43.9809 8.46745 43.9958C8.66898 44.0106 8.86814 43.9447 9.02113 43.8127L19.485 34.7859L28.3619 40.7883C28.5141 40.8912 28.6982 40.9356 28.8805 40.9135C29.0628 40.8914 29.231 40.8042 29.3541 40.668L42.4184 26.2093L42.1595 28.0906C42.1323 28.2906 42.1856 28.4933 42.3077 28.654C42.4298 28.8147 42.6106 28.9205 42.8106 28.948C43.0105 28.9756 43.2132 28.9227 43.3742 28.8009C43.5352 28.6792 43.6413 28.4985 43.6692 28.2986L44.3258 23.5303C44.344 23.3978 44.3271 23.2628 44.2766 23.139C44.2261 23.0151 44.1439 22.9067 44.0383 22.8246C43.9327 22.7426 43.8073 22.6898 43.6748 22.6716C43.5423 22.6533 43.4073 22.6703 43.2834 22.7208L38.8314 24.5352C38.7386 24.5728 38.6541 24.6284 38.5827 24.6987C38.5114 24.769 38.4546 24.8527 38.4157 24.945C38.3767 25.0373 38.3564 25.1364 38.3558 25.2366C38.3552 25.3367 38.3743 25.4361 38.4121 25.5288C38.4499 25.6216 38.5057 25.706 38.5761 25.7772C38.6466 25.8484 38.7304 25.905 38.8228 25.9438C38.9151 25.9825 39.0143 26.0027 39.1144 26.0031C39.2146 26.0036 39.3139 25.9842 39.4066 25.9462L41.2994 25.1748L28.667 39.1553L19.8556 33.197C19.7169 33.1032 19.5513 33.0577 19.3842 33.0676C19.217 33.0774 19.0578 33.142 18.9311 33.2513ZM60.9524 5.71431C60.9524 5.48828 60.8854 5.26732 60.7598 5.07937C60.6342 4.89143 60.4557 4.74495 60.2469 4.65845C60.0381 4.57195 59.8083 4.54932 59.5866 4.59341C59.3649 4.63751 59.1613 4.74636 59.0014 4.90619C58.8416 5.06602 58.7327 5.26966 58.6887 5.49135C58.6446 5.71304 58.6672 5.94283 58.7537 6.15166C58.8402 6.36049 58.9867 6.53898 59.1746 6.66456C59.3625 6.79014 59.5835 6.85717 59.8095 6.85717C60.1125 6.85682 60.403 6.7363 60.6173 6.52205C60.8315 6.3078 60.9521 6.01731 60.9524 5.71431ZM59.2381 5.71431C59.2381 5.60129 59.2716 5.49081 59.3344 5.39684C59.3972 5.30287 59.4865 5.22963 59.5909 5.18638C59.6953 5.14313 59.8102 5.13181 59.921 5.15386C60.0319 5.17591 60.1337 5.23034 60.2136 5.31025C60.2935 5.39017 60.3479 5.49199 60.37 5.60283C60.392 5.71368 60.3807 5.82857 60.3375 5.93299C60.2942 6.0374 60.221 6.12665 60.127 6.18944C60.033 6.25223 59.9226 6.28574 59.8095 6.28574C59.658 6.28559 59.5128 6.22534 59.4057 6.11821C59.2985 6.01108 59.2383 5.86582 59.2381 5.71431ZM26.6667 3.4286C26.8927 3.4286 27.1137 3.36157 27.3016 3.23599C27.4896 3.11041 27.636 2.93192 27.7225 2.72309C27.809 2.51426 27.8317 2.28447 27.7876 2.06278C27.7435 1.84109 27.6346 1.63745 27.4748 1.47762C27.315 1.31779 27.1113 1.20894 26.8896 1.16484C26.668 1.12075 26.4382 1.14338 26.2293 1.22988C26.0205 1.31638 25.842 1.46286 25.7164 1.6508C25.5909 1.83875 25.5238 2.05971 25.5238 2.28574C25.5242 2.58874 25.6447 2.87923 25.8589 3.09348C26.0732 3.30773 26.3637 3.42825 26.6667 3.4286ZM26.6667 1.71431C26.7797 1.71431 26.8902 1.74783 26.9842 1.81062C27.0781 1.8734 27.1514 1.96265 27.1946 2.06706C27.2379 2.17148 27.2492 2.28637 27.2271 2.39722C27.2051 2.50807 27.1507 2.60989 27.0707 2.6898C26.9908 2.76972 26.889 2.82414 26.7782 2.84619C26.6673 2.86824 26.5524 2.85692 26.448 2.81367C26.3436 2.77042 26.2543 2.69718 26.1916 2.60321C26.1288 2.50924 26.0953 2.39876 26.0953 2.28574C26.0954 2.13423 26.1557 1.98898 26.2628 1.88184C26.3699 1.77471 26.5152 1.71446 26.6667 1.71431ZM8.00002 15.2381C8.15071 15.2381 8.29802 15.1934 8.42331 15.1097C8.5486 15.026 8.64626 14.907 8.70393 14.7678C8.76159 14.6286 8.77668 14.4754 8.74728 14.3276C8.71789 14.1798 8.64532 14.044 8.53877 13.9375C8.43221 13.8309 8.29645 13.7584 8.14866 13.729C8.00086 13.6996 7.84767 13.7146 7.70845 13.7723C7.56923 13.83 7.45024 13.9276 7.36652 14.0529C7.2828 14.1782 7.23811 14.3255 7.23811 14.4762C7.23834 14.6782 7.31869 14.8719 7.46153 15.0147C7.60436 15.1575 7.79802 15.2379 8.00002 15.2381ZM8.00002 14.0953C8.07536 14.0953 8.14902 14.1176 8.21166 14.1595C8.27431 14.2013 8.32314 14.2608 8.35197 14.3304C8.38081 14.4 8.38835 14.4766 8.37365 14.5505C8.35895 14.6244 8.32267 14.6923 8.26939 14.7456C8.21612 14.7989 8.14824 14.8352 8.07434 14.8498C8.00044 14.8645 7.92384 14.857 7.85423 14.8282C7.78462 14.7993 7.72513 14.7505 7.68327 14.6879C7.64141 14.6252 7.61907 14.5516 7.61907 14.4762C7.61917 14.3752 7.65934 14.2784 7.73076 14.207C7.80218 14.1355 7.89901 14.0954 8.00002 14.0953ZM35.4286 11.0476C35.5793 11.0476 35.7266 11.003 35.8519 10.9192C35.9772 10.8355 36.0748 10.7165 36.1325 10.5773C36.1902 10.4381 36.2053 10.2849 36.1759 10.1371C36.1465 9.98931 36.0739 9.85355 35.9673 9.74699C35.8608 9.64044 35.725 9.56787 35.5772 9.53848C35.4294 9.50908 35.2762 9.52417 35.137 9.58183C34.9978 9.6395 34.8788 9.73715 34.7951 9.86245C34.7114 9.98774 34.6667 10.1351 34.6667 10.2857C34.6669 10.4877 34.7473 10.6814 34.8901 10.8242C35.0329 10.9671 35.2266 11.0474 35.4286 11.0476ZM35.4286 9.90479C35.5039 9.90479 35.5776 9.92713 35.6402 9.96899C35.7029 10.0108 35.7517 10.0703 35.7805 10.14C35.8094 10.2096 35.8169 10.2862 35.8022 10.3601C35.7875 10.434 35.7512 10.5018 35.698 10.5551C35.6447 10.6084 35.5768 10.6447 35.5029 10.6594C35.429 10.6741 35.3524 10.6665 35.2828 10.6377C35.2132 10.6089 35.1537 10.56 35.1118 10.4974C35.07 10.4347 35.0476 10.3611 35.0476 10.2857C35.0477 10.1847 35.0879 10.0879 35.1593 10.0165C35.2307 9.94506 35.3276 9.90489 35.4286 9.90479ZM4.19049 3.4286C4.0398 3.4286 3.8925 3.47328 3.7672 3.557C3.64191 3.64072 3.54425 3.75971 3.48659 3.89893C3.42892 4.03815 3.41383 4.19135 3.44323 4.33914C3.47263 4.48694 3.54519 4.6227 3.65175 4.72925C3.7583 4.8358 3.89406 4.90837 4.04185 4.93777C4.18965 4.96717 4.34284 4.95208 4.48206 4.89441C4.62128 4.83674 4.74028 4.73909 4.82399 4.61379C4.90771 4.4885 4.9524 4.34119 4.9524 4.1905C4.95217 3.9885 4.87182 3.79484 4.72899 3.65201C4.58615 3.50918 4.39249 3.42883 4.19049 3.4286ZM4.19049 4.57146C4.11515 4.57146 4.0415 4.54911 3.97885 4.50725C3.9162 4.46539 3.86737 4.4059 3.83854 4.33629C3.80971 4.26668 3.80216 4.19008 3.81686 4.11618C3.83156 4.04229 3.86784 3.97441 3.92112 3.92113C3.9744 3.86785 4.04228 3.83157 4.11617 3.81687C4.19007 3.80217 4.26667 3.80972 4.33628 3.83855C4.40589 3.86738 4.46538 3.91621 4.50724 3.97886C4.5491 4.0415 4.57145 4.11516 4.57145 4.1905C4.57135 4.29151 4.53118 4.38835 4.45976 4.45977C4.38834 4.53119 4.2915 4.57135 4.19049 4.57146Z" fill="#3D6CB4"/>
<path d="M0.761905 56.381C1.18269 56.381 1.52381 56.0398 1.52381 55.6191C1.52381 55.1983 1.18269 54.8571 0.761905 54.8571C0.341116 54.8571 0 55.1983 0 55.6191C0 56.0398 0.341116 56.381 0.761905 56.381Z" fill="#3D6CB4"/>
<path d="M4.19047 54.8571H3.04761C2.84554 54.8571 2.65175 54.9374 2.50886 55.0803C2.36598 55.2232 2.28571 55.417 2.28571 55.6191C2.28571 55.8211 2.36598 56.0149 2.50886 56.1578C2.65175 56.3007 2.84554 56.381 3.04761 56.381H4.19047C4.39254 56.381 4.58633 56.3007 4.72922 56.1578C4.8721 56.0149 4.95237 55.8211 4.95237 55.6191C4.95237 55.417 4.8721 55.2232 4.72922 55.0803C4.58633 54.9374 4.39254 54.8571 4.19047 54.8571ZM60.9524 54.8571H59.8095C59.6074 54.8571 59.4137 54.9374 59.2708 55.0803C59.1279 55.2232 59.0476 55.417 59.0476 55.6191C59.0476 55.8211 59.1279 56.0149 59.2708 56.1578C59.4137 56.3007 59.6074 56.381 59.8095 56.381H60.9524C61.1544 56.381 61.3482 56.3007 61.4911 56.1578C61.634 56.0149 61.7143 55.8211 61.7143 55.6191C61.7143 55.417 61.634 55.2232 61.4911 55.0803C61.3482 54.9374 61.1544 54.8571 60.9524 54.8571Z" fill="#3D6CB4"/>
<path d="M63.2381 56.381C63.6589 56.381 64 56.0398 64 55.6191C64 55.1983 63.6589 54.8571 63.2381 54.8571C62.8173 54.8571 62.4762 55.1983 62.4762 55.6191C62.4762 56.0398 62.8173 56.381 63.2381 56.381Z" fill="#3D6CB4"/>
<path d="M57.4171 54.8572H35.3892C35.4963 54.7363 35.5959 54.6091 35.6876 54.4762C35.98 54.0425 36.1789 53.5528 36.2716 53.038C36.3644 52.5233 36.349 51.9949 36.2265 51.4865C36.1039 50.978 35.8769 50.5006 35.5598 50.0847C35.2427 49.6687 34.8426 49.3234 34.3847 49.0705C33.7482 48.7339 33.036 48.566 32.3162 48.5829C32.2751 48.5811 32.2349 48.5707 32.1981 48.5524C32.1919 48.5275 32.1894 48.5018 32.1904 48.4762C32.1904 48.4305 32.1904 48.3695 32.3162 48.3695C33.042 48.3774 33.7588 48.2074 34.4038 47.8743C34.9865 47.5473 35.4721 47.0714 35.8107 46.4953C36.1494 45.9192 36.3291 45.2635 36.3314 44.5952C36.3337 43.927 36.1586 43.2701 35.824 42.6916C35.4893 42.1132 35.0071 41.634 34.4266 41.3029C33.8348 40.9714 33.1684 40.7957 32.4901 40.7924C31.8117 40.7891 31.1436 40.9582 30.5485 41.2838C29.9668 41.6162 29.4826 42.0955 29.1443 42.6738C28.806 43.2521 28.6255 43.9091 28.6209 44.5791C28.6412 45.2702 28.8421 45.944 29.2038 46.5333C29.2301 46.5831 29.2469 46.6374 29.2533 46.6933C29.2419 46.701 29.2266 46.7086 29.2076 46.72L29.1276 46.7505C29.0914 46.7481 29.0564 46.7372 29.0252 46.7187C28.9941 46.7001 28.9678 46.6745 28.9485 46.6438L28.9104 46.5829C28.5164 46.045 28.0333 45.5786 27.4819 45.2038L27.4476 45.181C26.8586 44.8512 26.1949 44.6781 25.52 44.6781C24.845 44.6781 24.1813 44.8512 23.5924 45.181C23.0075 45.5098 22.5208 45.9883 22.182 46.5674C21.8433 47.1465 21.6647 47.8053 21.6647 48.4762C21.6647 49.1471 21.8433 49.8059 22.182 50.385C22.5208 50.9641 23.0075 51.4426 23.5924 51.7714C24.1787 52.0974 24.8381 52.2694 25.509 52.2714C26.1798 52.2734 26.8403 52.1053 27.4285 51.7829C28.0574 51.4276 28.5746 50.9038 28.9219 50.2705C28.9484 50.2308 28.9853 50.1992 29.0285 50.1791C29.0552 50.184 29.0809 50.193 29.1047 50.2057C29.1311 50.2268 29.1513 50.2545 29.1633 50.2859C29.1754 50.3174 29.1788 50.3515 29.1733 50.3848C28.8196 50.9886 28.628 51.6736 28.6171 52.3733C28.6181 53.1232 28.8437 53.8557 29.2647 54.4762C29.3556 54.6091 29.4546 54.7364 29.5611 54.8572H6.58283C6.47439 54.8429 6.36416 54.852 6.2595 54.8837C6.15484 54.9155 6.05817 54.9692 5.97595 55.0414C5.89373 55.1135 5.82785 55.2023 5.78271 55.302C5.73758 55.4016 5.71423 55.5097 5.71423 55.6191C5.71423 55.7284 5.73758 55.8365 5.78271 55.9362C5.82785 56.0358 5.89373 56.1246 5.97595 56.1968C6.05817 56.2689 6.15484 56.3226 6.2595 56.3544C6.36416 56.3862 6.47439 56.3952 6.58283 56.381H57.4171C57.5256 56.3952 57.6358 56.3862 57.7404 56.3544C57.8451 56.3226 57.9418 56.2689 58.024 56.1968C58.1062 56.1246 58.1721 56.0358 58.2172 55.9362C58.2624 55.8365 58.2857 55.7284 58.2857 55.6191C58.2857 55.5097 58.2624 55.4016 58.2172 55.302C58.1721 55.2023 58.1062 55.1135 58.024 55.0414C57.9418 54.9692 57.8451 54.9155 57.7404 54.8837C57.6358 54.852 57.5256 54.8429 57.4171 54.8572ZM29.0285 48.6553C28.737 48.6639 28.4525 48.7473 28.2024 48.8973C27.9522 49.0474 27.7448 49.2592 27.6 49.5124C27.3886 49.9062 27.0704 50.2323 26.6819 50.4533C26.3255 50.6501 25.9251 50.7533 25.5181 50.7533C25.111 50.7533 24.7106 50.6501 24.3543 50.4533C24.0011 50.2584 23.7067 49.9723 23.5017 49.6249C23.2967 49.2775 23.1885 48.8815 23.1885 48.4781C23.1885 48.0747 23.2967 47.6787 23.5017 47.3313C23.7067 46.9839 24.0011 46.6978 24.3543 46.5029C24.7076 46.3044 25.1056 46.1992 25.5109 46.1972C25.9161 46.1952 26.3152 46.2964 26.6704 46.4914C27.0579 46.7624 27.3978 47.0959 27.6762 47.4781C27.8335 47.7204 28.0484 47.9199 28.3017 48.0588C28.555 48.1978 28.8387 48.2718 29.1276 48.2743C29.3997 48.2752 29.6675 48.2057 29.9047 48.0724C30.1315 47.9705 30.329 47.8131 30.4788 47.6146C30.6286 47.4162 30.726 47.1832 30.7619 46.9372C30.8076 46.5467 30.7318 46.1515 30.5447 45.8057C30.3079 45.4381 30.1702 45.0156 30.1447 44.5791C30.1496 44.1736 30.2614 43.7766 30.4687 43.4281C30.6761 43.0797 30.9717 42.792 31.3257 42.5943C31.6775 42.3966 32.0744 42.2933 32.4779 42.2945C32.8815 42.2957 33.2778 42.4013 33.6284 42.6012C33.979 42.801 34.2718 43.0882 34.4785 43.4348C34.6851 43.7814 34.7985 44.1756 34.8076 44.5791C34.8039 44.9781 34.6961 45.3693 34.495 45.714C34.294 46.0588 34.0065 46.3451 33.6609 46.5448C33.2437 46.7527 32.7822 46.856 32.3162 46.8457C32.1004 46.8432 31.8864 46.8835 31.6864 46.9643C31.4863 47.0452 31.3043 47.1649 31.1509 47.3165C30.9975 47.4682 30.8757 47.6488 30.7925 47.8478C30.7094 48.0469 30.6666 48.2605 30.6666 48.4762C30.6666 48.6919 30.7094 48.9055 30.7925 49.1046C30.8757 49.3036 30.9975 49.4842 31.1509 49.6359C31.3043 49.7875 31.4863 49.9072 31.6864 49.9881C31.8864 50.0689 32.1004 50.1092 32.3162 50.1067C32.7757 50.0917 33.2316 50.1926 33.6419 50.4C33.9947 50.5946 34.2889 50.8802 34.4939 51.227C34.6989 51.5739 34.8072 51.9693 34.8076 52.3722C34.808 52.7751 34.7004 53.1708 34.4961 53.518C34.2917 53.8652 33.9981 54.1514 33.6457 54.3467C33.5595 54.3952 33.4704 54.4384 33.379 54.4762C33.0926 54.5969 32.785 54.6591 32.4743 54.6591C32.1635 54.6591 31.8559 54.5969 31.5695 54.4762C31.479 54.4392 31.3911 54.3959 31.3066 54.3467C30.9558 54.1495 30.6632 53.8632 30.4585 53.5167C30.2539 53.1702 30.1443 52.7758 30.1409 52.3733C30.1541 51.9254 30.2827 51.4885 30.5143 51.1048C30.7042 50.7204 30.7427 50.2786 30.622 49.8672C30.5013 49.4557 30.2303 49.1047 29.8628 48.8838C29.6084 48.7387 29.3214 48.6601 29.0285 48.6553Z" fill="#3D6CB4"/>
<path d="M46.8362 3.35008V2.94475L45.9364 3.06361V3.0518L46.5029 2.30704L46.1452 2.10437L45.7817 2.93866H45.7695L45.4 2.11008L45.0362 2.31885L45.5966 3.04608V3.05789L44.7204 2.94475V3.35008L45.6027 3.23694V3.24875L45.0362 3.97561L45.376 4.19047L45.7638 3.35008H45.7753L46.133 4.18437L46.5086 3.96989L45.9364 3.25447V3.24266L46.8362 3.35008Z" fill="#0E1744"/>
<path d="M42.2008 14.1208L41.8743 14.5394L42.0701 14.6629L42.2933 14.1791H42.3002L42.5059 14.6594L42.7223 14.536L42.3928 14.1238V14.117L42.9109 14.1791V13.9455L42.3928 14.0141V14.0073L42.7189 13.5783L42.5131 13.4617L42.3036 13.9421H42.2968L42.0842 13.4648L41.8743 13.5852L42.1973 14.0038V14.0107L41.6926 13.9455V14.1791L42.2008 14.1139V14.1208Z" fill="#0E1744"/>
<path d="M30.0278 21.125L29.4724 21.8381L29.8057 22.0488L30.1859 21.224H30.1973L30.5482 22.0427L30.9166 21.8324L30.3554 21.1307V21.1189L31.2381 21.224V20.8267L30.3554 20.9436V20.9318L30.9112 20.2011L30.5604 20.0023L30.2038 20.8206H30.1916L29.8293 20.008L29.4724 20.213L30.0221 20.9261V20.9379L29.1627 20.8267V21.224L30.0278 21.1131V21.125Z" fill="#0E1744"/>
<path d="M19.696 11.8183L19.2168 12.4335L19.504 12.6152L19.8324 11.904H19.8419L20.1448 12.6099L20.4625 12.4286L19.9783 11.8232V11.813L20.7398 11.904V11.5612L19.9783 11.6617V11.6518L20.4575 11.0213L20.1551 10.8499L19.8472 11.5558H19.8373L19.5246 10.8549L19.2168 11.0316L19.6911 11.6469V11.6568L18.9493 11.5612V11.904L19.696 11.808V11.8183Z" fill="#0E1744"/>
<path d="M45.011 58.2857H41.8461C41.6546 58.3011 41.4759 58.388 41.3456 58.5292C41.2152 58.6704 41.1428 58.8555 41.1428 59.0476C41.1428 59.2398 41.2152 59.4249 41.3456 59.5661C41.4759 59.7072 41.6546 59.7942 41.8461 59.8095H45.011C45.2025 59.7942 45.3813 59.7072 45.5116 59.5661C45.6419 59.4249 45.7143 59.2398 45.7143 59.0476C45.7143 58.8555 45.6419 58.6704 45.5116 58.5292C45.3813 58.388 45.2025 58.3011 45.011 58.2857ZM22.1539 58.2857H18.989C18.7975 58.3011 18.6187 58.388 18.4884 58.5292C18.3581 58.6704 18.2857 58.8555 18.2857 59.0476C18.2857 59.2398 18.3581 59.4249 18.4884 59.5661C18.6187 59.7072 18.7975 59.7942 18.989 59.8095H22.1539C22.3454 59.7942 22.5241 59.7072 22.6545 59.5661C22.7848 59.4249 22.8572 59.2398 22.8572 59.0476C22.8572 58.8555 22.7848 58.6704 22.6545 58.5292C22.5241 58.388 22.3454 58.3011 22.1539 58.2857ZM39.619 58.2857H24.381C24.1789 58.2857 23.9851 58.366 23.8422 58.5089C23.6993 58.6517 23.619 58.8455 23.619 59.0476C23.619 59.2497 23.6993 59.4435 23.8422 59.5864C23.9851 59.7292 24.1789 59.8095 24.381 59.8095H30.4533V60.5714H27.4286C27.2265 60.5714 27.0327 60.6517 26.8898 60.7946C26.7469 60.9375 26.6667 61.1313 26.6667 61.3333C26.6667 61.5354 26.7469 61.7292 26.8898 61.8721C27.0327 62.015 27.2265 62.0952 27.4286 62.0952H36.9524C37.1545 62.0952 37.3482 62.015 37.4911 61.8721C37.634 61.7292 37.7143 61.5354 37.7143 61.3333C37.7143 61.1313 37.634 60.9375 37.4911 60.7946C37.3482 60.6517 37.1545 60.5714 36.9524 60.5714H33.5467V59.8095H39.619C39.8211 59.8095 40.0149 59.7292 40.1578 59.5864C40.3007 59.4435 40.381 59.2497 40.381 59.0476C40.381 58.8455 40.3007 58.6517 40.1578 58.5089C40.0149 58.366 39.8211 58.2857 39.619 58.2857Z" fill="#0E1744"/>
</svg>
