<svg width="64" height="65" viewBox="0 0 64 65" fill="none" xmlns="http://www.w3.org/2000/svg">
<g clip-path="url(#clip0_181_340)">
<path d="M26.625 23.875H25.375V11.375C25.375 9.65 26.775 8.25 28.5 8.25H52.25C53.975 8.25 55.375 9.65 55.375 11.375V21.375H54.125V11.375C54.125 10.3375 53.2875 9.5 52.25 9.5H28.5C27.4625 9.5 26.625 10.3375 26.625 11.375V23.875Z" fill="#3D6CB4"/>
<path d="M34.5125 24.5H30.2625C29.9125 24.5 29.6375 24.225 29.6375 23.875V8.875C29.6375 8.525 29.9125 8.25 30.2625 8.25H34.5125C34.8625 8.25 35.1375 8.525 35.1375 8.875V23.875C35.1375 24.225 34.8625 24.5 34.5125 24.5ZM30.8875 23.25H33.8875V9.5H30.8875V23.25Z" fill="#3D6CB4"/>
<path d="M51 13.125H49.75V23.875H51V13.125Z" fill="#3D6CB4"/>
<path d="M45.75 13.125H44.5V18.375H45.75V13.125Z" fill="#3D6CB4"/>
<path d="M48.5 13.125H47.25V23.875H48.5V13.125Z" fill="#3D6CB4"/>
<path d="M60.875 50.75H40.875C37.0875 50.75 34 47.6625 34 43.875C34 40.0875 37.0875 37 40.875 37H60.875C62.6 37 64 38.4 64 40.125V47.625C64 49.35 62.6 50.75 60.875 50.75ZM40.875 38.25C37.775 38.25 35.25 40.775 35.25 43.875C35.25 46.975 37.775 49.5 40.875 49.5H60.875C61.9125 49.5 62.75 48.6625 62.75 47.625V40.125C62.75 39.0875 61.9125 38.25 60.875 38.25H40.875Z" fill="#3D6CB4"/>
<path d="M40.8375 47.625C38.775 47.625 37.0875 45.9375 37.0875 43.875C37.0875 41.8125 38.775 40.125 40.8375 40.125C42.9 40.125 44.5875 41.8125 44.5875 43.875C44.5875 45.9375 42.9 47.625 40.8375 47.625ZM40.8375 41.375C39.4625 41.375 38.3375 42.5 38.3375 43.875C38.3375 45.25 39.4625 46.375 40.8375 46.375C42.2125 46.375 43.3375 45.25 43.3375 43.875C43.3375 42.5 42.2125 41.375 40.8375 41.375ZM59.375 24.5H4.375C1.9625 24.5 0 22.5375 0 20.125C0 17.7125 1.9625 15.75 4.375 15.75V17C2.65 17 1.25 18.4 1.25 20.125C1.25 21.85 2.65 23.25 4.375 23.25H58.75V17H54.75V15.75H59.375C59.725 15.75 60 16.025 60 16.375V23.875C60 24.225 59.725 24.5 59.375 24.5Z" fill="#3D6CB4"/>
<path d="M7.33752 23.875H6.08752V1.125C6.08752 0.775 6.36252 0.5 6.71252 0.5H32.2125C32.5625 0.5 32.8375 0.775 32.8375 1.125V8.875H31.5875V1.75H7.33752V23.875Z" fill="#3D6CB4"/>
<path d="M10.4625 23.875H9.21252V7.5875C9.21252 7.2375 9.48752 6.9625 9.83752 6.9625C11.2625 6.9625 12.425 5.8 12.425 4.375C12.425 4.025 12.7 3.75 13.05 3.75H25.875C26.225 3.75 26.5 4.025 26.5 4.375C26.5 5.8 27.6625 6.9625 29.0875 6.9625C29.4375 6.9625 29.7125 7.2375 29.7125 7.5875V8.875H28.4625V8.1625C26.85 7.9 25.575 6.625 25.3 5H13.625C13.3625 6.6125 12.0875 7.8875 10.4625 8.1625V23.875Z" fill="#3D6CB4"/>
<path d="M20.125 8.625H18.875V13.625H20.125V8.625Z" fill="#3D6CB4"/>
<path d="M25.9625 24.5H12.9625C12.6125 24.5 12.3375 24.225 12.3375 23.875C12.3375 21.9625 13.075 20.1625 14.425 18.825C15.7625 17.4875 17.55 16.75 19.4625 16.75C21.375 16.75 23.1625 17.4875 24.5 18.825C25.85 20.1625 26.5875 21.9625 26.5875 23.875C26.5875 24.225 26.3125 24.5 25.9625 24.5ZM13.625 23.25H25.3125C25 20.3 22.5 18 19.475 18C16.45 18 13.9375 20.3 13.625 23.25Z" fill="#3D6CB4"/>
<path d="M56.25 36.375H55V37.625H56.25V36.375Z" fill="#3D6CB4"/>
<path d="M56.25 31.375H55V33.875H56.25V31.375Z" fill="#3D6CB4"/>
<path d="M56.25 28.875H55V28.25H54.375V27H55.625C55.975 27 56.25 27.275 56.25 27.625V28.875ZM51.875 28.25H49.375V27H51.875V28.25ZM46.875 28.25H44.375V27H46.875V28.25ZM41.875 28.25H39.375V27H41.875V28.25ZM36.875 28.25H34.375V27H36.875V28.25ZM31.875 28.25H29.375V27H31.875V28.25ZM26.875 28.25H24.375V27H26.875V28.25ZM21.875 28.25H19.375V27H21.875V28.25ZM16.875 28.25H14.375V27H16.875V28.25ZM11.875 28.25H9.375V27H11.875V28.25ZM6.875 28.25H4.375V27H6.875V28.25Z" fill="#3D6CB4"/>
<path d="M1.875 27H0.625V28.25H1.875V27Z" fill="#3D6CB4"/>
<path d="M0.2375 57.8125C0.075 57.35 0 56.8625 0 56.375H1.25C1.25 56.725 1.3125 57.075 1.425 57.4L0.2375 57.8125ZM51.775 60.75H49.175V59.5H51.775V60.75ZM46.5625 60.75H43.9625V59.5H46.5625V60.75ZM41.3625 60.75H38.7625V59.5H41.3625V60.75ZM36.1625 60.75H33.5625V59.5H36.1625V60.75ZM30.9625 60.75H28.3625V59.5H30.9625V60.75ZM25.75 60.75H23.15V59.5H25.75V60.75ZM20.55 60.75H17.95V59.5H20.55V60.75ZM15.35 60.75H12.75V59.5H15.35V60.75ZM10.1375 60.75H7.5375V59.5H10.1375V60.75ZM4.9375 60.75H4.375C3.575 60.75 2.7875 60.5375 2.1125 60.125L2.7625 59.05C3.25 59.35 3.8125 59.5 4.375 59.5H4.9375V60.75ZM55.625 60.75H54.375V59.5H55V58.875H56.25V60.125C56.25 60.475 55.975 60.75 55.625 60.75Z" fill="#3D6CB4"/>
<path d="M56.25 53.875H55V56.375H56.25V53.875Z" fill="#3D6CB4"/>
<path d="M56.25 50.125H55V51.375H56.25V50.125Z" fill="#3D6CB4"/>
<path d="M60 23.875H58.75V37.625H60V23.875Z" fill="#3D6CB4"/>
<path d="M59.375 64.5H4.375C1.9625 64.5 0 62.5375 0 60.125V20.125H1.25V60.125C1.25 61.85 2.65 63.25 4.375 63.25H58.75V50.125H60V63.875C60 64.225 59.725 64.5 59.375 64.5Z" fill="#3D6CB4"/>
</g>
<defs>
<clipPath id="clip0_181_340">
<rect width="64" height="64" fill="white" transform="translate(0 0.5)"/>
</clipPath>
</defs>
</svg>
