<svg width="72" height="72" viewBox="0 0 72 72" fill="none" xmlns="http://www.w3.org/2000/svg">
<g clip-path="url(#clip0_75_185)">
<path d="M70.875 55.125H54.495C54.1966 55.125 53.9105 55.0065 53.6995 54.7955C53.4885 54.5845 53.37 54.2984 53.37 54C53.37 53.7016 53.4885 53.4155 53.6995 53.2045C53.9105 52.9935 54.1966 52.875 54.495 52.875H69.75V2.25H19.125V17.4375C19.125 17.7359 19.0065 18.022 18.7955 18.233C18.5845 18.444 18.2984 18.5625 18 18.5625C17.7016 18.5625 17.4155 18.444 17.2045 18.233C16.9935 18.022 16.875 17.7359 16.875 17.4375V1.125C16.875 0.826631 16.9935 0.540483 17.2045 0.329505C17.4155 0.118526 17.7016 0 18 0L70.875 0C71.1734 0 71.4595 0.118526 71.6705 0.329505C71.8815 0.540483 72 0.826631 72 1.125V54C72 54.2984 71.8815 54.5845 71.6705 54.7955C71.4595 55.0065 71.1734 55.125 70.875 55.125Z" fill="#3D6CB4"/>
<path d="M54 72H1.125C0.826631 72 0.540483 71.8815 0.329505 71.6705C0.118526 71.4595 0 71.1734 0 70.875V18C0 17.7016 0.118526 17.4155 0.329505 17.2045C0.540483 16.9935 0.826631 16.875 1.125 16.875H54C54.2984 16.875 54.5845 16.9935 54.7955 17.2045C55.0065 17.4155 55.125 17.7016 55.125 18V70.875C55.125 71.1734 55.0065 71.4595 54.7955 71.6705C54.5845 71.8815 54.2984 72 54 72ZM2.25 69.75H52.875V19.125H2.25V69.75Z" fill="#3D6CB4"/>
<path d="M24.5869 57.2512C24.2898 57.2515 24.0047 57.1342 23.7937 56.925L7.08187 40.2075C6.9641 40.1066 6.86845 39.9825 6.80092 39.8429C6.7334 39.7034 6.69545 39.5514 6.68947 39.3964C6.68348 39.2415 6.70959 39.087 6.76615 38.9426C6.82271 38.7983 6.9085 38.6671 7.01813 38.5575C7.12777 38.4479 7.25889 38.3621 7.40325 38.3055C7.54762 38.249 7.70212 38.2228 7.85705 38.2288C8.01198 38.2348 8.16401 38.2728 8.30358 38.3403C8.44315 38.4078 8.56726 38.5035 8.66812 38.6212L24.5869 54.5625L45.8944 33.2381C46.1096 33.0538 46.3864 32.9575 46.6696 32.9684C46.9527 32.9794 47.2213 33.0967 47.4216 33.2971C47.622 33.4975 47.7394 33.766 47.7503 34.0492C47.7612 34.3323 47.6649 34.6091 47.4806 34.8244L25.3856 56.925C25.2805 57.0292 25.1558 57.1117 25.0188 57.1677C24.8817 57.2237 24.7349 57.2521 24.5869 57.2512Z" fill="#3D6CB4"/>
</g>
<defs>
<clipPath id="clip0_75_185">
<rect width="72" height="72" fill="white"/>
</clipPath>
</defs>
</svg>
