<svg width="32" height="32" viewBox="0 0 32 32" fill="none" xmlns="http://www.w3.org/2000/svg">
<path d="M27.4058 12.5833V20.6371C27.4058 22.0989 26.2098 23.2951 24.7478 23.2951H7.9951C6.53332 23.2951 5.3371 22.0991 5.3371 20.6371V7.57623M27.4058 7.57623V10.1938" stroke="white" stroke-miterlimit="10" stroke-linecap="round" stroke-linejoin="round"/>
<path opacity="0.3" d="M28.1267 5.12332H19.2936C19.2822 4.9011 18.9436 4.23444 18.5291 4.23444H14.096C13.6816 4.23444 13.3429 4.9011 13.3316 5.12332H4.49844C3.93822 5.12332 3.41333 5.34599 3.41333 5.89044V6.16577C3.41333 6.71021 3.93822 7.34555 4.49844 7.34555H28.1267C28.6869 7.34555 28.9689 6.70999 28.9689 6.16577V5.89044C28.9689 5.34599 28.6869 5.12332 28.1267 5.12332ZM18.0851 6.01221H14.6131C14.3311 6.01221 14.1004 5.84977 14.1004 5.56777C14.1004 5.28577 14.3311 5.12332 14.6131 5.12332H18.0849C18.3669 5.12332 18.5976 5.28577 18.5976 5.56777C18.5978 5.84977 18.3671 6.01221 18.0851 6.01221Z" fill="white"/>
<path d="M28.1266 5.01221H19.2935C19.2822 4.78999 18.9435 4.12332 18.5291 4.12332H14.096C13.6815 4.12332 13.3429 4.78999 13.3315 5.01221H4.49841C3.93819 5.01221 3.52441 5.37643 3.52441 5.93665V6.21999C3.52441 6.78021 3.93819 7.45665 4.49841 7.45665H28.1266C28.6869 7.45665 29.08 6.78021 29.08 6.21999V5.93665C29.08 5.37643 28.6869 5.01221 28.1266 5.01221V5.01221Z" stroke="white" stroke-miterlimit="10" stroke-linecap="round" stroke-linejoin="round"/>
<path d="M1.67579 10.2165V12.5467M0.510681 11.3816H2.8409M10.0333 13.4091V14.8042M9.33579 14.1067H10.7309M22.2851 10.684V12.0791M22.9827 11.3816H21.5876M30.3058 15.1469V17.4771M31.4709 16.312H29.1407M16.374 23.2951L16.3716 26.5049M18.1393 5.99557H14.5587C14.4373 5.99522 14.3209 5.94683 14.2351 5.86097C14.1492 5.77511 14.1008 5.65877 14.1005 5.53735V5.42868C14.1005 5.17668 14.3067 4.97046 14.5587 4.97046H18.1393C18.3913 4.97046 18.5978 5.17668 18.5978 5.42868V5.53735C18.5974 5.65879 18.5489 5.77513 18.4631 5.86098C18.3772 5.94684 18.2608 5.99522 18.1393 5.99557V5.99557Z" stroke="white" stroke-miterlimit="10" stroke-linecap="round" stroke-linejoin="round"/>
<path d="M16.3716 28.1609C16.8289 28.1609 17.1996 27.7902 17.1996 27.3329C17.1996 26.8756 16.8289 26.5049 16.3716 26.5049C15.9143 26.5049 15.5436 26.8756 15.5436 27.3329C15.5436 27.7902 15.9143 28.1609 16.3716 28.1609Z" stroke="white" stroke-miterlimit="10" stroke-linecap="round" stroke-linejoin="round"/>
<path d="M21.6262 16.9065L26.7209 12.2102M17.3487 14.0871L19.8614 16.8129M10.4742 18.674L15.5994 13.9496" stroke="white" stroke-miterlimit="10" stroke-linecap="round" stroke-linejoin="round"/>
<path opacity="0.3" d="M27.7547 12.5931C28.4195 12.5142 28.8946 11.9114 28.8158 11.2466C28.737 10.5817 28.1341 10.1067 27.4693 10.1855C26.8045 10.2643 26.3294 10.8671 26.4082 11.532C26.487 12.1968 27.0898 12.6719 27.7547 12.5931Z" fill="white"/>
<path d="M27.7547 12.5931C28.4195 12.5142 28.8946 11.9114 28.8158 11.2466C28.737 10.5817 28.1341 10.1067 27.4693 10.1855C26.8045 10.2643 26.3294 10.8671 26.4082 11.532C26.487 12.1968 27.0898 12.6719 27.7547 12.5931Z" stroke="white" stroke-miterlimit="10" stroke-linecap="round" stroke-linejoin="round"/>
<path opacity="0.3" d="M20.8421 18.8931C21.5069 18.8143 21.982 18.2114 21.9032 17.5466C21.8244 16.8817 21.2215 16.4067 20.5567 16.4855C19.8919 16.5643 19.4168 17.1671 19.4956 17.832C19.5744 18.4968 20.1772 18.9719 20.8421 18.8931Z" fill="white"/>
<path d="M20.8421 18.8931C21.5069 18.8143 21.982 18.2114 21.9032 17.5466C21.8244 16.8817 21.2215 16.4067 20.5567 16.4855C19.8919 16.5643 19.4168 17.1671 19.4956 17.832C19.5744 18.4968 20.1772 18.9719 20.8421 18.8931Z" stroke="white" stroke-miterlimit="10" stroke-linecap="round" stroke-linejoin="round"/>
<path opacity="0.3" d="M16.7423 14.3198C17.3738 14.2032 17.7949 13.6004 17.6827 12.9734C17.5706 12.3463 16.9678 11.9325 16.3363 12.0491C15.7047 12.1657 15.2837 12.7686 15.3959 13.3956C15.508 14.0227 16.1108 14.4364 16.7423 14.3198Z" fill="white"/>
<path d="M16.7423 14.3198C17.3738 14.2032 17.7949 13.6004 17.6827 12.9734C17.5706 12.3463 16.9678 11.9325 16.3363 12.0491C15.7047 12.1657 15.2837 12.7686 15.3959 13.3956C15.508 14.0227 16.1108 14.4364 16.7423 14.3198Z" stroke="white" stroke-miterlimit="10" stroke-linecap="round" stroke-linejoin="round"/>
<path opacity="0.3" d="M9.78592 20.631C10.4174 20.5144 10.8385 19.9115 10.7263 19.2845C10.6142 18.6574 10.0113 18.2437 9.37983 18.3603C8.74833 18.4769 8.32729 19.0797 8.43943 19.7067C8.55157 20.3338 9.15441 20.7476 9.78592 20.631Z" fill="white"/>
<path d="M9.78592 20.631C10.4174 20.5144 10.8385 19.9115 10.7263 19.2845C10.6142 18.6574 10.0113 18.2437 9.37983 18.3603C8.74833 18.4769 8.32729 19.0797 8.43943 19.7067C8.55157 20.3338 9.15441 20.7476 9.78592 20.631Z" stroke="white" stroke-miterlimit="10" stroke-linecap="round" stroke-linejoin="round"/>
<path opacity="0.3" d="M5.33734 7.40356H27.4058V8.87445H5.33734V7.40356Z" fill="white"/>
</svg>
