<svg width="32" height="32" viewBox="0 0 32 32" fill="none" xmlns="http://www.w3.org/2000/svg">
<g clip-path="url(#clip0_75_280)">
<path d="M12 17.39V16H11V17H10V16H9V17C8.86739 17 8.74021 17.0527 8.64645 17.1464C8.55268 17.2402 8.5 17.3674 8.5 17.5V21.5C8.5 21.6326 8.55268 21.7598 8.64645 21.8536C8.74021 21.9473 8.86739 22 9 22V23H10V22H11V23H12V21.61C12.1468 21.4795 12.2664 21.3213 12.3518 21.1444C12.4372 20.9675 12.4868 20.7755 12.4977 20.5794C12.5086 20.3832 12.4805 20.1869 12.4152 20.0016C12.3499 19.8164 12.2485 19.6459 12.117 19.5C12.2485 19.3541 12.3499 19.1836 12.4152 18.9984C12.4805 18.8131 12.5086 18.6168 12.4977 18.4206C12.4868 18.2245 12.4372 18.0325 12.3518 17.8556C12.2664 17.6787 12.1468 17.5205 12 17.39ZM11.5 18.5C11.5 18.6326 11.4473 18.7598 11.3536 18.8536C11.2598 18.9473 11.1326 19 11 19H9.5V18H11C11.1326 18 11.2598 18.0527 11.3536 18.1464C11.4473 18.2402 11.5 18.3674 11.5 18.5ZM9.5 21V20H11C11.1326 20 11.2598 20.0527 11.3536 20.1464C11.4473 20.2402 11.5 20.3674 11.5 20.5C11.5 20.6326 11.4473 20.7598 11.3536 20.8536C11.2598 20.9473 11.1326 21 11 21H9.5Z" fill="white"/>
<path d="M31 28H29.263C29.9919 27.3165 30.5208 26.4473 30.7929 25.4858C31.065 24.5244 31.0701 23.5069 30.8075 22.5428C30.545 21.5787 30.0247 20.7043 29.3026 20.0136C28.5805 19.3229 27.684 18.8419 26.7091 18.6224C25.7343 18.4029 24.7181 18.4531 23.7697 18.7676C22.8212 19.0821 21.9764 19.6491 21.3259 20.4076C20.6754 21.1661 20.2438 22.0874 20.0775 23.0727C19.9112 24.058 20.0165 25.07 20.382 26H19.15L16.7375 24.392C17.8606 23.0072 18.4818 21.2829 18.5 19.5C18.5 17.3783 17.6571 15.3434 16.1569 13.8431C14.6566 12.3429 12.6217 11.5 10.5 11.5C8.37827 11.5 6.34344 12.3429 4.84315 13.8431C3.34285 15.3434 2.5 17.3783 2.5 19.5H1C0.867392 19.5 0.740215 19.5527 0.646447 19.6464C0.552678 19.7402 0.5 19.8674 0.5 20V31C0.5 31.1326 0.552678 31.2598 0.646447 31.3536C0.740215 31.4473 0.867392 31.5 1 31.5H31C31.1326 31.5 31.2598 31.4473 31.3536 31.3536C31.4473 31.2598 31.5 31.1326 31.5 31V28.5C31.5 28.3674 31.4473 28.2402 31.3536 28.1464C31.2598 28.0527 31.1326 28 31 28ZM25.5 19.5C26.39 19.5 27.26 19.7639 28.0001 20.2584C28.7401 20.7529 29.3169 21.4557 29.6575 22.2779C29.9981 23.1002 30.0872 24.005 29.9135 24.8779C29.7399 25.7508 29.3113 26.5526 28.682 27.182C28.0526 27.8113 27.2508 28.2399 26.3779 28.4135C25.505 28.5872 24.6002 28.4981 23.7779 28.1575C22.9557 27.8169 22.2529 27.2401 21.7584 26.5001C21.2639 25.76 21 24.89 21 24C21.0013 22.8069 21.4759 21.6631 22.3195 20.8195C23.1631 19.9759 24.3069 19.5013 25.5 19.5ZM10.5 12.5C12.3559 12.502 14.1352 13.2401 15.4476 14.5524C16.7599 15.8648 17.498 17.6441 17.5 19.5C17.4872 21.1601 16.8723 22.7591 15.7695 24H14.466C15.2185 23.3371 15.7929 22.4962 16.1366 21.554C16.4803 20.6119 16.5824 19.5987 16.4335 18.6069C16.2846 17.6152 15.8895 16.6766 15.2843 15.8769C14.6791 15.0772 13.8832 14.442 12.9692 14.0293C12.0552 13.6166 11.0523 13.4396 10.0522 13.5144C9.05216 13.5893 8.08681 13.9136 7.24442 14.4577C6.40202 15.0019 5.70945 15.7485 5.23003 16.6293C4.7506 17.5102 4.49961 18.4971 4.5 19.5H3.5C3.50199 17.6441 4.24012 15.8648 5.55245 14.5524C6.86477 13.2401 8.64409 12.502 10.5 12.5ZM12.6685 24H8.7445L5.5 19.8285V19.5C5.49906 18.6062 5.73772 17.7285 6.19115 16.9582C6.64458 16.188 7.2962 15.5533 8.07816 15.1204C8.86012 14.6875 9.74384 14.4721 10.6373 14.4966C11.5308 14.5211 12.4013 14.7847 13.1583 15.26C13.9154 15.7352 14.5312 16.4046 14.9416 17.1986C15.3521 17.9926 15.5422 18.8821 15.4922 19.7745C15.4421 20.6669 15.1538 21.5296 14.6572 22.2728C14.1606 23.0159 13.4739 23.6124 12.6685 24ZM1.5 26.5H3.8245L6.1875 28.3905C6.27621 28.4614 6.38642 28.5001 6.5 28.5H10.793L12.793 30.5H1.5V26.5ZM30.5 30.5H14.207L11.3535 27.6465C11.2598 27.5527 11.1326 27.5 11 27.5H6.6755L4.3125 25.6095C4.22379 25.5386 4.11358 25.4999 4 25.5H1.5V20.5H4.7555L8.1055 24.807C8.15223 24.8671 8.21206 24.9157 8.28043 24.9491C8.34879 24.9826 8.42389 25 8.5 25H15.85L18.724 26.916C18.8058 26.9703 18.9018 26.9995 19 27H20.896C21.6112 28.1049 22.7004 28.9152 23.9643 29.2825C25.2282 29.6498 26.582 29.5495 27.778 29H30.5V30.5Z" fill="white"/>
<path d="M24 26.5V27.5H25V26.5H26V27.5H27V26.11C27.1468 25.9795 27.2664 25.8213 27.3518 25.6444C27.4372 25.4675 27.4868 25.2755 27.4977 25.0794C27.5086 24.8832 27.4805 24.6869 27.4152 24.5016C27.3498 24.3164 27.2485 24.1459 27.117 24C27.2485 23.8541 27.3498 23.6836 27.4152 23.4984C27.4805 23.3131 27.5086 23.1168 27.4977 22.9207C27.4868 22.7245 27.4372 22.5325 27.3518 22.3556C27.2664 22.1787 27.1468 22.0205 27 21.89V20.5H26V21.5H25V20.5H24V21.5C23.8674 21.5 23.7402 21.5527 23.6464 21.6465C23.5527 21.7402 23.5 21.8674 23.5 22V26C23.5 26.1326 23.5527 26.2598 23.6464 26.3536C23.7402 26.4473 23.8674 26.5 24 26.5ZM24.5 25.5V24.5H26C26.1326 24.5 26.2598 24.5527 26.3535 24.6465C26.4473 24.7402 26.5 24.8674 26.5 25C26.5 25.1326 26.4473 25.2598 26.3535 25.3536C26.2598 25.4473 26.1326 25.5 26 25.5H24.5ZM26.5 23C26.5 23.1326 26.4473 23.2598 26.3535 23.3536C26.2598 23.4473 26.1326 23.5 26 23.5H24.5V22.5H26C26.1326 22.5 26.2598 22.5527 26.3535 22.6465C26.4473 22.7402 26.5 22.8674 26.5 23ZM29.5 17.5C29.6326 17.5 29.7597 17.4473 29.8535 17.3535L31.3535 15.8535C31.4471 15.7598 31.4996 15.6327 31.4996 15.5003C31.4996 15.3678 31.4471 15.2408 31.3535 15.147L21.75 5.49201L24.8885 2.35351C24.9822 2.25975 25.0349 2.13259 25.0349 2.00001C25.0349 1.86743 24.9822 1.74027 24.8885 1.64651C24.1317 0.889725 23.1053 0.464569 22.035 0.464569C20.9647 0.464569 19.9383 0.889725 19.1815 1.64651L18.5445 2.28401L17.7605 1.50001C17.573 1.31254 17.3186 1.20722 17.0535 1.20722C16.7883 1.20722 16.534 1.31254 16.3465 1.50001L15.5 2.34651C15.3125 2.53404 15.2072 2.78835 15.2072 3.05351C15.2072 3.31867 15.3125 3.57298 15.5 3.76051L16.284 4.54451L15.184 5.64451C14.4272 6.40131 14.002 7.42774 14.002 8.49801C14.002 9.56828 14.4272 10.5947 15.184 11.3515C15.2777 11.4452 15.4049 11.4979 15.5375 11.4979C15.6701 11.4979 15.7972 11.4452 15.891 11.3515L19.492 7.75001L29.15 17.3545C29.243 17.4471 29.3687 17.4993 29.5 17.5ZM29.5 16.2935L20.2 7.04351L21.0435 6.20001L30.294 15.5L29.5 16.2935ZM18.5445 3.70001L20.3375 5.49301L19.491 6.33951L17.7 4.54451L18.5445 3.70001ZM22.0355 1.46651C22.6681 1.46408 23.2855 1.66088 23.8 2.02901L21.0445 4.78401L19.25 2.99101L19.8875 2.35351C20.1689 2.07064 20.5037 1.84641 20.8724 1.69382C21.2411 1.54122 21.6364 1.46328 22.0355 1.46451V1.46651ZM17.0535 2.20701L17.8375 2.99101L16.991 3.83751L16.207 3.05351L17.0535 2.20701ZM15.5645 10.264C15.1473 9.67912 14.951 8.96528 15.0104 8.24932C15.0698 7.53335 15.3811 6.86164 15.889 6.35351L16.989 5.25351L18.782 7.04651L15.5645 10.264Z" fill="white"/>
<path d="M4.5 6.5H3.5V7.5H4.5V6.5Z" fill="white"/>
<path d="M6.5 6.5H5.5V7.5H6.5V6.5Z" fill="white"/>
<path d="M5.5 5.5H4.5V6.5H5.5V5.5Z" fill="white"/>
<path d="M5.5 7.5H4.5V8.5H5.5V7.5Z" fill="white"/>
<path d="M4 12H3V13H4V12Z" fill="white"/>
<path d="M2 12H1V13H2V12Z" fill="white"/>
<path d="M3 13H2V14H3V13Z" fill="white"/>
<path d="M3 11H2V12H3V11Z" fill="white"/>
<path d="M23 15.5H22V16.5H23V15.5Z" fill="white"/>
<path d="M21 15.5H20V16.5H21V15.5Z" fill="white"/>
<path d="M22 14.5H21V15.5H22V14.5Z" fill="white"/>
<path d="M22 16.5H21V17.5H22V16.5Z" fill="white"/>
<path d="M9.72364 2.05281L9.27643 2.94724L12.2763 4.44719L12.7236 3.55276L9.72364 2.05281Z" fill="white"/>
<path d="M12.5 5.5H8.5V6.5H12.5V5.5Z" fill="white"/>
<path d="M12.2763 7.55281L9.27643 9.05276L9.72364 9.94719L12.7236 8.44724L12.2763 7.55281Z" fill="white"/>
</g>
<defs>
<clipPath id="clip0_75_280">
<rect width="32" height="32" fill="white"/>
</clipPath>
</defs>
</svg>
