<svg width="64" height="64" viewBox="0 0 64 64" fill="none" xmlns="http://www.w3.org/2000/svg">
<path fill-rule="evenodd" clip-rule="evenodd" d="M31.2 0.00850993C24.4216 0.157194 17.8676 2.46578 12.4922 6.59813C-0.215796 16.3466 -3.73108 34.0263 4.27773 47.8958C4.34917 48.0324 4.4475 48.1531 4.56681 48.2507C4.68611 48.3483 4.82392 48.4207 4.97194 48.4637C5.11997 48.5066 5.27515 48.5192 5.42816 48.5006C5.58116 48.482 5.72883 48.4327 5.86227 48.3555C5.99571 48.2784 6.11217 48.1751 6.20464 48.0517C6.29711 47.9284 6.36368 47.7877 6.40035 47.638C6.43702 47.4883 6.44303 47.3327 6.41801 47.1806C6.393 47.0285 6.33748 46.8831 6.25479 46.753C2.65653 40.5246 1.44645 33.2 2.85022 26.1453C4.25399 19.0905 8.17577 12.7871 13.8842 8.41068C19.1938 4.33294 25.7282 2.17414 32.422 2.28621C39.1158 2.39828 45.5742 4.77462 50.7444 9.02781H49.1284C48.8253 9.02781 48.5347 9.14822 48.3203 9.36254C48.106 9.57686 47.9856 9.86755 47.9856 10.1707C47.9856 10.4738 48.106 10.7644 48.3203 10.9788C48.5347 11.1931 48.8253 11.3135 49.1284 11.3135H53.6517C53.8152 11.3218 53.9786 11.2949 54.1308 11.2345C54.283 11.1742 54.4205 11.0819 54.5339 10.9638C54.5594 10.9398 54.5838 10.9146 54.6071 10.8884C54.6806 10.7951 54.7392 10.691 54.7808 10.5798C54.7937 10.5476 54.8051 10.5148 54.815 10.4815C54.8151 10.4785 54.8151 10.4754 54.815 10.4724C54.8242 10.4384 54.8319 10.4041 54.8379 10.3695C54.8498 10.3039 54.8559 10.2373 54.8562 10.1707V5.58786C54.8587 5.4347 54.8303 5.2826 54.7728 5.14061C54.7154 4.99862 54.6299 4.86963 54.5216 4.76131C54.4133 4.653 54.2843 4.56756 54.1423 4.51008C54.0003 4.45261 53.8483 4.42426 53.6951 4.42673C53.545 4.42911 53.3969 4.46104 53.2591 4.52068C53.1214 4.58033 52.9967 4.66653 52.8923 4.77435C52.7879 4.88217 52.7057 5.00952 52.6505 5.1491C52.5953 5.28868 52.5681 5.43777 52.5706 5.58786V7.58326C46.6166 2.52371 39.0113 -0.171972 31.2 0.00850993ZM32 13.2563C26.5831 13.2563 22.1833 17.6357 22.1833 23.039V25.8276H18.3709C18.0678 25.8276 17.7771 25.948 17.5628 26.1623C17.3484 26.3766 17.228 26.6673 17.228 26.9704V49.5987C17.228 49.9018 17.3484 50.1924 17.5628 50.4068C17.7771 50.6211 18.0678 50.7415 18.3709 50.7415H45.6291C45.9322 50.7415 46.2229 50.6211 46.4372 50.4068C46.6516 50.1924 46.772 49.9018 46.772 49.5987V26.9704C46.772 26.6673 46.6516 26.3766 46.4372 26.1623C46.2229 25.948 45.9322 25.8276 45.6291 25.8276H41.8167V23.039C41.8167 17.6357 37.4169 13.2563 32 13.2563ZM58.696 15.4917C58.4925 15.4942 58.2934 15.551 58.1192 15.6562C57.945 15.7614 57.802 15.9112 57.7051 16.0902C57.6081 16.2691 57.5608 16.4707 57.5678 16.6741C57.5749 16.8775 57.6361 17.0753 57.7452 17.2471C61.3435 23.4755 62.5536 30.8001 61.1498 37.8549C59.746 44.9096 55.8242 51.213 50.1158 55.5894C44.8064 59.6656 38.273 61.8235 31.5803 61.7114C24.8877 61.5994 18.4302 59.224 13.2602 54.9723H14.8213C15.1244 54.9723 15.4151 54.8519 15.6294 54.6376C15.8437 54.4232 15.9641 54.1326 15.9641 53.8295C15.9641 53.5264 15.8437 53.2357 15.6294 53.0213C15.4151 52.807 15.1244 52.6866 14.8213 52.6866H10.4306C10.2917 52.6687 10.1507 52.6764 10.0146 52.7095C9.7565 52.7622 9.52451 52.9024 9.35791 53.1065C9.1913 53.3106 9.10033 53.566 9.10039 53.8295V58.4122C9.10039 58.7153 9.22079 59.006 9.43511 59.2204C9.64943 59.4347 9.9401 59.5551 10.2432 59.5551C10.5463 59.5551 10.837 59.4347 11.0513 59.2204C11.2656 59.006 11.386 58.7153 11.386 58.4122V56.3757C16.609 60.8313 23.1313 63.4809 29.9818 63.9299C37.7121 64.4434 45.3647 62.1227 51.5078 57.402C64.2158 47.6535 67.7311 29.9738 59.7223 16.1043C59.6242 15.9171 59.4762 15.7607 59.2946 15.6525C59.1131 15.5444 58.9051 15.4887 58.6937 15.4917H58.696ZM32 15.5443C32.9883 15.5364 33.9683 15.7247 34.8834 16.0983C35.7984 16.4718 36.6302 17.0232 37.3307 17.7205C38.0311 18.4178 38.5863 19.2471 38.964 20.1604C39.3417 21.0738 39.5345 22.053 39.5311 23.0413V25.8299H24.4689V23.0413C24.4689 18.8677 27.8059 15.5443 32 15.5443ZM19.5137 28.1155H44.4863V48.4581H19.5137V28.1155ZM32 32.2138C29.8812 32.2138 28.1304 33.944 28.1304 36.0606C28.1304 37.7794 29.2893 39.2262 30.8572 39.7177V45.5393H33.1428V39.7177C33.927 39.4771 34.6142 38.9929 35.1045 38.3353C35.5949 37.6776 35.8628 36.8809 35.8696 36.0606C35.8696 33.944 34.1188 32.2138 32 32.2138ZM32 34.4994C32.8914 34.4994 33.5839 35.1874 33.5839 36.0606C33.5849 36.2681 33.5444 36.4737 33.465 36.6654C33.3855 36.8571 33.2686 37.0311 33.1211 37.1771C32.9736 37.3231 32.7985 37.4382 32.606 37.5157C32.4135 37.5932 32.2075 37.6316 32 37.6285C31.7925 37.6316 31.5865 37.5932 31.394 37.5157C31.2015 37.4382 31.0264 37.3231 30.8789 37.1771C30.7314 37.0311 30.6145 36.8571 30.5351 36.6654C30.4556 36.4737 30.4151 36.2681 30.4161 36.0606C30.4161 35.1874 31.1086 34.4994 32 34.4994Z" fill="#3D6CB4"/>
</svg>
