<svg width="32" height="32" viewBox="0 0 32 32" fill="none" xmlns="http://www.w3.org/2000/svg">
<path fill-rule="evenodd" clip-rule="evenodd" d="M15.6 0.00425496C12.2108 0.0785971 8.93378 1.23289 6.24612 3.29906C-0.107898 8.17328 -1.86554 17.0132 2.13886 23.9479C2.17459 24.0162 2.22375 24.0766 2.2834 24.1253C2.34305 24.1741 2.41196 24.2104 2.48597 24.2318C2.55999 24.2533 2.63758 24.2596 2.71408 24.2503C2.79058 24.241 2.86441 24.2163 2.93113 24.1778C2.99785 24.1392 3.05608 24.0875 3.10232 24.0259C3.14855 23.9642 3.18184 23.8938 3.20018 23.819C3.21851 23.7441 3.22151 23.6663 3.20901 23.5903C3.1965 23.5143 3.16874 23.4415 3.1274 23.3765C1.32826 20.2623 0.723223 16.6 1.42511 13.0726C2.12699 9.54523 4.08789 6.39355 6.94209 4.20534C9.59692 2.16647 12.8641 1.08707 16.211 1.14311C19.5579 1.19914 22.7871 2.38731 25.3722 4.5139H24.5642C24.4127 4.5139 24.2673 4.57411 24.1602 4.68127C24.053 4.78843 23.9928 4.93377 23.9928 5.08533C23.9928 5.23688 24.053 5.38222 24.1602 5.48938C24.2673 5.59654 24.4127 5.65675 24.5642 5.65675H26.8258C26.9076 5.6609 26.9893 5.64744 27.0654 5.61727C27.1415 5.58711 27.2102 5.54094 27.267 5.48189C27.2797 5.46989 27.2919 5.4573 27.3035 5.44418C27.3403 5.39757 27.3696 5.34552 27.3904 5.28989C27.3968 5.27378 27.4026 5.25738 27.4075 5.24075C27.4075 5.23923 27.4075 5.2377 27.4075 5.23618C27.4121 5.21922 27.4159 5.20206 27.419 5.18475C27.4249 5.15194 27.428 5.11867 27.4281 5.08533V2.79393C27.4293 2.71735 27.4152 2.6413 27.3864 2.5703C27.3577 2.49931 27.315 2.43482 27.2608 2.38066C27.2067 2.3265 27.1422 2.28378 27.0712 2.25504C27.0002 2.2263 26.9241 2.21213 26.8475 2.21337C26.7725 2.21456 26.6984 2.23052 26.6296 2.26034C26.5607 2.29016 26.4984 2.33326 26.4462 2.38718C26.3939 2.44109 26.3529 2.50476 26.3253 2.57455C26.2977 2.64434 26.2841 2.71889 26.2853 2.79393V3.79163C23.3083 1.26186 19.5056 -0.085986 15.6 0.00425496ZM16 6.62816C13.2915 6.62816 11.0916 8.81784 11.0916 11.5195V12.9138H9.18543C9.03388 12.9138 8.88854 12.974 8.78138 13.0811C8.67422 13.1883 8.61402 13.3337 8.61402 13.4852V24.7993C8.61402 24.9509 8.67422 25.0962 8.78138 25.2034C8.88854 25.3105 9.03388 25.3707 9.18543 25.3707H22.8146C22.9661 25.3707 23.1115 25.3105 23.2186 25.2034C23.3258 25.0962 23.386 24.9509 23.386 24.7993V13.4852C23.386 13.3337 23.3258 13.1883 23.2186 13.0811C23.1115 12.974 22.9661 12.9138 22.8146 12.9138H20.9084V11.5195C20.9084 8.81784 18.7085 6.62816 16 6.62816ZM29.348 7.74586C29.2463 7.7471 29.1467 7.77548 29.0596 7.82809C28.9725 7.88069 28.901 7.9556 28.8525 8.04508C28.8041 8.13455 28.7804 8.23535 28.7839 8.33705C28.7874 8.43875 28.8181 8.53766 28.8726 8.62356C30.6717 11.7377 31.2768 15.4 30.5749 18.9274C29.873 22.4548 27.9121 25.6065 25.0579 27.7947C22.4032 29.8328 19.1365 30.9118 15.7902 30.8557C12.4438 30.7997 9.2151 29.612 6.63011 27.4861H7.41065C7.56219 27.4861 7.70753 27.4259 7.81469 27.3188C7.92185 27.2116 7.98205 27.0663 7.98205 26.9147C7.98205 26.7632 7.92185 26.6178 7.81469 26.5107C7.70753 26.4035 7.56219 26.3433 7.41065 26.3433H5.21531C5.14586 26.3343 5.07536 26.3382 5.00732 26.3547C4.87825 26.3811 4.76225 26.4512 4.67895 26.5533C4.59565 26.6553 4.55017 26.783 4.55019 26.9147V29.2061C4.55019 29.3577 4.61039 29.503 4.71755 29.6102C4.82471 29.7173 4.97005 29.7775 5.1216 29.7775C5.27314 29.7775 5.41848 29.7173 5.52564 29.6102C5.6328 29.503 5.693 29.3577 5.693 29.2061V28.1879C8.30449 30.4157 11.5656 31.7404 14.9909 31.9649C18.8561 32.2217 22.6824 31.0614 25.7539 28.701C32.1079 23.8268 33.8655 14.9869 29.8611 8.05214C29.8121 7.95853 29.7381 7.88034 29.6473 7.82627C29.5565 7.7722 29.4525 7.74437 29.3469 7.74586H29.348ZM16 7.77214C16.4942 7.76821 16.9842 7.86236 17.4417 8.04913C17.8992 8.23591 18.3151 8.5116 18.6653 8.86024C19.0156 9.20888 19.2931 9.62354 19.482 10.0802C19.6709 10.5369 19.7672 11.0265 19.7656 11.5207V12.9149H12.2344V11.5207C12.2344 9.43384 13.9029 7.77214 16 7.77214ZM9.75683 14.0578H22.2432V24.2291H9.75683V14.0578ZM16 16.1069C14.9406 16.1069 14.0652 16.972 14.0652 18.0303C14.0652 18.8897 14.6446 19.6131 15.4286 19.8588V22.7696H16.5714V19.8588C16.9635 19.7386 17.3071 19.4965 17.5523 19.1676C17.7974 18.8388 17.9314 18.4404 17.9348 18.0303C17.9348 16.972 17.0594 16.1069 16 16.1069ZM16 17.2497C16.4457 17.2497 16.792 17.5937 16.792 18.0303C16.7924 18.134 16.7722 18.2369 16.7325 18.3327C16.6927 18.4286 16.6343 18.5155 16.5606 18.5885C16.4868 18.6615 16.3993 18.7191 16.303 18.7578C16.2068 18.7966 16.1038 18.8158 16 18.8143C15.8963 18.8158 15.7932 18.7966 15.697 18.7578C15.6007 18.7191 15.5132 18.6615 15.4394 18.5885C15.3657 18.5155 15.3073 18.4286 15.2675 18.3327C15.2278 18.2369 15.2076 18.134 15.208 18.0303C15.208 17.5937 15.5543 17.2497 16 17.2497Z" fill="white"/>
</svg>
