<svg width="72" height="72" viewBox="0 0 72 72" fill="none" xmlns="http://www.w3.org/2000/svg">
<path d="M27 39.1275V36H24.75V38.25H22.5V36H20.25V38.25C19.9516 38.25 19.6655 38.3685 19.4545 38.5795C19.2435 38.7905 19.125 39.0766 19.125 39.375V48.375C19.125 48.6734 19.2435 48.9595 19.4545 49.1705C19.6655 49.3815 19.9516 49.5 20.25 49.5V51.75H22.5V49.5H24.75V51.75H27V48.6225C27.3304 48.3289 27.5994 47.9729 27.7916 47.5749C27.9838 47.1769 28.0953 46.7448 28.1198 46.3035C28.1443 45.8623 28.0812 45.4205 27.9342 45.0037C27.7872 44.5869 27.5592 44.2033 27.2632 43.875C27.5592 43.5467 27.7872 43.1631 27.9342 42.7463C28.0812 42.3295 28.1443 41.8877 28.1198 41.4465C28.0953 41.0052 27.9838 40.5731 27.7916 40.1751C27.5994 39.7771 27.3304 39.4211 27 39.1275ZM25.875 41.625C25.875 41.9234 25.7565 42.2095 25.5455 42.4205C25.3345 42.6315 25.0484 42.75 24.75 42.75H21.375V40.5H24.75C25.0484 40.5 25.3345 40.6185 25.5455 40.8295C25.7565 41.0405 25.875 41.3266 25.875 41.625ZM21.375 47.25V45H24.75C25.0484 45 25.3345 45.1185 25.5455 45.3295C25.7565 45.5405 25.875 45.8266 25.875 46.125C25.875 46.4234 25.7565 46.7095 25.5455 46.9205C25.3345 47.1315 25.0484 47.25 24.75 47.25H21.375Z" fill="#3D6CB4"/>
<path d="M69.75 63H65.8418C67.4818 61.4621 68.6718 59.5065 69.2841 57.3432C69.8963 55.1799 69.9077 52.8906 69.3169 50.7213C68.7261 48.5521 67.5556 46.5847 65.9309 45.0306C64.3062 43.4765 62.2889 42.3944 60.0955 41.9004C57.9022 41.4065 55.6157 41.5194 53.4817 42.2271C51.3477 42.9347 49.4468 44.2104 47.9832 45.917C46.5196 47.6236 45.5485 49.6967 45.1744 51.9137C44.8002 54.1306 45.0371 56.4076 45.8595 58.5H43.0875L37.6594 54.882C40.1864 51.7661 41.5841 47.8866 41.625 43.875C41.625 39.1011 39.7286 34.5227 36.3529 31.1471C32.9773 27.7714 28.3989 25.875 23.625 25.875C18.8511 25.875 14.2727 27.7714 10.8971 31.1471C7.52142 34.5227 5.625 39.1011 5.625 43.875H2.25C1.95163 43.875 1.66548 43.9935 1.4545 44.2045C1.24353 44.4155 1.125 44.7016 1.125 45V69.75C1.125 70.0484 1.24353 70.3345 1.4545 70.5455C1.66548 70.7565 1.95163 70.875 2.25 70.875H69.75C70.0484 70.875 70.3345 70.7565 70.5455 70.5455C70.7565 70.3345 70.875 70.0484 70.875 69.75V64.125C70.875 63.8266 70.7565 63.5405 70.5455 63.3295C70.3345 63.1185 70.0484 63 69.75 63ZM57.375 43.875C59.3775 43.875 61.3351 44.4688 63.0001 45.5814C64.6652 46.6939 65.9629 48.2752 66.7293 50.1253C67.4956 51.9754 67.6961 54.0112 67.3055 55.9753C66.9148 57.9393 65.9505 59.7435 64.5345 61.1595C63.1185 62.5755 61.3143 63.5398 59.3503 63.9305C57.3862 64.3211 55.3504 64.1206 53.5003 63.3543C51.6502 62.5879 50.0689 61.2902 48.9564 59.6251C47.8438 57.9601 47.25 56.0025 47.25 54C47.253 51.3156 48.3207 48.742 50.2188 46.8438C52.117 44.9457 54.6906 43.878 57.375 43.875ZM23.625 28.125C27.8008 28.1295 31.8043 29.7903 34.757 32.743C37.7097 35.6957 39.3705 39.6992 39.375 43.875C39.3462 47.6102 37.9626 51.2079 35.4814 54H32.5485C34.2417 52.5085 35.534 50.6164 36.3074 48.4966C37.0807 46.3768 37.3104 44.097 36.9754 41.8656C36.6404 39.6342 35.7514 37.5223 34.3898 35.723C33.0281 33.9238 31.2371 32.4945 29.1806 31.5659C27.1241 30.6373 24.8677 30.239 22.6175 30.4074C20.3674 30.5758 18.1953 31.3056 16.2999 32.5299C14.4045 33.7542 12.8463 35.4341 11.7676 37.416C10.6889 39.3979 10.1241 41.6186 10.125 43.875H7.875C7.87947 39.6992 9.54027 35.6957 12.493 32.743C15.4457 29.7903 19.4492 28.1295 23.625 28.125ZM28.5041 54H19.6751L12.375 44.6141V43.875C12.3729 41.8639 12.9099 39.8891 13.9301 38.156C14.9503 36.4229 16.4164 34.995 18.1759 34.0209C19.9353 33.0468 21.9236 32.5621 23.9339 32.6174C25.9443 32.6726 27.903 33.2657 29.6063 34.3349C31.3096 35.4041 32.6951 36.9104 33.6186 38.6969C34.5421 40.4833 34.9699 42.4847 34.8574 44.4926C34.7448 46.5006 34.0961 48.4416 32.9787 50.1137C31.8614 51.7858 30.3162 53.1278 28.5041 54ZM3.375 59.625H8.60513L13.9219 63.8786C14.1215 64.0382 14.3694 64.1251 14.625 64.125H24.2843L28.7843 68.625H3.375V59.625ZM68.625 68.625H31.9657L25.5454 62.2046C25.3344 61.9936 25.0483 61.8751 24.75 61.875H15.0199L9.70312 57.6214C9.50354 57.4618 9.25556 57.3749 9 57.375H3.375V46.125H10.6999L18.2374 55.8157C18.3425 55.9509 18.4771 56.0603 18.631 56.1355C18.7848 56.2108 18.9538 56.2499 19.125 56.25H35.6625L42.129 60.561C42.3131 60.6833 42.529 60.749 42.75 60.75H47.016C48.6251 63.236 51.076 65.0592 53.9197 65.8856C56.7634 66.712 59.8096 66.4864 62.5005 65.25H68.625V68.625Z" fill="#3D6CB4"/>
<path d="M54 59.625V61.875H56.25V59.625H58.5V61.875H60.75V58.7475C61.0804 58.4539 61.3494 58.0979 61.5416 57.6999C61.7338 57.3019 61.8454 56.8698 61.8698 56.4285C61.8943 55.9872 61.8312 55.5455 61.6842 55.1287C61.5372 54.7119 61.3092 54.3283 61.0133 54C61.3092 53.6717 61.5372 53.2881 61.6842 52.8713C61.8312 52.4545 61.8943 52.0127 61.8698 51.5714C61.8454 51.1301 61.7338 50.698 61.5416 50.3001C61.3494 49.9021 61.0804 49.546 60.75 49.2525V46.125H58.5V48.375H56.25V46.125H54V48.375C53.7016 48.375 53.4155 48.4935 53.2045 48.7045C52.9935 48.9155 52.875 49.2016 52.875 49.5V58.5C52.875 58.7983 52.9935 59.0845 53.2045 59.2955C53.4155 59.5064 53.7016 59.625 54 59.625ZM55.125 57.375V55.125H58.5C58.7984 55.125 59.0845 55.2435 59.2955 55.4545C59.5065 55.6655 59.625 55.9516 59.625 56.25C59.625 56.5483 59.5065 56.8345 59.2955 57.0455C59.0845 57.2564 58.7984 57.375 58.5 57.375H55.125ZM59.625 51.75C59.625 52.0483 59.5065 52.3345 59.2955 52.5455C59.0845 52.7564 58.7984 52.875 58.5 52.875H55.125V50.625H58.5C58.7984 50.625 59.0845 50.7435 59.2955 50.9545C59.5065 51.1655 59.625 51.4516 59.625 51.75ZM66.375 39.375C66.6734 39.3749 66.9595 39.2563 67.1704 39.0453L70.5454 35.6703C70.7559 35.4594 70.8742 35.1736 70.8742 34.8755C70.8742 34.5775 70.7559 34.2916 70.5454 34.0807L48.9375 12.357L55.9991 5.29534C56.21 5.08438 56.3285 4.79828 56.3285 4.49997C56.3285 4.20166 56.21 3.91556 55.9991 3.70459C54.2963 2.00183 51.9869 1.04523 49.5788 1.04523C47.1707 1.04523 44.8612 2.00183 43.1584 3.70459L41.7251 5.13897L39.9611 3.37497C39.5392 2.95316 38.967 2.7162 38.3704 2.7162C37.7738 2.7162 37.2016 2.95316 36.7796 3.37497L34.875 5.27959C34.4532 5.70153 34.2162 6.27373 34.2162 6.87034C34.2162 7.46696 34.4532 8.03916 34.875 8.46109L36.639 10.2251L34.164 12.7001C32.4612 14.4029 31.5046 16.7124 31.5046 19.1205C31.5046 21.5286 32.4612 23.838 34.164 25.5408C34.375 25.7517 34.6611 25.8702 34.9594 25.8702C35.2577 25.8702 35.5438 25.7517 35.7548 25.5408L43.857 17.4375L65.5875 39.0476C65.7969 39.2558 66.0797 39.3734 66.375 39.375ZM66.375 36.6603L45.45 15.8478L47.3479 13.95L68.1615 34.875L66.375 36.6603ZM41.7251 8.32497L45.7594 12.3592L43.8548 14.2638L39.825 10.2251L41.7251 8.32497ZM49.5799 3.29959C51.0033 3.29413 52.3924 3.73693 53.55 4.56522L47.3501 10.764L43.3125 6.72972L44.7469 5.29534C45.3802 4.65889 46.1334 4.15438 46.963 3.81103C47.7926 3.46769 48.682 3.29232 49.5799 3.29509V3.29959ZM38.3704 4.96572L40.1344 6.72972L38.2298 8.63435L36.4658 6.87034L38.3704 4.96572ZM35.0201 23.094C34.0815 21.778 33.6398 20.1718 33.7734 18.5609C33.9071 16.95 34.6075 15.4386 35.7503 14.2953L38.2253 11.8203L42.2595 15.8546L35.0201 23.094Z" fill="#3D6CB4"/>
<path d="M10.125 14.625H7.875V16.875H10.125V14.625Z" fill="#3D6CB4"/>
<path d="M14.625 14.625H12.375V16.875H14.625V14.625Z" fill="#3D6CB4"/>
<path d="M12.375 12.375H10.125V14.625H12.375V12.375Z" fill="#3D6CB4"/>
<path d="M12.375 16.875H10.125V19.125H12.375V16.875Z" fill="#3D6CB4"/>
<path d="M9 27H6.75V29.25H9V27Z" fill="#3D6CB4"/>
<path d="M4.5 27H2.25V29.25H4.5V27Z" fill="#3D6CB4"/>
<path d="M6.75 29.25H4.5V31.5H6.75V29.25Z" fill="#3D6CB4"/>
<path d="M6.75 24.75H4.5V27H6.75V24.75Z" fill="#3D6CB4"/>
<path d="M51.75 34.875H49.5V37.125H51.75V34.875Z" fill="#3D6CB4"/>
<path d="M47.25 34.875H45V37.125H47.25V34.875Z" fill="#3D6CB4"/>
<path d="M49.5 32.625H47.25V34.875H49.5V32.625Z" fill="#3D6CB4"/>
<path d="M49.5 37.125H47.25V39.375H49.5V37.125Z" fill="#3D6CB4"/>
<path d="M21.8782 4.61882L20.872 6.63129L27.6218 10.0062L28.628 7.99372L21.8782 4.61882Z" fill="#3D6CB4"/>
<path d="M28.125 12.375H19.125V14.625H28.125V12.375Z" fill="#3D6CB4"/>
<path d="M27.6218 16.9938L20.872 20.3687L21.8782 22.3812L28.628 19.0063L27.6218 16.9938Z" fill="#3D6CB4"/>
</svg>
