<svg width="32" height="32" viewBox="0 0 32 32" fill="none" xmlns="http://www.w3.org/2000/svg">
<g clip-path="url(#clip0_72_143)">
<path d="M21.425 2.49999C21.4 1.54999 22.25 0.649988 23.35 0.699988C24.3 0.749988 25.1 1.57499 25.1 2.57499C25.1 3.59999 24.25 4.39999 23.2 4.37499C22.2 4.34999 21.4 3.52499 21.425 2.49999ZM25.325 26.625C26.35 26.625 27.15 27.425 27.15 28.45C27.15 29.475 26.325 30.3 25.3 30.3C24.3 30.3 23.475 29.475 23.475 28.475C23.475 27.425 24.3 26.625 25.325 26.625ZM1.825 19.125C0.775 19.125 0 18.3 0 17.25C0 16.25 0.825 15.45 1.85 15.475C2.875 15.475 3.675 16.3 3.675 17.35C3.65 18.325 2.825 19.125 1.825 19.125ZM22.2 7.39999C22.2 6.52499 22.9 5.82499 23.775 5.82499C24.625 5.82499 25.325 6.52499 25.35 7.37499C25.35 8.22499 24.65 8.94999 23.775 8.97499C22.9 8.97499 22.2 8.27499 22.2 7.39999ZM5.775 12.85C6.65 12.85 7.375 13.55 7.375 14.4C7.375 15.25 6.65 15.975 5.8 15.975C4.925 15.975 4.225 15.275 4.225 14.4C4.225 13.55 4.9 12.85 5.775 12.85ZM27.85 9.52499C27 9.52499 26.275 8.82499 26.3 7.97499C26.3 7.09999 27.025 6.39999 27.875 6.39999C28.725 6.42499 29.425 7.12499 29.425 7.97499C29.45 8.84999 28.725 9.52499 27.85 9.52499ZM20.85 28.05C19.975 28.05 19.275 27.325 19.275 26.475C19.275 25.625 19.975 24.925 20.85 24.9C21.7 24.875 22.425 25.625 22.425 26.475C22.425 27.325 21.7 28.05 20.85 28.05ZM5.8 10.575C5.8 11.45 5.1 12.15 4.225 12.125C3.375 12.125 2.675 11.425 2.675 10.55C2.675 9.69999 3.375 8.97499 4.225 8.97499C5.075 8.97499 5.8 9.69999 5.8 10.575ZM18.275 31.3C17.4 31.3 16.725 30.6 16.725 29.725C16.725 28.85 17.425 28.175 18.275 28.175C19.15 28.175 19.85 28.875 19.85 29.75C19.85 30.625 19.15 31.3 18.275 31.3ZM13.65 27.225C13.65 26.475 14.25 25.9 14.975 25.9C15.725 25.9 16.325 26.525 16.3 27.275C16.3 28.025 15.7 28.6 14.95 28.6C14.225 28.6 13.625 28 13.65 27.225ZM28.7 12.1C28.7 12.85 28.1 13.45 27.35 13.45C26.625 13.45 26.025 12.85 26.025 12.1C26.025 11.35 26.625 10.75 27.375 10.75C28.1 10.75 28.7 11.35 28.7 12.1ZM9.375 8.94999C9.375 9.69999 8.775 10.275 8.05 10.275C7.3 10.275 6.7 9.67499 6.725 8.92499C6.725 8.17499 7.3 7.59999 8.05 7.59999C8.825 7.59999 9.4 8.17499 9.375 8.94999ZM10.95 12.775C10.95 13.525 10.375 14.125 9.625 14.125C8.875 14.125 8.275 13.55 8.275 12.8C8.275 12.025 8.85 11.45 9.625 11.45C10.375 11.45 10.95 12.025 10.95 12.775ZM6.175 5.44999C6.175 4.69999 6.775 4.12499 7.525 4.12499C8.275 4.12499 8.85 4.72499 8.85 5.47499C8.85 6.22499 8.275 6.79999 7.525 6.82499C6.75 6.79999 6.15 6.19999 6.175 5.44999ZM21.925 11.525C21.925 10.775 22.525 10.175 23.25 10.175C24 10.175 24.6 10.775 24.6 11.525C24.6 12.275 24 12.85 23.25 12.85C22.5 12.875 21.925 12.275 21.925 11.525ZM17.525 22.625C18.25 22.625 18.85 23.225 18.85 23.975C18.85 24.725 18.25 25.325 17.5 25.3C16.75 25.3 16.175 24.7 16.175 23.95C16.175 23.225 16.775 22.625 17.525 22.625ZM13.575 29.475C13.575 30.225 13 30.8 12.25 30.8C11.5 30.8 10.9 30.2 10.9 29.475C10.9 28.725 11.5 28.125 12.25 28.125C13 28.125 13.575 28.725 13.575 29.475ZM30.625 14.7C29.9 14.7 29.3 14.075 29.3 13.375C29.3 12.625 29.925 12.025 30.675 12.025C31.4 12.025 32.025 12.65 32 13.375C32 14.1 31.375 14.7 30.625 14.7ZM13.85 24.55C13.85 25.175 13.325 25.7 12.7 25.7C12.05 25.7 11.55 25.175 11.55 24.55C11.55 23.9 12.075 23.4 12.725 23.4C13.35 23.4 13.85 23.9 13.85 24.55ZM11.55 7.17499C12.2 7.17499 12.7 7.67499 12.7 8.32499C12.7 8.94999 12.175 9.47499 11.55 9.47499C10.925 9.47499 10.375 8.94999 10.4 8.29999C10.4 7.69999 10.925 7.17499 11.55 7.17499ZM14.1 21.275C14.1 20.625 14.6 20.125 15.225 20.125C15.875 20.125 16.4 20.625 16.4 21.275C16.4 21.9 15.9 22.425 15.25 22.425C14.6 22.4 14.1 21.925 14.1 21.275ZM9.975 27.9C9.325 27.9 8.8 27.4 8.8 26.775C8.8 26.15 9.3 25.625 9.95 25.625C10.6 25.625 11.125 26.125 11.1 26.775C11.1 27.4 10.625 27.9 9.975 27.9ZM23.175 14.875C23.175 15.5 22.675 16 22.05 16C21.4 16 20.9 15.5 20.9 14.85C20.9 14.2 21.4 13.7 22.05 13.7C22.7 13.7 23.175 14.2 23.175 14.875ZM10.975 5.97499C10.325 5.97499 9.825 5.49999 9.825 4.84999C9.825 4.19999 10.35 3.67499 10.975 3.67499C11.6 3.67499 12.125 4.19999 12.125 4.82499C12.125 5.47499 11.625 5.97499 10.975 5.97499ZM26.15 16.55C25.5 16.55 25.025 16.05 25.025 15.4C25.025 14.775 25.525 14.275 26.175 14.25C26.825 14.25 27.325 14.75 27.3 15.425C27.3 16.1 26.8 16.575 26.15 16.55ZM13.075 13.3C12.45 13.3 11.95 12.775 11.95 12.15C11.95 11.525 12.5 11.025 13.125 11.025C13.75 11.025 14.25 11.55 14.25 12.175C14.25 12.8 13.725 13.3 13.075 13.3ZM29.425 17.825C28.775 17.8 28.275 17.275 28.3 16.625C28.325 16 28.85 15.5 29.475 15.525C30.125 15.55 30.625 16.075 30.6 16.75C30.575 17.375 30.05 17.85 29.425 17.825ZM16.1 13.3C15.55 13.3 15.125 12.875 15.125 12.325C15.125 11.775 15.575 11.35 16.125 11.35C16.675 11.35 17.1 11.775 17.1 12.325C17.075 12.875 16.65 13.3 16.1 13.3ZM26.825 19.2C26.825 18.65 27.25 18.225 27.8 18.2C28.35 18.2 28.775 18.625 28.775 19.175C28.775 19.725 28.3 20.225 27.8 20.2C27.275 20.2 26.85 19.75 26.825 19.2ZM14.95 4.99999C14.95 5.54999 14.525 5.97499 13.975 5.97499C13.425 5.97499 13 5.52499 13 4.97499C13 4.42499 13.45 3.99999 14.025 3.99999C14.55 4.02499 14.95 4.44999 14.95 4.99999ZM14.85 18.6C14.85 19.15 14.425 19.575 13.9 19.575C13.325 19.575 12.9 19.15 12.9 18.6C12.9 18.05 13.325 17.625 13.875 17.625C14.425 17.6 14.85 18.025 14.85 18.6ZM11.35 22.825C10.8 22.825 10.35 22.4 10.35 21.85C10.35 21.3 10.8 20.85 11.35 20.85C11.875 20.85 12.325 21.3 12.325 21.825C12.325 22.4 11.9 22.825 11.35 22.825ZM25.5 17.95C25.5 18.525 25.075 18.925 24.525 18.925C24 18.925 23.55 18.45 23.55 17.925C23.55 17.375 24 16.95 24.55 16.95C25.075 16.95 25.5 17.4 25.5 17.95ZM20.425 16.4C21 16.4 21.4 16.8 21.4 17.375C21.4 17.925 20.975 18.375 20.425 18.35C19.875 18.35 19.425 17.9 19.425 17.375C19.425 16.825 19.85 16.4 20.425 16.4ZM9.575 24.075C9.575 24.625 9.125 25.05 8.6 25.05C8.05 25.05 7.625 24.625 7.625 24.075C7.625 23.525 8.075 23.075 8.6 23.075C9.125 23.1 9.575 23.55 9.575 24.075ZM14.55 9.44999C14 9.44999 13.575 9.02499 13.575 8.47499C13.575 7.94999 14.025 7.49999 14.575 7.47499C15.1 7.44999 15.55 7.92499 15.55 8.47499C15.525 9.02499 15.1 9.44999 14.55 9.44999ZM23.525 19.7C23.525 20.175 23.15 20.575 22.675 20.575C22.2 20.575 21.85 20.2 21.85 19.725C21.85 19.25 22.225 18.875 22.675 18.875C23.15 18.875 23.525 19.25 23.525 19.7ZM14.1 16.125C14.1 16.6 13.725 16.975 13.25 16.975C12.825 16.975 12.4 16.55 12.4 16.125C12.4 15.675 12.8 15.25 13.275 15.275C13.725 15.275 14.1 15.65 14.1 16.125ZM8 20.775C8.475 20.775 8.85 21.15 8.825 21.625C8.825 22.075 8.425 22.475 7.975 22.475C7.5 22.45 7.125 22.05 7.125 21.6C7.125 21.1 7.5 20.75 8 20.775ZM18.55 13.85C18.075 13.85 17.7 13.5 17.7 13.025C17.7 12.55 18.05 12.175 18.55 12.175C19.025 12.175 19.4 12.55 19.4 13C19.4 13.475 19.025 13.85 18.55 13.85ZM17 8.32499C17.475 8.32499 17.825 8.69999 17.825 9.17499C17.825 9.64999 17.45 10.025 16.975 10.025C16.5 10.025 16.125 9.64999 16.125 9.14999C16.15 8.69999 16.525 8.32499 17 8.32499ZM11.55 19.375C11.55 19.85 11.175 20.225 10.725 20.25C10.275 20.25 9.875 19.825 9.875 19.375C9.875 18.9 10.25 18.55 10.725 18.55C11.2 18.55 11.55 18.9 11.55 19.375ZM18.6 18.325C19.075 18.325 19.425 18.7 19.425 19.175C19.425 19.65 19.05 20 18.575 20C18.075 20 17.725 19.625 17.725 19.15C17.75 18.675 18.125 18.3 18.6 18.325ZM26.825 20.95C26.825 21.45 26.475 21.825 25.975 21.8C25.5 21.8 25.15 21.425 25.125 20.95C25.125 20.5 25.5 20.1 25.95 20.1C26.425 20.125 26.825 20.5 26.825 20.95ZM16.45 4.84999C16.925 4.84999 17.275 5.19999 17.275 5.67499C17.275 6.14999 16.9 6.52499 16.45 6.52499C15.975 6.52499 15.6 6.14999 15.6 5.67499C15.6 5.19999 15.975 4.84999 16.45 4.84999ZM19.05 6.74999C19.05 7.14999 18.725 7.47499 18.3 7.44999C17.9 7.44999 17.6 7.12499 17.6 6.72499C17.6 6.32499 17.925 5.99999 18.325 5.99999C18.75 6.02499 19.075 6.34999 19.05 6.74999ZM7.225 19.4C7.225 19 7.55 18.7 7.95 18.7C8.35 18.7 8.7 19.05 8.675 19.45C8.65 19.85 8.325 20.175 7.95 20.175C7.525 20.15 7.2 19.825 7.225 19.4ZM24.85 22.075C24.85 22.5 24.525 22.825 24.125 22.825C23.725 22.825 23.375 22.5 23.375 22.1C23.375 21.7 23.7 21.375 24.125 21.375C24.525 21.375 24.825 21.675 24.85 22.075ZM11.4 17.225C11.4 17.625 11.075 17.95 10.675 17.95C10.275 17.95 9.95 17.6 9.95 17.2C9.95 16.8 10.3 16.5 10.675 16.5C11.075 16.5 11.4 16.8 11.4 17.225ZM18.875 10.95C18.45 10.95 18.15 10.625 18.15 10.225C18.15 9.82499 18.475 9.52499 18.875 9.52499C19.3 9.52499 19.6 9.82499 19.6 10.25C19.625 10.65 19.325 10.95 18.875 10.95ZM20.825 20.125C21.225 20.125 21.525 20.425 21.525 20.85C21.525 21.275 21.2 21.6 20.775 21.6C20.375 21.6 20.075 21.275 20.075 20.875C20.1 20.425 20.425 20.125 20.825 20.125ZM8.925 17.625C8.925 17.975 8.65 18.25 8.3 18.25C7.975 18.25 7.65 17.95 7.675 17.6C7.675 17.25 7.975 16.975 8.325 16.975C8.675 17 8.95 17.275 8.925 17.625ZM22.975 22.675C22.975 23.025 22.7 23.3 22.35 23.3C22.025 23.3 21.725 23 21.725 22.675C21.725 22.325 22.025 22.05 22.375 22.05C22.725 22.05 22.975 22.325 22.975 22.675ZM19.7 7.37499C20.075 7.37499 20.35 7.62499 20.35 7.99999C20.35 8.34999 20.075 8.62499 19.725 8.62499C19.375 8.62499 19.1 8.37499 19.1 8.02499C19.075 7.62499 19.325 7.37499 19.7 7.37499Z" fill="#3D6CB4"/>
</g>
<defs>
<clipPath id="clip0_72_143">
<rect width="32" height="32" fill="white"/>
</clipPath>
</defs>
</svg>
