<svg width="32" height="35" viewBox="0 0 32 35" fill="none" xmlns="http://www.w3.org/2000/svg">
<path d="M31.027 0.98937C30.5472 0.98937 29.9873 0.98937 29.5075 0.98937C26.2286 1.16122 23.1096 1.93453 20.1506 3.48116C16.5518 5.28557 13.5128 7.86329 11.1136 11.3002C9.43414 13.6202 8.23454 16.1979 7.35483 18.9475C7.27485 19.1193 7.35483 19.2052 7.4348 19.2912C8.15456 20.0645 8.87432 20.8378 9.59409 21.6111C9.67406 21.697 9.75403 21.8689 9.75403 22.0407C9.75403 22.2126 9.67406 22.3844 9.51411 22.4704C9.35417 22.5563 9.11424 22.5563 9.03427 22.3844C8.6344 21.9548 8.31451 21.6111 7.91464 21.1815C7.4348 20.666 7.03493 20.1504 6.55509 19.7208C6.39514 19.5489 6.31517 19.2912 6.39514 19.0334C7.4348 15.6824 8.9543 12.5891 11.1136 9.83954C13.2729 7.00405 15.912 4.77002 18.871 3.13747C21.5901 1.59084 24.5491 0.645674 27.5881 0.216054C28.8677 0.0442064 30.1473 -0.0417175 31.4269 0.0442064C31.8267 0.0442064 31.9067 0.216054 31.9867 0.645674C32.1466 6.23073 30.8671 11.3862 28.068 16.1979C25.2689 20.9237 21.4302 24.4466 16.6318 26.6806C15.912 27.0243 15.1123 27.2821 14.3125 27.6258C14.0726 27.7117 13.9127 27.7117 13.7527 27.4539C12.953 26.5947 12.0733 25.6495 11.2735 24.7903C11.1136 24.6185 11.0336 24.3607 11.1936 24.1029C11.3535 23.8451 11.6734 23.8451 11.9133 24.1029C12.6331 24.8762 13.3528 25.6495 14.0726 26.4229C14.2326 26.5947 14.3125 26.5947 14.4725 26.5088C17.9913 25.2199 21.1103 23.1577 23.7494 20.4082C26.8684 17.1431 28.9477 13.2765 30.1473 8.89437C30.7871 6.4885 31.107 3.99671 31.107 1.41899C31.107 1.24714 31.027 1.16122 31.027 0.98937Z" fill="#3D6CB4"/>
<path d="M26.6284 11.0425C26.6284 13.9639 24.4691 16.2839 21.75 16.2839C19.0309 16.2839 16.8716 13.9639 16.8716 11.0425C16.8716 8.20702 19.0309 5.80115 21.6701 5.80115C24.4691 5.80115 26.6284 8.12109 26.6284 11.0425ZM25.6687 11.1284C25.6687 8.72256 23.9093 6.83223 21.6701 6.83223C19.4308 6.83223 17.6714 8.72256 17.6714 11.1284C17.6714 13.5343 19.4308 15.4246 21.6701 15.4246C23.9093 15.3387 25.6687 13.4484 25.6687 11.1284Z" fill="#3D6CB4"/>
<path d="M14.3925 33.039C14.9523 32.6953 15.5121 32.2657 15.992 31.8361C17.5915 30.2894 18.4712 28.3991 18.871 26.1651C18.951 25.8214 19.111 25.6495 19.3509 25.6495C19.6708 25.6495 19.8307 25.9073 19.8307 26.251C19.7507 26.6806 19.6708 27.1962 19.5108 27.6258C18.6311 30.5472 17.0316 32.6953 14.5525 34.156C13.9927 34.4997 13.7527 34.3279 13.6728 33.7264C13.3529 31.922 13.033 30.0317 12.7131 28.2273C12.7131 28.0554 12.7131 27.8836 12.7131 27.7976C12.793 27.6258 12.953 27.5399 13.1929 27.5399C13.3529 27.5399 13.5128 27.7117 13.5928 27.8836C13.6728 28.3991 13.7527 28.9146 13.9127 29.5161C13.9926 30.719 14.2326 31.8361 14.3925 33.039Z" fill="#3D6CB4"/>
<path d="M1.19686 18.8615C1.67671 18.9474 2.15655 19.0334 2.55641 19.1193C3.67604 19.377 4.79567 19.5489 5.83533 19.8067C5.9153 19.8067 5.9153 19.8067 5.99528 19.8067C6.2352 19.8926 6.39515 20.1504 6.31517 20.4081C6.2352 20.6659 6.07525 20.8378 5.75536 20.7518C5.11557 20.58 4.39581 20.4941 3.75602 20.3222C2.71636 20.0644 1.67671 19.8926 0.557076 19.6348C0.477102 19.6348 0.477102 19.6348 0.397128 19.6348C-0.00273945 19.5489 -0.082713 19.2911 0.0772341 18.8615C0.557076 17.9163 1.11689 16.9712 1.83665 16.1979C3.35615 14.4794 5.19554 13.5342 7.27485 13.0187C7.35483 13.0187 7.4348 13.0187 7.4348 12.9328C7.67472 12.8468 7.91464 13.0187 7.99462 13.2764C8.07459 13.5342 7.91464 13.792 7.59475 13.8779C7.11491 14.0498 6.55509 14.1357 6.07525 14.3075C3.99594 15.0808 2.39647 16.4556 1.19686 18.4319C1.27684 18.6897 1.27684 18.7756 1.19686 18.8615Z" fill="#3D6CB4"/>
<path d="M6.875 26.5088C6.95497 26.4229 7.03495 26.251 7.11492 26.1651C8.63442 24.5326 10.0739 22.9859 11.5934 21.3534C12.1533 20.7519 12.6331 20.2364 13.1929 19.6349C13.4328 19.3771 13.6728 19.3771 13.9127 19.549C14.0726 19.7208 14.0726 20.0645 13.8327 20.3223C12.0733 22.2126 10.3139 24.1889 8.47447 26.0792C8.23455 26.337 7.99463 26.6807 7.67474 26.9384C7.51479 27.1103 7.35484 27.1103 7.19489 27.0243C6.95497 26.9384 6.875 26.7666 6.875 26.5088Z" fill="#3D6CB4"/>
<path d="M4.79566 28.7427C4.95561 28.8286 5.11556 28.9145 5.19553 29.0864C5.2755 29.2582 5.19553 29.4301 5.11556 29.6019C5.03558 29.6878 4.87564 29.8597 4.79566 30.0315C3.83598 31.0626 2.8763 32.1796 1.83664 33.2107C1.67669 33.2966 1.59672 33.3826 1.43677 33.3826C1.27683 33.3826 1.11688 33.2966 1.03691 33.1248C0.956932 32.867 0.956932 32.6952 1.11688 32.5233C1.75667 31.8359 2.39646 31.1485 3.03624 30.4612C3.51609 29.9456 3.91595 29.516 4.3958 29.0004C4.55574 28.9145 4.63572 28.8286 4.79566 28.7427Z" fill="#3D6CB4"/>
<path d="M4.07593 25.22C4.4758 25.22 4.71572 25.6496 4.55577 25.9074C4.4758 25.9933 4.4758 26.0792 4.39583 26.1651C3.35617 27.2821 2.31651 28.3992 1.27686 29.5162L1.19688 29.6021C0.956962 29.7739 0.717041 29.8599 0.557094 29.6021C0.397147 29.4302 0.397147 29.0865 0.557094 28.9147C1.35683 28.0555 2.15657 27.1962 2.9563 26.337C3.2762 25.9933 3.51612 25.7355 3.83601 25.4777C3.91598 25.3059 4.07593 25.22 4.07593 25.22Z" fill="#3D6CB4"/>
<path d="M8.55446 30.0318C8.55446 30.1177 8.47449 30.2036 8.39451 30.3755C7.27488 31.5784 6.23523 32.6954 5.1156 33.8984C4.87568 34.1561 4.63576 34.1561 4.39584 33.8984C4.23589 33.7265 4.23589 33.3828 4.47581 33.211C5.59544 32.008 6.6351 30.891 7.75473 29.6881C7.91467 29.5163 8.07462 29.4303 8.31454 29.5163C8.47449 29.6022 8.55446 29.6881 8.55446 30.0318Z" fill="#3D6CB4"/>
</svg>
