<svg width="406" height="346" viewBox="0 0 406 346" fill="none" xmlns="http://www.w3.org/2000/svg">
<path d="M57.9538 168.315C56.8223 160.601 55.0474 153.413 52.5761 146.588C48.533 135.431 42.8857 128.616 35.7808 126.319C35.617 126.266 35.4514 126.215 35.2859 126.167C33.0689 125.52 31.1831 125.51 29.6795 126.14C26.5955 127.434 25.4009 131.456 26.0255 134.6C26.7338 138.157 29.2204 141.232 31.5602 143.768C34.4445 146.896 37.6377 149.858 40.7199 152.721C44.6811 156.399 48.7788 160.2 52.3253 164.436C53.182 165.46 53.9858 166.501 54.7419 167.552C60.5207 181.61 66.7671 201.296 66.0349 219.442C65.8779 223.316 65.4222 226.502 64.8863 229.026C63.6678 221.775 59.1878 210.419 44.7954 197.407C40.6363 191.278 36.1426 185.836 31.2223 180.956C22.7948 172.604 14.7735 168.86 7.36994 169.824C7.19928 169.846 7.02861 169.87 6.85794 169.899C4.57613 170.262 2.86775 171.061 1.7789 172.275C-0.453419 174.763 0.186579 178.912 2.09634 181.484C4.25869 184.397 7.82221 186.111 11.0222 187.402C14.968 188.995 19.1203 190.306 23.1327 191.575C28.2868 193.203 33.6168 194.886 38.6344 197.197C40.196 197.916 41.6893 198.697 43.1161 199.527C43.1178 199.528 43.1178 199.528 43.1195 199.53C42.3225 199.481 41.3923 199.463 40.3086 199.501C35.8423 198.585 31.4954 198.071 27.1929 197.962C19.0862 197.757 13.3433 199.655 10.1126 203.604C10.0375 203.696 9.96408 203.786 9.8924 203.88C8.92813 205.13 8.45368 206.328 8.47928 207.442C8.5356 209.726 10.7969 211.489 12.9542 211.873C15.3947 212.308 17.97 211.49 20.1665 210.632C22.875 209.575 25.5545 208.28 28.1452 207.031C31.4715 205.425 34.9104 203.764 38.4893 202.561C38.8323 202.447 39.1737 202.338 39.515 202.233C44.1025 201.962 45.8399 202.699 45.9253 202.737C46.1454 202.85 46.3843 202.889 46.6147 202.875C55.0064 211.352 58.9454 218.776 60.7818 224.053C63.4664 231.772 62.3502 236.662 62.3366 236.725C62.3314 236.749 62.3314 236.773 62.3263 236.797C62.3178 236.845 62.311 236.891 62.3058 236.937C62.3024 236.979 62.3007 237.022 62.3024 237.065C62.3024 237.109 62.3058 237.152 62.311 237.194C62.3161 237.239 62.3229 237.282 62.3332 237.324C62.3417 237.365 62.3519 237.406 62.3656 237.447C62.3792 237.488 62.3929 237.527 62.4099 237.568C62.427 237.609 62.4458 237.647 62.4663 237.686C62.4867 237.724 62.5072 237.758 62.5311 237.792C62.555 237.828 62.5823 237.863 62.6096 237.898C62.6369 237.932 62.6677 237.962 62.6984 237.993C62.7274 238.022 62.7581 238.051 62.7922 238.079C62.8298 238.109 62.869 238.137 62.9083 238.164C62.9288 238.178 62.9458 238.193 62.9663 238.207C62.9783 238.213 62.9919 238.215 63.0039 238.222C63.0824 238.265 63.166 238.3 63.2565 238.328C63.2752 238.333 63.2923 238.343 63.3094 238.346C63.3128 238.346 63.3145 238.348 63.3179 238.35C63.4152 238.374 63.5107 238.382 63.6063 238.386C63.6183 238.386 63.6302 238.391 63.6422 238.391C63.6422 238.391 63.6422 238.391 63.6439 238.391C63.6456 238.391 63.6439 238.391 63.6456 238.391C63.7497 238.391 63.8504 238.374 63.9494 238.352C63.9715 238.346 63.9937 238.341 64.0142 238.335C64.1115 238.307 64.2054 238.27 64.2941 238.222C64.3061 238.215 64.3163 238.207 64.3282 238.2C64.4084 238.152 64.4818 238.096 64.5501 238.032C64.5655 238.019 64.5825 238.005 64.5962 237.99C64.6696 237.916 64.7344 237.833 64.789 237.742C64.7942 237.735 64.7993 237.73 64.8044 237.724C64.9426 237.488 68.1802 231.81 68.711 219.827C69.5046 201.897 63.6575 182.573 57.9538 168.315Z" fill="#3D6CB4"/>
<path d="M35.0538 137.363C36.625 137.363 37.8988 136.089 37.8988 134.518C37.8988 132.947 36.625 131.673 35.0538 131.673C33.4825 131.673 32.2087 132.947 32.2087 134.518C32.2087 136.089 33.4825 137.363 35.0538 137.363Z" fill="white"/>
<path d="M11.5752 182.269C13.1464 182.269 14.4202 180.995 14.4202 179.424C14.4202 177.853 13.1464 176.579 11.5752 176.579C10.0039 176.579 8.73016 177.853 8.73016 179.424C8.73016 180.995 10.0039 182.269 11.5752 182.269Z" fill="white"/>
<path d="M15.4715 208.231C16.7807 208.231 17.8421 207.169 17.8421 205.86C17.8421 204.551 16.7807 203.49 15.4715 203.49C14.1623 203.49 13.101 204.551 13.101 205.86C13.101 207.169 14.1623 208.231 15.4715 208.231Z" fill="white"/>
<path d="M264.752 288.732C264.725 288.732 264.699 288.732 264.674 288.731C263.931 288.707 263.349 288.087 263.373 287.345C263.397 286.603 264.012 286.015 264.759 286.044C264.769 286.044 264.78 286.044 264.79 286.044C266.488 286.044 277.902 282.114 290.979 274.383C302.108 267.804 316.565 257.21 322.229 244.11C327.218 232.573 324.289 221.162 313.525 210.185C311.239 215.697 308.733 220.836 306.049 225.47C295.597 243.507 283.751 251.8 271.794 249.45C261.445 247.417 255.057 241.142 253.807 231.783C252.079 218.829 260.764 203.715 273.581 197.373C280.949 193.727 295.532 190.171 312.513 205.49C318.642 189.608 322.972 170.95 324.629 152.506C326.032 136.897 325.341 122.966 322.743 111.71C321.571 112.97 320.352 114.111 319.086 115.137C312.903 120.143 305.936 122.044 298.381 120.788C285.995 118.73 277.781 111.145 276.407 100.502C275.163 90.8615 279.872 81.3502 287.603 77.8857C291.469 76.1534 295.855 76.0596 300.29 77.6195C305.229 79.3552 310.191 83.0689 315.038 88.6565C318.823 93.0221 321.823 98.8999 323.981 106.005C326.196 102.912 328.329 99.0945 330.293 94.396C335.555 81.8128 338.084 65.5789 337.06 50.9733C335.99 35.7293 331.21 23.9653 323.943 18.6968C323.342 18.2616 323.209 17.4202 323.644 16.8195C324.079 16.2187 324.919 16.0839 325.522 16.5208C333.55 22.3422 338.6 34.5108 339.742 50.7856C340.795 65.7906 338.19 82.4801 332.773 95.432C330.517 100.83 327.875 105.44 324.878 109.22C327.925 121.116 328.807 136.018 327.303 152.747C325.59 171.819 321.047 191.133 314.618 207.476C314.736 207.592 314.853 207.708 314.971 207.826C326.964 219.8 330.235 232.368 324.696 245.177C318.743 258.941 303.818 269.913 292.346 276.695C280 283.996 267.666 288.732 264.752 288.732ZM286.874 196.926C281.829 196.926 277.685 198.342 274.774 199.781C263.122 205.546 254.912 219.742 256.473 231.426C257.559 239.555 263.184 245.018 272.315 246.812C286.581 249.611 298.118 233.798 303.726 224.121C306.514 219.309 309.105 213.941 311.455 208.164C302.176 199.522 293.703 196.926 286.874 196.926ZM294.136 79.176C292.259 79.176 290.441 79.56 288.704 80.3399C282.136 83.2839 277.996 91.8053 279.075 100.161C280.824 113.714 293.469 117.248 298.823 118.139C304.395 119.066 313.572 118.527 321.96 108.607C319.885 101.062 316.879 94.8841 313.007 90.4195C306.593 83.0211 300.07 79.176 294.136 79.176Z" fill="#3D6CB4"/>
<path d="M31.3862 248.668C31.3862 248.663 31.3862 248.656 31.3862 248.651V248.583H31.3879C31.3998 244.716 33.8984 240.854 38.9023 237.901L239.944 120.085C250.005 114.147 266.389 114.151 276.515 120.09L363.853 171.343C368.949 174.333 371.491 178.26 371.479 182.18H371.48L371.441 191.456C371.429 195.327 368.926 199.19 363.928 202.141L162.887 319.958C152.81 325.902 136.442 325.892 126.316 319.951L38.9774 268.696C33.8813 265.706 31.3332 261.781 31.3452 257.859L31.3862 248.668Z" fill="#3D6CB4"/>
<path d="M128.1 307.813L38.6821 255.34C33.2054 252.126 33.2071 244.095 38.6855 240.883L241.463 121.981C251.635 116.016 264.164 116.018 274.334 121.984L288.178 130.106C288.454 130.268 288.681 130.502 288.839 130.784L295.36 142.55C295.587 142.959 295.918 143.299 296.317 143.533L323.54 159.512C323.827 159.681 324.144 159.787 324.474 159.826L341.783 161.883C342.225 161.936 342.651 162.079 343.037 162.304L365.558 175.519C370.332 178.32 370.33 185.32 365.557 188.119L161.42 307.818C151.111 313.865 138.408 313.861 128.1 307.813Z" fill="white"/>
<path d="M304.455 140.263L322.653 150.94C323.655 151.528 323.764 152.418 322.895 152.926C322.026 153.435 320.511 153.372 319.507 152.783L301.309 142.106C300.307 141.517 300.198 140.628 301.067 140.119C301.937 139.611 303.453 139.674 304.455 140.263Z" fill="white"/>
<path d="M328.875 217.45C329.049 216.93 329.312 216.421 329.635 215.972C330.002 215.464 330.445 215.032 330.92 214.754L347.628 204.956C348.254 204.59 348.821 204.556 349.231 204.793L350.884 205.759C350.475 205.52 349.91 205.555 349.284 205.922L332.575 215.72C332.101 215.998 331.655 216.428 331.29 216.938C330.968 217.387 330.705 217.896 330.531 218.416C330.384 218.853 330.302 219.298 330.302 219.72V220.456C330.302 221.195 330.561 221.717 330.978 221.961L329.324 220.997C328.906 220.754 328.648 220.232 328.648 219.493V218.757C328.647 218.334 328.728 217.889 328.875 217.45Z" fill="white"/>
<path d="M332.574 215.718L349.282 205.92C350.545 205.184 351.555 205.785 351.553 207.271V208.007C351.553 209.478 350.543 211.272 349.28 212.007L332.572 221.805C331.323 222.532 330.3 221.925 330.3 220.454V219.718C330.3 218.232 331.326 216.446 332.574 215.718Z" fill="#3D6CB4"/>
<path d="M302.326 233.095C302.5 232.575 302.763 232.066 303.086 231.617C303.451 231.109 303.896 230.677 304.371 230.399L321.079 220.601C321.706 220.235 322.27 220.2 322.68 220.438L324.334 221.404C323.924 221.166 323.359 221.2 322.733 221.567L306.025 231.365C305.55 231.643 305.105 232.073 304.74 232.583C304.417 233.032 304.154 233.541 303.98 234.061C303.833 234.498 303.751 234.943 303.751 235.365V236.101C303.751 236.84 304.011 237.362 304.427 237.606L302.774 236.642C302.355 236.399 302.098 235.877 302.098 235.138V234.402C302.099 233.977 302.181 233.532 302.326 233.095Z" fill="white"/>
<path d="M306.026 231.363L322.735 221.565C323.998 220.829 325.008 221.43 325.006 222.916V223.652C325.006 225.123 323.996 226.917 322.733 227.652L306.025 237.45C304.775 238.177 303.753 237.57 303.753 236.099V235.363C303.753 233.877 304.777 232.091 306.026 231.363Z" fill="#3D6CB4"/>
<path d="M326.085 154.803C327.309 154.081 329.298 154.081 330.529 154.803C331.76 155.527 331.765 156.696 330.543 157.418C329.319 158.14 327.331 158.142 326.098 157.418C324.868 156.698 324.861 155.525 326.085 154.803Z" fill="white"/>
<path d="M92.9729 270.929C93.1111 270.674 93.5702 270.502 94.1727 270.483C96.0568 270.423 98.4752 271.731 99.4667 273.337C99.7893 273.861 99.9037 274.349 99.7637 274.608C99.6255 274.864 99.1664 275.035 98.5656 275.054C96.7139 275.117 94.2461 273.779 93.2698 272.198C92.9473 271.676 92.8329 271.19 92.9729 270.929Z" fill="white"/>
<path d="M90.9829 273.61C92.4319 275.96 95.6746 277.743 98.4462 277.743C98.5145 277.743 98.5844 277.742 98.6527 277.74C100.255 277.689 101.525 277.011 102.133 275.881C102.744 274.746 102.605 273.304 101.755 271.925C100.818 270.406 99.122 269.125 97.2942 268.408C96.2275 267.99 95.1165 267.764 94.0874 267.797C92.4831 267.848 91.2133 268.526 90.6058 269.657C89.9965 270.792 90.133 272.232 90.9829 273.61ZM93.2699 272.2C92.9473 271.676 92.833 271.19 92.9729 270.93C93.1112 270.676 93.5703 270.504 94.1727 270.485C96.0569 270.425 98.4752 271.732 99.4668 273.338C99.7893 273.862 99.9037 274.35 99.7637 274.61C99.6255 274.866 99.1664 275.036 98.5657 275.055C96.7139 275.118 94.2461 273.78 93.2699 272.2Z" fill="#3D6CB4"/>
<path d="M81.33 125.099C81.2993 125.099 81.2703 125.099 81.2413 125.097C78.9646 125.027 76.7459 122.321 74.2593 116.578C69.9141 106.537 68.5727 94.6094 70.4825 82.9921C71.3341 77.8158 72.8035 72.8921 74.7679 68.4923C70.5814 56.6993 64.0074 42.4452 53.9329 29.5257C46.4867 19.9786 40.0952 15.9935 34.9326 17.6831C21.5711 22.0539 17.429 63.4286 16.9614 79.002C16.9392 79.7444 16.306 80.3127 15.5773 80.3042C14.8349 80.282 14.2529 79.6624 14.2751 78.92C14.2785 78.7767 14.7342 64.4202 17.2959 49.5637C20.8048 29.2134 26.4573 17.6268 34.0963 15.1283C40.4485 13.0495 47.8367 17.3367 56.0526 27.8719C65.6458 40.1736 72.1226 53.6426 76.4097 65.1472C78.2461 61.739 80.3999 58.7404 82.7978 56.3084C89.3036 49.7087 97.0433 47.7222 104.638 50.6901C106.191 42.365 109.316 34.8027 114.412 30.9747C115.004 30.5292 115.847 30.6487 116.293 31.2426C116.738 31.8365 116.619 32.6779 116.025 33.1234C111.925 36.2022 108.768 42.9811 107.196 51.8011C116.984 56.363 122.655 62.6965 123.244 69.7894C123.749 75.8975 120.331 82.0296 114.32 85.7928C111.772 87.3885 109.229 86.7315 107.346 83.9906C103.882 78.9456 102.419 65.707 104.191 53.4105C104.141 53.39 104.092 53.3695 104.044 53.3491C99.3354 51.3915 92.1588 50.644 84.7126 58.1977C82.0229 60.925 79.6234 64.4936 77.6658 68.6374C79.8742 74.993 81.3932 80.5909 82.3967 84.8439C86.3084 101.412 87.1395 117.393 84.3747 122.846C83.4343 124.695 82.2175 125.099 81.33 125.099ZM76.0854 72.3596C71.3819 84.7739 70.4739 101.067 76.7254 115.513C79.6558 122.285 81.3061 122.413 81.3215 122.413C81.4273 122.409 81.6816 122.206 81.9751 121.628C84.0726 117.491 84.0163 103.409 79.7787 85.46C78.9441 81.9238 77.7477 77.437 76.0854 72.3596ZM106.766 54.571C106.619 55.6616 106.497 56.7778 106.398 57.9161C105.503 68.1715 106.834 78.4968 109.562 82.4682C110.883 84.3933 111.944 84.11 112.895 83.5144C118.051 80.2871 120.99 75.1125 120.568 70.0112C120.075 64.0823 115.207 58.6653 106.766 54.571Z" fill="#3D6CB4"/>
<path d="M149.899 246.289C149.013 244.939 147.05 242.96 144.886 241.451C138.485 236.99 130.992 236.961 125.074 241.084C118.498 245.666 119.722 250.979 125.417 254.949C127.958 256.721 130.508 257.765 132.537 258.385L128.692 263.098C126.946 262.673 123.79 261.371 120.38 259.12L116.271 261.982L112.091 259.069L116.431 256.045C115.648 255.309 114.945 254.553 114.332 253.782L109.417 257.205L105.237 254.292L111.948 249.616C110.226 244.815 111.879 239.778 117.936 235.558C123.416 231.74 130.417 230.202 137.662 231.701L144.774 226.746L148.953 229.66L143.4 233.529C144.443 233.979 145.482 234.496 146.518 235.082L151.626 231.523L155.806 234.437L150.8 237.923C153.776 240.197 155.587 242.243 156.196 243.409L149.899 246.289Z" fill="#3D6CB4"/>
<path d="M336.321 184.097C333.813 195.101 332.5 206.376 332.657 217.805C332.736 223.601 333.307 229.782 336.878 234.349C340.778 239.336 347.562 241.316 353.886 241.06C369.34 240.437 382.408 228.204 388.626 214.042C394.843 199.88 395.527 183.996 395.975 168.535C396.326 156.363 396.596 144.029 399.536 132.147C400.798 127.053 410.084 106.483 402.992 103.102C393.24 98.236 370.419 110.413 358.346 130.617C348.401 147.258 340.61 165.281 336.321 184.097Z" fill="#3D6CB4"/>
<path d="M387.047 120.556C386.361 120.174 385.494 120.423 385.113 121.109C368.721 150.651 360.718 181.673 356.89 202.496C356.87 202.611 356.849 202.722 356.829 202.834C354.433 190.835 351.303 165.262 361.979 143.731C362.309 143.065 362.037 142.26 361.374 141.93C360.708 141.601 359.902 141.872 359.573 142.536C351.768 158.275 351.181 175.912 352.064 187.935C352.871 198.936 354.963 207.188 355.658 209.695C352.688 228.351 352.466 240.896 352.465 241.038C352.453 241.823 353.081 242.47 353.866 242.482C353.873 242.482 353.88 242.482 353.886 242.482C354.661 242.482 355.296 241.859 355.308 241.081C355.311 240.808 355.559 228.685 358.459 210.441C358.482 210.352 358.498 210.26 358.503 210.166C359.576 203.452 361.01 195.921 362.92 187.85C366.536 187.31 377.095 183.94 383.712 163.188C383.937 162.48 383.547 161.726 382.84 161.501C382.133 161.274 381.377 161.666 381.152 162.373C375.631 179.685 367.326 183.906 363.625 184.933C368.385 165.678 375.86 143.645 387.598 122.491C387.98 121.803 387.733 120.938 387.047 120.556Z" fill="white"/>
<path d="M194.212 275.388C181.812 275.224 169.85 278.057 160.526 283.362C151.285 288.62 145.675 295.72 144.647 303.413L144.646 303.417L143.806 313.285C143.707 313.841 143.629 314.399 143.574 314.962C142.748 323.472 148.571 331.408 157.388 337.309C165.778 342.926 177.296 345.8 189.823 345.8C203.602 345.8 213.508 342.144 222.965 336.763C232.903 331.107 237.406 324.73 238.232 316.222C238.287 315.66 238.318 315.101 238.326 314.542L238.468 305.576C238.446 305.49 238.42 305.407 238.395 305.323C238.857 299.785 236.882 294.376 232.667 289.669C224.85 280.942 210.475 275.603 194.212 275.388ZM152.478 293.335C152.64 293.148 152.802 292.962 152.971 292.776C152.802 292.96 152.64 293.148 152.478 293.335ZM153.409 292.308C153.582 292.127 153.756 291.946 153.937 291.767C153.756 291.946 153.582 292.127 153.409 292.308ZM150.073 296.626C150.211 296.399 150.348 296.17 150.494 295.945C150.348 296.17 150.211 296.397 150.073 296.626ZM150.814 295.481C150.955 295.274 151.097 295.068 151.247 294.865C151.097 295.069 150.957 295.276 150.814 295.481ZM151.612 294.392C151.764 294.197 151.914 294.001 152.073 293.808C151.914 294.001 151.764 294.196 151.612 294.392ZM154.408 291.31C154.592 291.134 154.778 290.96 154.968 290.787C154.776 290.96 154.59 291.134 154.408 291.31ZM155.469 290.34C155.664 290.17 155.864 290.001 156.063 289.833C155.864 290.001 155.666 290.17 155.469 290.34ZM232.856 294.617C232.875 294.648 232.896 294.677 232.914 294.708C232.897 294.679 232.877 294.648 232.856 294.617ZM233.524 295.757C233.532 295.773 233.539 295.788 233.548 295.803C233.539 295.788 233.532 295.773 233.524 295.757ZM184.314 278.769C184.672 278.725 185.032 278.685 185.394 278.648C185.032 278.687 184.672 278.726 184.314 278.769ZM178.682 279.696C179.016 279.626 179.352 279.559 179.692 279.494C179.352 279.559 179.016 279.626 178.682 279.696ZM180.53 279.339C180.873 279.278 181.216 279.22 181.561 279.163C181.216 279.221 180.871 279.278 180.53 279.339ZM182.407 279.03C182.757 278.977 183.109 278.929 183.46 278.882C183.109 278.929 182.757 278.977 182.407 279.03ZM194.175 278.233C193.502 278.225 192.832 278.226 192.164 278.235C192.832 278.225 193.502 278.225 194.175 278.233ZM191.494 278.252C191.052 278.262 190.61 278.272 190.171 278.289C190.61 278.272 191.052 278.262 191.494 278.252ZM189.381 278.332C188.985 278.353 188.589 278.373 188.196 278.399C188.589 278.371 188.985 278.353 189.381 278.332ZM187.364 278.463C186.99 278.493 186.614 278.523 186.242 278.559C186.614 278.523 186.99 278.494 187.364 278.463ZM177.854 279.871C177.521 279.945 177.192 280.02 176.864 280.098C177.192 280.022 177.523 279.945 177.854 279.871ZM176.052 280.295C175.724 280.377 175.4 280.462 175.077 280.547C175.4 280.462 175.724 280.377 176.052 280.295ZM174.287 280.761C173.963 280.851 173.642 280.947 173.321 281.042C173.64 280.947 173.961 280.851 174.287 280.761ZM172.558 281.271C172.234 281.372 171.915 281.477 171.594 281.583C171.915 281.477 172.234 281.372 172.558 281.271ZM170.87 281.822C170.541 281.935 170.218 282.054 169.894 282.172C170.217 282.053 170.541 281.935 170.87 281.822ZM169.223 282.414C168.874 282.546 168.53 282.684 168.186 282.822C168.529 282.684 168.872 282.546 169.223 282.414ZM167.619 283.046C167.146 283.24 166.679 283.442 166.218 283.648C166.679 283.444 167.145 283.242 167.619 283.046ZM166.059 283.717C165.549 283.945 165.049 284.181 164.556 284.423C165.049 284.183 165.551 283.945 166.059 283.717ZM156.594 289.4C156.801 289.234 157.012 289.07 157.226 288.907C157.014 289.07 156.802 289.234 156.594 289.4ZM157.782 288.488C158.002 288.326 158.226 288.168 158.451 288.009C158.226 288.169 158 288.328 157.782 288.488ZM159.026 287.61C159.26 287.451 159.499 287.296 159.738 287.142C159.499 287.297 159.26 287.453 159.026 287.61ZM160.327 286.763C160.576 286.608 160.832 286.454 161.088 286.302C160.833 286.454 160.577 286.606 160.327 286.763ZM161.685 285.949C161.956 285.792 162.235 285.64 162.513 285.488C162.235 285.64 161.956 285.792 161.685 285.949ZM163.095 285.167C163.407 285.002 163.726 284.841 164.044 284.683C163.724 284.843 163.405 285.003 163.095 285.167ZM149.817 297.046C149.643 297.348 149.482 297.653 149.325 297.96C149.482 297.655 149.643 297.348 149.817 297.046ZM234.104 296.933C234.084 296.889 234.065 296.846 234.044 296.802C234.065 296.844 234.084 296.889 234.104 296.933ZM234.539 297.976C234.538 297.971 234.536 297.967 234.534 297.962C234.536 297.966 234.538 297.971 234.539 297.976ZM232.278 293.747C232.215 293.656 232.15 293.566 232.083 293.475C232.15 293.566 232.215 293.656 232.278 293.747ZM231.551 292.767C231.479 292.677 231.411 292.586 231.338 292.496C231.409 292.586 231.479 292.677 231.551 292.767Z" fill="#3D6CB4"/>
<path d="M230.551 291.567C223.255 283.421 209.656 278.436 194.175 278.233C171.975 277.941 152.58 287.657 148.23 300.537C147.806 301.792 147.525 303.075 147.399 304.384C146.931 309.2 148.66 313.95 152.397 318.123C159.693 326.269 173.292 331.254 188.773 331.457C213.134 331.778 234.118 320.053 235.55 305.306C236.015 300.491 234.287 295.74 230.551 291.567Z" fill="white"/>
<path d="M219.224 295.131C214.146 289.461 204.27 285.852 193.45 285.708C177.714 285.502 163.974 292.339 160.912 301.401C160.617 302.277 160.42 303.173 160.332 304.084C160.007 307.42 161.212 310.718 163.813 313.622C168.891 319.292 178.767 322.902 189.587 323.045C206.843 323.272 221.7 315.032 222.703 304.668C223.028 301.334 221.825 298.035 219.224 295.131Z" fill="white"/>
<path d="M193.487 282.865C184.53 282.747 175.883 284.795 169.141 288.632C162.202 292.581 158.069 297.971 157.502 303.811C157.099 307.96 158.55 312.01 161.695 315.522C167.372 321.859 177.786 325.736 189.551 325.89C198.508 326.008 207.156 323.96 213.897 320.123C219.51 316.928 223.289 312.791 224.827 308.235C225.19 307.159 225.429 306.06 225.537 304.944C225.939 300.795 224.489 296.745 221.343 293.233C215.665 286.896 205.251 283.02 193.487 282.865ZM189.587 323.047C178.767 322.903 168.891 319.294 163.813 313.624C161.212 310.719 160.009 307.422 160.332 304.086C160.42 303.173 160.617 302.278 160.912 301.403C163.972 292.34 177.712 285.502 193.45 285.71C204.27 285.852 214.146 289.463 219.224 295.132C221.825 298.035 223.028 301.334 222.705 304.671C221.7 315.034 206.843 323.274 189.587 323.047Z" fill="#3D6CB4"/>
<path d="M191.698 296.515L191.61 296.511C191.07 292.745 188.922 290.922 186.276 290.803C183.588 290.68 181.249 292.248 179.716 294.492C178.738 295.813 178.02 297.274 177.427 299.117L172.905 298.911L172.254 302.384L176.533 302.579C176.427 303.074 176.325 303.592 176.222 304.135C176.072 304.934 175.934 305.744 175.808 306.547L171.512 306.352L170.862 309.822L175.326 310.025C175.149 311.554 175.045 312.882 175.038 313.786L204.224 315.114C204.519 314.196 204.877 312.945 205.255 311.387L209.139 311.564L209.789 308.095L206.012 307.922C206.067 307.646 206.121 307.366 206.174 307.077C206.383 305.963 206.546 304.925 206.673 303.951L210.532 304.127L211.182 300.653L206.97 300.462C207.06 297.595 206.68 295.51 205.908 294.011C204.792 291.891 202.932 290.429 200.244 290.306C196.407 290.128 193.33 292.796 191.698 296.515ZM180.871 306.613C180.9 305.975 180.987 305.043 181.29 303.432C181.921 300.061 183.467 298.21 185.717 298.312C187.92 298.413 188.983 300.578 188.251 304.487L187.794 306.929L180.871 306.613ZM201.602 304.65C201.365 305.92 201.199 306.799 200.974 307.528L192.596 307.147L193.072 304.608C193.767 300.898 195.516 297.971 198.515 298.107C201.647 298.249 202.234 301.28 201.602 304.65Z" fill="#3D6CB4"/>
<path d="M185.674 259.97C173.273 259.806 161.311 262.639 151.988 267.944C142.746 273.202 137.136 280.302 136.109 287.995L136.107 287.999L135.268 297.867C135.169 298.423 135.09 298.981 135.035 299.544C134.209 308.054 140.033 315.99 148.849 321.891C157.239 327.508 168.757 330.382 181.284 330.382C195.064 330.382 204.97 326.726 214.426 321.345C224.364 315.689 228.868 309.312 229.694 300.804C229.749 300.241 229.779 299.683 229.788 299.124L229.93 290.158C229.907 290.072 229.882 289.989 229.856 289.905C230.319 284.367 228.344 278.958 224.129 274.252C216.312 265.524 201.937 260.185 185.674 259.97ZM143.939 277.917C144.101 277.73 144.263 277.544 144.432 277.358C144.263 277.542 144.101 277.73 143.939 277.917ZM144.871 276.892C145.043 276.711 145.217 276.53 145.398 276.351C145.217 276.528 145.043 276.709 144.871 276.892ZM141.534 281.208C141.673 280.981 141.809 280.752 141.956 280.527C141.809 280.752 141.673 280.979 141.534 281.208ZM142.275 280.063C142.417 279.856 142.558 279.65 142.709 279.447C142.558 279.651 142.418 279.858 142.275 280.063ZM143.074 278.974C143.226 278.779 143.376 278.583 143.535 278.39C143.376 278.583 143.226 278.778 143.074 278.974ZM145.869 275.892C146.054 275.716 146.24 275.542 146.429 275.369C146.238 275.542 146.052 275.716 145.869 275.892ZM146.931 274.922C147.125 274.752 147.325 274.583 147.525 274.415C147.325 274.583 147.127 274.752 146.931 274.922ZM224.318 279.199C224.337 279.23 224.357 279.259 224.376 279.29C224.359 279.261 224.338 279.23 224.318 279.199ZM224.985 280.339C224.994 280.355 225.001 280.37 225.009 280.385C225.001 280.37 224.994 280.355 224.985 280.339ZM175.775 263.353C176.134 263.308 176.494 263.269 176.856 263.232C176.494 263.269 176.134 263.308 175.775 263.353ZM170.143 264.278C170.478 264.208 170.814 264.141 171.154 264.076C170.814 264.141 170.478 264.208 170.143 264.278ZM171.992 263.921C172.335 263.86 172.678 263.802 173.022 263.745C172.678 263.803 172.333 263.861 171.992 263.921ZM173.869 263.612C174.219 263.559 174.57 263.511 174.922 263.464C174.57 263.511 174.219 263.559 173.869 263.612ZM185.636 262.815C184.964 262.807 184.293 262.808 183.626 262.817C184.293 262.807 184.964 262.807 185.636 262.815ZM182.955 262.834C182.513 262.844 182.071 262.854 181.633 262.871C182.071 262.854 182.513 262.844 182.955 262.834ZM180.842 262.914C180.446 262.935 180.05 262.955 179.658 262.981C180.05 262.953 180.446 262.935 180.842 262.914ZM178.825 263.046C178.451 263.075 178.076 263.105 177.704 263.141C178.076 263.105 178.451 263.076 178.825 263.046ZM169.316 264.454C168.983 264.527 168.653 264.602 168.326 264.681C168.653 264.604 168.984 264.527 169.316 264.454ZM167.513 264.877C167.186 264.959 166.861 265.044 166.539 265.129C166.861 265.044 167.186 264.959 167.513 264.877ZM165.749 265.343C165.424 265.433 165.103 265.529 164.783 265.624C165.102 265.529 165.423 265.433 165.749 265.343ZM164.02 265.853C163.695 265.954 163.376 266.06 163.055 266.165C163.376 266.06 163.695 265.954 164.02 265.853ZM162.332 266.404C162.002 266.517 161.68 266.636 161.356 266.754C161.678 266.635 162.002 266.517 162.332 266.404ZM160.685 266.996C160.335 267.128 159.992 267.266 159.647 267.404C159.99 267.266 160.333 267.128 160.685 266.996ZM159.081 267.628C158.608 267.822 158.14 268.024 157.679 268.23C158.14 268.026 158.606 267.824 159.081 267.628ZM157.521 268.299C157.01 268.527 156.51 268.763 156.017 269.005C156.51 268.765 157.012 268.527 157.521 268.299ZM148.056 273.982C148.262 273.816 148.474 273.652 148.687 273.489C148.475 273.652 148.264 273.816 148.056 273.982ZM149.243 273.071C149.464 272.908 149.687 272.75 149.912 272.591C149.687 272.751 149.462 272.91 149.243 273.071ZM150.488 272.192C150.721 272.033 150.96 271.878 151.199 271.724C150.96 271.879 150.721 272.035 150.488 272.192ZM151.788 271.345C152.037 271.19 152.293 271.036 152.549 270.884C152.295 271.036 152.039 271.188 151.788 271.345ZM153.147 270.531C153.418 270.374 153.696 270.222 153.974 270.07C153.696 270.222 153.418 270.374 153.147 270.531ZM154.556 269.749C154.869 269.584 155.188 269.423 155.505 269.265C155.186 269.425 154.867 269.585 154.556 269.749ZM141.278 281.628C141.104 281.93 140.944 282.235 140.787 282.543C140.944 282.237 141.104 281.93 141.278 281.628ZM225.566 281.515C225.545 281.471 225.526 281.428 225.506 281.384C225.526 281.426 225.545 281.471 225.566 281.515ZM226.001 282.558C225.999 282.553 225.997 282.549 225.996 282.544C225.997 282.549 225.999 282.553 226.001 282.558ZM223.739 278.329C223.676 278.238 223.611 278.148 223.545 278.057C223.611 278.148 223.676 278.238 223.739 278.329ZM223.012 277.349C222.941 277.259 222.872 277.168 222.799 277.078C222.871 277.168 222.941 277.259 223.012 277.349Z" fill="#3D6CB4"/>
<path d="M222.012 276.149C214.716 268.003 201.118 263.018 185.636 262.815C163.436 262.523 144.041 272.239 139.691 285.12C139.268 286.374 138.986 287.657 138.86 288.966C138.392 293.783 140.121 298.532 143.859 302.705C151.155 310.851 164.754 315.836 180.235 316.039C204.596 316.36 225.579 304.635 227.011 289.888C227.477 285.074 225.748 280.322 222.012 276.149Z" fill="white"/>
<path d="M210.685 279.713C205.608 274.043 195.731 270.434 184.911 270.29C169.176 270.084 155.435 276.921 152.373 285.983C152.078 286.859 151.882 287.755 151.793 288.666C151.469 292.003 152.674 295.3 155.275 298.205C160.352 303.874 170.229 307.484 181.049 307.627C198.305 307.854 213.162 299.614 214.165 289.25C214.489 285.917 213.286 282.618 210.685 279.713Z" fill="white"/>
<path d="M184.949 267.447C175.992 267.329 167.344 269.377 160.603 273.214C153.664 277.163 149.53 282.553 148.964 288.393C148.561 292.542 150.011 296.592 153.157 300.104C158.833 306.441 169.247 310.318 181.013 310.472C189.97 310.59 198.617 308.542 205.359 304.705C210.972 301.51 214.75 297.373 216.288 292.817C216.652 291.741 216.891 290.642 216.998 289.526C217.401 285.377 215.95 281.327 212.805 277.815C207.127 271.478 196.713 267.602 184.949 267.447ZM181.049 307.629C170.229 307.485 160.352 303.876 155.275 298.206C152.674 295.301 151.471 292.004 151.793 288.668C151.882 287.755 152.078 286.86 152.373 285.985C155.434 276.922 169.174 270.084 184.911 270.292C195.731 270.434 205.608 274.045 210.685 279.714C213.286 282.618 214.489 285.916 214.167 289.253C213.162 299.616 198.305 307.856 181.049 307.629Z" fill="#3D6CB4"/>
<path d="M183.16 281.097L183.071 281.093C182.532 277.327 180.383 275.504 177.738 275.385C175.05 275.262 172.71 276.83 171.177 279.074C170.2 280.395 169.481 281.856 168.889 283.699L164.366 283.493L163.716 286.966L167.995 287.161C167.889 287.656 167.786 288.174 167.684 288.717C167.534 289.516 167.396 290.326 167.269 291.129L162.974 290.934L162.323 294.404L166.788 294.607C166.61 296.136 166.506 297.464 166.5 298.368L195.685 299.696C195.98 298.778 196.339 297.527 196.716 295.969L200.6 296.146L201.251 292.677L197.474 292.504C197.528 292.228 197.583 291.948 197.636 291.659C197.844 290.545 198.008 289.507 198.134 288.533L201.993 288.709L202.643 285.235L198.431 285.044C198.522 282.177 198.141 280.092 197.37 278.593C196.254 276.473 194.393 275.011 191.705 274.888C187.869 274.711 184.792 277.378 183.16 281.097ZM172.333 291.195C172.362 290.557 172.449 289.625 172.751 288.014C173.382 284.643 174.929 282.792 177.178 282.894C179.381 282.995 180.445 285.16 179.713 289.069L179.255 291.511L172.333 291.195ZM193.064 289.233C192.827 290.502 192.661 291.383 192.436 292.11L184.058 291.729L184.534 289.19C185.228 285.48 186.978 282.553 189.976 282.689C193.108 282.831 193.695 285.862 193.064 289.233Z" fill="#3D6CB4"/>
<path d="M205.871 241.147C193.47 240.983 181.508 243.816 172.184 249.121C162.943 254.379 157.333 261.479 156.306 269.172L156.304 269.176L155.464 279.044C155.365 279.6 155.287 280.158 155.232 280.721C154.406 289.231 160.229 297.167 169.046 303.068C177.436 308.685 188.954 311.559 201.481 311.559C215.261 311.559 225.166 307.903 234.623 302.522C244.561 296.866 249.065 290.489 249.891 281.981C249.945 281.418 249.976 280.86 249.985 280.301L250.126 271.335C250.104 271.249 250.078 271.166 250.053 271.082C250.515 265.544 248.541 260.135 244.325 255.428C236.51 246.701 222.133 241.362 205.871 241.147ZM164.138 259.094C164.3 258.907 164.462 258.719 164.631 258.535C164.46 258.719 164.298 258.907 164.138 259.094ZM165.068 258.067C165.24 257.886 165.414 257.705 165.595 257.526C165.416 257.705 165.242 257.886 165.068 258.067ZM161.733 262.383C161.871 262.156 162.008 261.927 162.154 261.702C162.006 261.927 161.871 262.156 161.733 262.383ZM162.474 261.24C162.615 261.033 162.757 260.827 162.907 260.624C162.757 260.827 162.615 261.033 162.474 261.24ZM163.272 260.149C163.424 259.955 163.574 259.758 163.733 259.565C163.574 259.76 163.422 259.955 163.272 260.149ZM166.066 257.069C166.25 256.893 166.436 256.719 166.626 256.546C166.436 256.719 166.25 256.893 166.066 257.069ZM167.129 256.099C167.324 255.929 167.524 255.76 167.723 255.592C167.524 255.76 167.324 255.929 167.129 256.099ZM244.516 260.376C244.535 260.407 244.556 260.436 244.574 260.467C244.556 260.436 244.535 260.407 244.516 260.376ZM245.184 261.516C245.192 261.532 245.199 261.547 245.208 261.562C245.199 261.545 245.191 261.53 245.184 261.516ZM195.974 244.528C196.332 244.484 196.692 244.444 197.054 244.407C196.692 244.446 196.332 244.484 195.974 244.528ZM190.34 245.455C190.674 245.385 191.011 245.318 191.35 245.253C191.012 245.318 190.676 245.385 190.34 245.455ZM192.188 245.098C192.531 245.037 192.874 244.979 193.219 244.922C192.874 244.979 192.531 245.037 192.188 245.098ZM194.067 244.789C194.417 244.736 194.769 244.688 195.12 244.641C194.767 244.688 194.416 244.736 194.067 244.789ZM205.833 243.992C205.161 243.984 204.49 243.985 203.823 243.994C204.492 243.984 205.161 243.982 205.833 243.992ZM203.152 244.011C202.71 244.021 202.268 244.031 201.829 244.048C202.27 244.031 202.71 244.021 203.152 244.011ZM201.041 244.089C200.645 244.11 200.249 244.13 199.856 244.156C200.249 244.13 200.645 244.11 201.041 244.089ZM199.024 244.223C198.65 244.252 198.274 244.282 197.902 244.318C198.274 244.282 198.648 244.253 199.024 244.223ZM189.514 245.631C189.181 245.704 188.852 245.779 188.524 245.858C188.852 245.779 189.181 245.704 189.514 245.631ZM187.712 246.054C187.384 246.136 187.06 246.221 186.737 246.306C187.06 246.219 187.384 246.134 187.712 246.054ZM185.945 246.52C185.621 246.61 185.3 246.706 184.979 246.801C185.3 246.706 185.621 246.61 185.945 246.52ZM184.218 247.028C183.894 247.129 183.575 247.235 183.254 247.341C183.573 247.235 183.894 247.131 184.218 247.028ZM182.529 247.581C182.199 247.694 181.877 247.813 181.552 247.931C181.877 247.812 182.201 247.694 182.529 247.581ZM180.882 248.173C180.532 248.305 180.189 248.443 179.844 248.581C180.189 248.443 180.532 248.305 180.882 248.173ZM179.277 248.805C178.805 248.999 178.337 249.201 177.876 249.407C178.339 249.201 178.805 248.999 179.277 248.805ZM177.719 249.476C177.209 249.704 176.709 249.94 176.216 250.182C176.709 249.94 177.209 249.704 177.719 249.476ZM168.254 255.159C168.461 254.993 168.672 254.829 168.885 254.666C168.672 254.829 168.462 254.993 168.254 255.159ZM169.44 254.247C169.66 254.085 169.884 253.927 170.109 253.768C169.884 253.927 169.66 254.087 169.44 254.247ZM170.684 253.369C170.918 253.21 171.157 253.055 171.396 252.901C171.157 253.055 170.918 253.21 170.684 253.369ZM171.987 252.522C172.236 252.367 172.492 252.213 172.748 252.061C172.493 252.213 172.237 252.365 171.987 252.522ZM173.343 251.706C173.615 251.549 173.893 251.397 174.171 251.245C173.895 251.399 173.615 251.551 173.343 251.706ZM174.753 250.926C175.065 250.761 175.384 250.6 175.702 250.442C175.384 250.602 175.065 250.761 174.753 250.926ZM161.475 262.805C161.301 263.107 161.141 263.412 160.984 263.719C161.141 263.412 161.303 263.107 161.475 262.805ZM245.762 262.69C245.742 262.646 245.723 262.603 245.703 262.559C245.723 262.603 245.744 262.648 245.762 262.69ZM246.199 263.733C246.197 263.728 246.196 263.725 246.194 263.719C246.194 263.725 246.197 263.73 246.199 263.733ZM243.938 259.506C243.875 259.415 243.81 259.325 243.743 259.234C243.808 259.325 243.875 259.415 243.938 259.506ZM243.209 258.526C243.137 258.436 243.069 258.345 242.996 258.255C243.069 258.345 243.139 258.436 243.209 258.526Z" fill="#3D6CB4"/>
<path d="M242.209 257.326C234.913 249.181 221.314 244.195 205.833 243.992C183.633 243.7 164.238 253.416 159.888 266.297C159.465 267.551 159.183 268.834 159.057 270.143C158.589 274.96 160.318 279.709 164.056 283.882C171.352 292.028 184.95 297.013 200.431 297.216C224.792 297.537 245.776 285.812 247.208 271.065C247.675 266.249 245.947 261.499 242.209 257.326Z" fill="white"/>
<path d="M230.882 260.89C225.805 255.22 215.928 251.611 205.108 251.467C189.372 251.261 175.632 258.098 172.57 267.16C172.275 268.036 172.079 268.932 171.99 269.843C171.666 273.179 172.871 276.477 175.471 279.381C180.549 285.051 190.425 288.661 201.246 288.804C218.502 289.031 233.358 280.791 234.362 270.427C234.688 267.092 233.485 263.793 230.882 260.89Z" fill="white"/>
<path d="M205.145 248.624C196.189 248.506 187.541 250.554 180.8 254.391C173.86 258.34 169.727 263.73 169.16 269.57C168.757 273.719 170.208 277.769 173.354 281.281C179.03 287.618 189.444 291.495 201.21 291.649C210.166 291.767 218.814 289.719 225.555 285.882C231.169 282.687 234.947 278.55 236.485 273.994C236.848 272.918 237.087 271.819 237.195 270.703C237.598 266.554 236.147 262.504 233.002 258.992C227.325 252.653 216.911 248.778 205.145 248.624ZM201.247 288.806C190.427 288.662 180.551 285.053 175.473 279.383C172.872 276.478 171.669 273.181 171.992 269.845C172.08 268.932 172.277 268.037 172.572 267.162C175.632 258.099 189.372 251.261 205.11 251.469C215.93 251.611 225.806 255.222 230.884 260.891C233.485 263.795 234.688 267.093 234.365 270.43C233.36 280.793 218.502 289.033 201.247 288.806Z" fill="#3D6CB4"/>
<path d="M203.358 262.274L203.27 262.271C202.73 258.504 200.582 256.681 197.936 256.562C195.248 256.439 192.909 258.007 191.376 260.252C190.398 261.573 189.679 263.033 189.087 264.877L184.565 264.67L183.914 268.143L188.193 268.338C188.087 268.833 187.985 269.351 187.882 269.894C187.732 270.693 187.594 271.504 187.468 272.306L183.172 272.111L182.522 275.581L186.986 275.784C186.809 277.313 186.705 278.641 186.698 279.545L215.884 280.873C216.179 279.955 216.537 278.704 216.914 277.146L220.799 277.322L221.449 273.852L217.672 273.68C217.727 273.403 217.781 273.123 217.834 272.835C218.043 271.72 218.206 270.683 218.333 269.708L222.191 269.884L222.842 266.411L218.63 266.22C218.72 263.353 218.34 261.267 217.568 259.769C216.452 257.649 214.592 256.186 211.904 256.063C208.067 255.888 204.988 258.555 203.358 262.274ZM192.531 272.372C192.56 271.734 192.647 270.802 192.949 269.191C193.581 265.82 195.127 263.969 197.377 264.071C199.58 264.172 200.643 266.338 199.911 270.246L199.454 272.688L192.531 272.372ZM213.262 270.408C213.025 271.678 212.859 272.557 212.634 273.285L204.256 272.905L204.732 270.365C205.427 266.655 207.176 263.728 210.175 263.865C213.305 264.008 213.894 267.039 213.262 270.408Z" fill="#3D6CB4"/>
<path d="M273.699 182.803C273.699 182.764 273.702 182.725 273.702 182.685C273.702 182.581 273.695 182.477 273.694 182.373L273.69 182.175H273.687C273.376 174.596 266.155 167.598 253.266 162.424C240.501 157.299 223.557 154.476 205.557 154.476C187.558 154.476 170.614 157.299 157.847 162.424C144.75 167.682 137.503 174.823 137.416 182.545H137.413V182.67C137.413 182.675 137.413 182.682 137.413 182.687C137.413 182.692 137.413 182.697 137.413 182.701L137.353 203.662C137.353 218.457 167.186 230.45 205.528 230.45C243.871 230.45 273.985 219.426 273.985 204.631L273.699 182.803Z" fill="#3D6CB4"/>
<path d="M252.208 165.064C239.77 160.07 223.204 157.321 205.558 157.321C187.913 157.321 171.346 160.07 158.908 165.064C147.055 169.822 140.258 176.246 140.258 182.685C140.258 189.126 147.055 195.548 158.908 200.308C171.346 205.302 187.913 208.051 205.558 208.051C223.204 208.051 239.77 205.302 252.208 200.308C264.061 195.55 270.859 189.126 270.859 182.685C270.859 176.246 264.061 169.822 252.208 165.064Z" fill="white"/>
<path d="M227.783 153.337C227.04 153.337 226.439 152.735 226.439 151.994V56.6615C226.439 55.9191 227.042 55.3184 227.783 55.3184C228.523 55.3184 229.126 55.9208 229.126 56.6615V151.994C229.126 152.735 228.525 153.337 227.783 153.337Z" fill="#3D6CB4"/>
<path d="M203.572 90.7368C202.829 90.7368 202.229 90.1343 202.229 89.3937V30.5905C202.229 29.8481 202.831 29.2473 203.572 29.2473C204.314 29.2473 204.915 29.8498 204.915 30.5905V89.3937C204.915 90.1343 204.314 90.7368 203.572 90.7368Z" fill="#3D6CB4"/>
<path d="M235.176 93.9984C231.363 82.1985 224.854 71.769 216.844 64.6335C208.905 57.561 200.385 54.5146 192.767 56.0046H192.763L182.843 57.4672C182.285 57.5508 181.73 57.6566 181.179 57.7846C172.853 59.7251 166.742 66.4323 163.97 76.674C161.333 86.4191 162.002 98.3521 165.853 110.273C169.705 122.194 176.299 132.747 184.423 139.985C192.96 147.589 202.247 150.711 210.572 148.77C211.122 148.642 211.663 148.492 212.194 148.322L220.734 145.587C220.809 145.538 220.877 145.489 220.951 145.437C226.346 144.103 230.837 140.503 233.949 135.003C239.717 124.804 240.176 109.474 235.176 93.9984ZM204.821 60.1996C205.05 60.2934 205.28 60.3873 205.509 60.488C205.278 60.3856 205.05 60.2917 204.821 60.1996ZM206.091 60.7525C206.318 60.8583 206.545 60.9658 206.772 61.0785C206.545 60.9658 206.318 60.8583 206.091 60.7525ZM200.933 58.9742C201.193 59.0322 201.452 59.0885 201.713 59.1551C201.454 59.0885 201.194 59.0322 200.933 58.9742ZM202.254 59.3104C202.495 59.3786 202.735 59.4469 202.978 59.5237C202.737 59.4469 202.495 59.3786 202.254 59.3104ZM203.543 59.7183C203.777 59.7985 204.009 59.8804 204.242 59.9674C204.01 59.8787 203.777 59.7985 203.543 59.7183ZM207.357 61.3789C207.582 61.4966 207.808 61.6178 208.031 61.7424C207.806 61.6178 207.581 61.4983 207.357 61.3789ZM208.615 62.0769C208.839 62.2066 209.062 62.3414 209.286 62.4779C209.062 62.3397 208.84 62.2066 208.615 62.0769ZM229.32 136.764C229.298 136.791 229.276 136.82 229.254 136.848C229.276 136.822 229.298 136.793 229.32 136.764ZM228.455 137.761C228.443 137.773 228.431 137.785 228.419 137.798C228.431 137.785 228.443 137.773 228.455 137.761ZM228.805 85.7023C228.962 86.0282 229.114 86.3576 229.266 86.687C229.114 86.3576 228.962 86.0282 228.805 85.7023ZM226.127 80.6625C226.299 80.9577 226.472 81.2547 226.641 81.5551C226.47 81.2547 226.299 80.9577 226.127 80.6625ZM227.055 82.2992C227.223 82.6047 227.388 82.9119 227.552 83.2208C227.387 82.9119 227.223 82.6047 227.055 82.2992ZM227.948 83.9802C228.11 84.2943 228.267 84.6117 228.426 84.9309C228.269 84.6117 228.11 84.2943 227.948 83.9802ZM232.469 94.8739C232.263 94.2339 232.047 93.599 231.824 92.9692C232.047 93.599 232.263 94.2322 232.469 94.8739ZM231.594 92.3378C231.443 91.9231 231.291 91.5066 231.134 91.097C231.291 91.5083 231.442 91.9231 231.594 92.3378ZM230.843 90.3632C230.696 89.9945 230.551 89.6259 230.401 89.2624C230.551 89.6259 230.696 89.9945 230.843 90.3632ZM230.071 88.4944C229.923 88.1496 229.776 87.8032 229.622 87.4636C229.776 87.8032 229.923 88.1496 230.071 88.4944ZM225.695 79.9354C225.519 79.6436 225.342 79.3552 225.163 79.0702C225.342 79.3552 225.519 79.6436 225.695 79.9354ZM224.717 78.3619C224.535 78.0786 224.35 77.7987 224.166 77.5188C224.35 77.7987 224.536 78.0786 224.717 78.3619ZM223.71 76.8396C223.521 76.5614 223.328 76.2866 223.135 76.0135C223.328 76.2866 223.521 76.5614 223.71 76.8396ZM222.676 75.365C222.477 75.0902 222.275 74.8206 222.072 74.5509C222.273 74.8206 222.477 75.0902 222.676 75.365ZM221.613 73.9416C221.401 73.6652 221.185 73.3972 220.97 73.1276C221.185 73.3972 221.401 73.6652 221.613 73.9416ZM220.524 72.5695C220.287 72.2793 220.046 71.9994 219.807 71.7178C220.048 71.9994 220.287 72.281 220.524 72.5695ZM219.413 71.2519C219.077 70.8662 218.737 70.489 218.394 70.117C218.735 70.489 219.077 70.8662 219.413 71.2519ZM218.278 69.9907C217.898 69.5811 217.514 69.1817 217.128 68.7909C217.515 69.1817 217.898 69.5811 218.278 69.9907ZM209.866 62.8415C210.09 62.9848 210.311 63.1316 210.535 63.2818C210.313 63.1316 210.09 62.9848 209.866 62.8415ZM211.108 63.6743C211.332 63.8313 211.554 63.9918 211.776 64.1556C211.554 63.9918 211.332 63.8296 211.108 63.6743ZM212.339 64.572C212.564 64.7427 212.788 64.9202 213.01 65.0977C212.788 64.9185 212.564 64.7427 212.339 64.572ZM213.559 65.5346C213.786 65.7206 214.013 65.9152 214.24 66.108C214.013 65.9152 213.786 65.7206 213.559 65.5346ZM214.764 66.5586C215 66.7651 215.232 66.9818 215.466 67.1952C215.232 66.9818 215 66.7668 214.764 66.5586ZM215.955 67.6457C216.211 67.8881 216.466 68.139 216.718 68.3898C216.466 68.139 216.211 67.8881 215.955 67.6457ZM200.454 58.8649C200.112 58.7967 199.771 58.7421 199.43 58.6926C199.769 58.7421 200.111 58.7967 200.454 58.8649ZM227.527 138.686C227.562 138.653 227.596 138.621 227.632 138.587C227.598 138.621 227.562 138.653 227.527 138.686ZM226.678 139.432C226.682 139.428 226.685 139.425 226.689 139.423C226.685 139.426 226.682 139.43 226.678 139.432ZM229.96 135.938C230.025 135.849 230.09 135.759 230.155 135.667C230.092 135.757 230.027 135.849 229.96 135.938ZM230.657 134.934C230.72 134.839 230.783 134.743 230.844 134.646C230.783 134.743 230.718 134.839 230.657 134.934Z" fill="#3D6CB4"/>
<path d="M231.472 133.603C236.855 124.085 237.227 109.606 232.469 94.8739C225.642 73.7471 210.233 58.4792 196.638 58.4792C195.313 58.4792 194.008 58.6243 192.728 58.923C188.016 60.0204 184.068 63.1777 181.31 68.0537C175.927 77.5734 175.555 92.0511 180.313 106.783C187.804 129.966 205.625 146.096 220.055 142.734C224.767 141.637 228.716 138.479 231.472 133.603Z" fill="white"/>
<path d="M224.473 124.012C228.219 117.387 228.481 106.875 225.154 96.579C220.316 81.6047 209.443 70.7725 199.877 70.7725C198.954 70.7725 198.042 70.8732 197.15 71.0814C193.885 71.8425 191.146 74.0373 189.226 77.4319C185.479 84.0572 185.218 94.5685 188.545 104.867C193.851 121.288 206.41 132.728 216.551 130.364C219.814 129.601 222.553 127.405 224.473 124.012Z" fill="white"/>
<path d="M227.861 95.7035C225.108 87.1786 220.401 79.642 214.609 74.4828C208.647 69.1716 202.218 66.9803 196.503 68.3115C192.443 69.257 189.07 71.9262 186.749 76.0307C182.561 83.4359 182.22 94.5429 185.838 105.739C188.592 114.263 193.298 121.8 199.09 126.959C203.913 131.255 209.042 133.511 213.851 133.511C214.986 133.511 216.104 133.385 217.196 133.131C221.256 132.185 224.629 129.514 226.95 125.41C231.138 118.006 231.477 106.899 227.861 95.7035ZM188.543 104.865C185.217 94.5685 185.478 84.0555 189.224 77.4302C191.144 74.0373 193.883 71.8408 197.148 71.0797C198.04 70.8715 198.952 70.7708 199.875 70.7708C209.441 70.7708 220.316 81.6013 225.153 96.5773C228.479 106.874 228.218 117.387 224.472 124.01C222.553 127.403 219.812 129.6 216.548 130.361C206.408 132.726 193.849 121.286 188.543 104.865Z" fill="#3D6CB4"/>
<path d="M214.356 98.376L214.332 98.2907C217.729 96.5738 218.768 93.9558 218.036 91.4111C217.292 88.8238 215.058 87.1103 212.441 86.3765C210.876 85.873 209.262 85.6597 207.328 85.687L206.075 81.335L202.577 81.8299L203.761 85.9447C203.258 86.0044 202.735 86.071 202.186 86.1495C201.38 86.2638 200.568 86.3918 199.769 86.5266L198.58 82.3948L195.084 82.8897L196.32 87.1837C194.815 87.5046 193.523 87.8305 192.664 88.1138L200.744 116.19C201.708 116.177 203.007 116.115 204.604 115.975L205.679 119.711L209.175 119.216L208.129 115.583C208.408 115.545 208.692 115.508 208.982 115.467C210.105 115.308 211.139 115.13 212.103 114.939L213.172 118.651L216.67 118.156L215.505 114.105C218.249 113.274 220.104 112.244 221.278 111.034C222.93 109.299 223.721 107.068 222.977 104.482C221.913 100.794 218.401 98.7327 214.356 98.376ZM201.324 91.348C201.938 91.1722 202.85 90.9554 204.473 90.725C207.867 90.2455 210.117 91.1176 210.74 93.2816C211.351 95.4013 209.637 97.1011 205.702 97.6575L203.242 98.0057L201.324 91.348ZM209.816 110.362C208.536 110.543 207.651 110.669 206.89 110.688L204.57 102.629L207.128 102.267C210.866 101.738 214.197 102.46 215.029 105.344C215.896 108.355 213.211 109.882 209.816 110.362Z" fill="#3D6CB4"/>
<path d="M164.05 194.221C163.308 194.221 162.707 193.618 162.707 192.878V134.074C162.707 133.332 163.31 132.731 164.05 132.731C164.793 132.731 165.394 133.334 165.394 134.074V192.878C165.394 193.62 164.793 194.221 164.05 194.221Z" fill="#3D6CB4"/>
<path d="M164.05 51.7617C163.308 51.7617 162.707 51.1592 162.707 50.4185V14.058C162.707 13.3156 163.31 12.7148 164.05 12.7148C164.793 12.7148 165.394 13.3173 165.394 14.058V50.4185C165.394 51.1592 164.793 51.7617 164.05 51.7617Z" fill="#3D6CB4"/>
<path d="M246.044 194.221C245.301 194.221 244.701 193.618 244.701 192.878V134.074C244.701 133.332 245.303 132.731 246.044 132.731C246.785 132.731 247.387 133.334 247.387 134.074V192.878C247.389 193.62 246.786 194.221 246.044 194.221Z" fill="#3D6CB4"/>
<path d="M246.044 120.517C245.301 120.517 244.701 119.914 244.701 119.174V10.8002C244.701 10.0578 245.303 9.45703 246.044 9.45703C246.785 9.45703 247.387 10.0595 247.387 10.8002V119.174C247.389 119.914 246.786 120.517 246.044 120.517Z" fill="#3D6CB4"/>
<path d="M261.571 149.917C260.829 149.917 260.228 149.315 260.228 148.574V89.7709C260.228 89.0285 260.83 88.4277 261.571 88.4277C262.312 88.4277 262.914 89.0302 262.914 89.7709V148.574C262.916 149.316 262.314 149.917 261.571 149.917Z" fill="#3D6CB4"/>
<path d="M261.571 72.8613C260.829 72.8613 260.228 72.2589 260.228 71.5182V38.7877C260.228 38.0453 260.83 37.4446 261.571 37.4446C262.312 37.4446 262.914 38.047 262.914 38.7877V71.5165C262.916 72.2589 262.314 72.8613 261.571 72.8613Z" fill="#3D6CB4"/>
<path d="M143.243 133.48C142.5 133.48 141.9 132.878 141.9 132.137V43.4589C141.9 42.7165 142.502 42.1157 143.243 42.1157C143.983 42.1157 144.586 42.7182 144.586 43.4589V132.136C144.588 132.878 143.985 133.48 143.243 133.48Z" fill="#3D6CB4"/>
<path d="M143.243 162.929C142.5 162.929 141.9 162.326 141.9 161.586V144.983C141.9 144.241 142.502 143.64 143.243 143.64C143.983 143.64 144.586 144.243 144.586 144.983V161.586C144.588 162.326 143.985 162.929 143.243 162.929Z" fill="#3D6CB4"/>
<path d="M182.865 148.596C182.122 148.596 181.522 147.994 181.522 147.253V39.2689C181.522 38.5265 182.124 37.9258 182.865 37.9258C183.607 37.9258 184.208 38.5282 184.208 39.2689V147.253C184.208 147.996 183.607 148.596 182.865 148.596Z" fill="#3D6CB4"/>
<path d="M182.865 200.11C182.122 200.11 181.522 199.508 181.522 198.767V164.426C181.522 163.683 182.124 163.083 182.865 163.083C183.607 163.083 184.208 163.685 184.208 164.426V198.767C184.208 199.508 183.607 200.11 182.865 200.11Z" fill="#3D6CB4"/>
<path d="M182.865 21.3968C182.122 21.3968 181.522 20.7943 181.522 20.0536V1.5431C181.522 0.800697 182.124 0.199951 182.865 0.199951C183.607 0.199951 184.208 0.802404 184.208 1.5431V20.0519C184.208 20.7943 183.607 21.3968 182.865 21.3968Z" fill="#3D6CB4"/>
<path d="M213.281 201.426C212.539 201.426 211.938 200.824 211.938 200.083V126.869C211.938 126.126 212.54 125.526 213.281 125.526C214.022 125.526 214.624 126.128 214.624 126.869V200.081C214.624 200.824 214.023 201.426 213.281 201.426Z" fill="#3D6CB4"/>
<path d="M213.281 70.8765C212.539 70.8765 211.938 70.2741 211.938 69.5334V14.1947C211.938 13.4523 212.54 12.8516 213.281 12.8516C214.022 12.8516 214.624 13.454 214.624 14.1947V69.5317C214.624 70.2741 214.023 70.8765 213.281 70.8765Z" fill="#3D6CB4"/>
</svg>
