<svg width="64" height="65" viewBox="0 0 64 65" fill="none" xmlns="http://www.w3.org/2000/svg">
<g clip-path="url(#clip0_248_51)">
<path d="M42 44.2333H41.7333C41.4667 44.1 38.9333 42.9 38.9333 41.1667V39.1667C38.9333 38.7667 39.2 38.5 39.6 38.5C40 38.5 40.2667 38.7667 40.2667 39.1667V41.1667C40.2667 41.7 41.2 42.3667 42 42.9C42.8 42.5 43.7333 41.7 43.7333 41.1667V39.1667C43.7333 38.7667 44 38.5 44.4 38.5C44.8 38.5 45.0667 38.7667 45.0667 39.1667V41.1667C45.0667 42.9 42.5333 44.1 42.2667 44.2333H42Z" fill="#3D6CB4"/>
<path d="M42 40.5C39.7333 40.5 38 38.7667 38 36.5V34.5C38 34.1 38.2667 33.8333 38.6667 33.8333C39.0667 33.8333 39.3333 34.1 39.3333 34.5V36.5C39.3333 37.9667 40.5333 39.1667 42 39.1667C43.4667 39.1667 44.6667 37.9667 44.6667 36.5V34.5C44.6667 34.1 44.9333 33.8333 45.3333 33.8333C45.7333 33.8333 46 34.1 46 34.5V36.5C46 38.7667 44.2667 40.5 42 40.5ZM50.6667 49.8333H33.3333C32.9333 49.8333 32.6667 49.5667 32.6667 49.1667V46.1C32.6667 44.3667 33.8667 42.7667 35.4667 42.2333L39.3333 40.9C39.7333 40.7667 40 41.0333 40.1333 41.3C40.2667 41.7 40 41.9667 39.7333 42.1L35.8667 43.4333C34.6667 43.8333 34 44.9 34 46.1V48.5H50V46.1C50 44.9 49.2 43.8333 48.1333 43.4333L44.2667 42.1C43.8667 41.9667 43.7333 41.5667 43.8667 41.3C44 40.9 44.4 40.7667 44.6667 40.9L48.5333 42.2333C50.2667 42.7667 51.3333 44.3667 51.3333 46.1V49.1667C51.3333 49.5667 51.0667 49.8333 50.6667 49.8333Z" fill="#3D6CB4"/>
<path d="M50.6667 49.8333H46.5333C46.1333 49.8333 45.8667 49.5667 45.8667 49.1667V48.5C45.8667 46.1 47.7333 43.9667 50.1333 43.7C50.4 43.7 50.6667 43.8333 50.8 43.9667C51.2 44.6333 51.3333 45.3 51.3333 46.1V49.1667C51.3333 49.5667 51.0667 49.8333 50.6667 49.8333ZM47.2 48.5H50V46.1C50 45.7 49.8667 45.4333 49.7333 45.0333C48.2667 45.4333 47.2 46.9 47.2 48.5ZM37.4667 49.8333H33.3333C32.9333 49.8333 32.6667 49.5667 32.6667 49.1667V46.1C32.6667 45.3 32.9333 44.6333 33.2 43.9667C33.3333 43.7 33.6 43.5667 33.8667 43.7C36.2667 43.9667 38.1333 46.1 38.1333 48.5V49.1667C38.1333 49.5667 37.8667 49.8333 37.4667 49.8333ZM34 48.5H36.8C36.8 46.9 35.7333 45.5667 34.1333 45.1667C34 45.4333 33.8667 45.8333 33.8667 46.2333V48.5H34ZM20.6667 44.2333H20.4C20.1333 44.1 17.6 42.9 17.6 41.1667V39.4333C17.6 39.0333 17.8667 38.7667 18.2667 38.7667C18.6667 38.7667 18.9333 39.0333 18.9333 39.4333V41.1667C18.9333 41.7 19.8667 42.3667 20.6667 42.9C21.4667 42.5 22.4 41.7 22.4 41.1667V39.4333C22.4 39.0333 22.6667 38.7667 23.0667 38.7667C23.4667 38.7667 23.7333 39.0333 23.7333 39.4333V41.1667C23.7333 42.9 21.2 44.1 20.9333 44.2333H20.6667Z" fill="#3D6CB4"/>
<path d="M20.6667 40.6333C17.7333 40.6333 15.3333 38.2333 15.3333 35.3V34.1C15.3333 33.7 15.6 33.4333 16 33.4333C16.4 33.4333 16.6667 33.7 16.6667 34.1V35.3C16.6667 37.5667 18.4 39.3 20.6667 39.3C22.9333 39.3 24.6667 37.5667 24.6667 35.3V34.1C24.6667 33.7 24.9333 33.4333 25.3333 33.4333C25.7333 33.4333 26 33.7 26 34.1V35.3C26 38.2333 23.6 40.6333 20.6667 40.6333Z" fill="#3D6CB4"/>
<path d="M25.3333 34.9C25.2 34.9 25.0667 34.9 24.9333 34.7667L23.3333 33.4333C23.2 33.3 23.0667 33.3 22.9333 33.3H18.5333C18.4 33.3 18.2667 33.3 18.1333 33.4333L16.4 34.7667C16.2667 34.9 16 34.9 15.7333 34.9C15.4667 34.7667 15.3333 34.6333 15.3333 34.3667L14.5333 31.1667C14.4 30.3667 14.5333 29.5667 14.9333 29.0333C15.3333 28.5 16 27.9667 16.8 27.8333L21.8667 27.0333C22.6667 26.9 23.4667 27.1667 24.1333 27.7C24.6667 28.1 24.9333 28.6333 25.0667 29.3C25.6 29.4333 26 29.7 26.2667 30.1C26.6667 30.6333 26.9333 31.4333 26.8 32.1L26 34.5C25.8667 34.7667 25.7333 34.9 25.6 34.9H25.3333ZM18.5333 31.8333H22.9333C23.3333 31.8333 23.8667 31.9667 24.2667 32.2333L25.2 33.0333L25.7333 31.5667C25.7333 31.3 25.7333 31.0333 25.4667 30.7667C25.2 30.5 24.9333 30.3667 24.6667 30.3667C24.2667 30.3667 24 30.1 24 29.7C24 29.1667 23.8667 28.7667 23.4667 28.5C23.2 28.2333 22.6667 28.1 22.2667 28.2333L17.2 29.0333C16.8 29.0333 16.4 29.3 16.2667 29.7C16 29.9667 16 30.3667 16 30.7667L16.5333 33.0333L17.3333 32.3667C17.6 31.9667 18 31.8333 18.5333 31.8333ZM29.3333 49.8333H12C11.6 49.8333 11.3333 49.5667 11.3333 49.1667V46.1C11.3333 44.3667 12.5333 42.7667 14.1333 42.2333L18 40.9C18.4 40.7667 18.6667 41.0333 18.8 41.3C18.9333 41.5667 18.6667 41.9667 18.4 42.1L14.5333 43.4333C13.3333 43.8333 12.6667 44.9 12.6667 46.1V48.5H28.6667V46.1C28.6667 44.9 27.8667 43.8333 26.8 43.4333L22.9333 42.1C22.5333 41.9667 22.4 41.5667 22.5333 41.3C22.6667 40.9 23.0667 40.7667 23.3333 40.9L27.2 42.2333C28.9333 42.7667 30 44.3667 30 46.1V49.1667C30 49.5667 29.7333 49.8333 29.3333 49.8333Z" fill="#3D6CB4"/>
<path d="M29.3333 49.8333H25.2C24.8 49.8333 24.5333 49.5666 24.5333 49.1666V48.5C24.5333 46.1 26.4 43.9667 28.8 43.7C29.0667 43.7 29.3333 43.8333 29.4667 43.9666C29.8667 44.6333 30 45.3 30 46.1V49.1666C30 49.5666 29.7333 49.8333 29.3333 49.8333ZM25.8667 48.5H28.6667V46.1C28.6667 45.7 28.5333 45.4333 28.4 45.0333C26.9333 45.4333 25.8667 46.9 25.8667 48.5ZM16.1333 49.8333H12C11.6 49.8333 11.3333 49.5666 11.3333 49.1666V46.1C11.3333 45.3 11.6 44.6333 11.8667 43.9666C12 43.7 12.2667 43.5666 12.5333 43.7C14.9333 43.9667 16.8 46.1 16.8 48.5V49.1666C16.8 49.5666 16.5333 49.8333 16.1333 49.8333ZM12.6667 48.5H15.4667C15.4667 46.9 14.4 45.5666 12.8 45.1666C12.6667 45.4333 12.5333 45.8333 12.5333 46.2333V48.5H12.6667ZM21.2 19.1666H14.5333C14.1333 19.1666 13.8667 18.9 13.8667 18.5C13.8667 18.1 14.1333 17.8333 14.5333 17.8333H21.2C21.6 17.8333 21.8667 18.1 21.8667 18.5C21.8667 18.9 21.6 19.1666 21.2 19.1666ZM18.5333 21.8333H14.5333C14.1333 21.8333 13.8667 21.5666 13.8667 21.1666C13.8667 20.7666 14.1333 20.5 14.5333 20.5H18.5333C18.9333 20.5 19.2 20.7666 19.2 21.1666C19.2 21.5666 18.9333 21.8333 18.5333 21.8333Z" fill="#3D6CB4"/>
<path d="M14.6667 27.1667C14.5333 27.1667 14.4 27.1667 14.4 27.0334C14.1333 26.9 14 26.6334 14 26.5V24.5H13.3333C12.2667 24.5 11.3333 23.5667 11.3333 22.5V17.1667C11.3333 16.1 12.2667 15.1667 13.3333 15.1667H22.6667C23.7333 15.1667 24.6667 16.1 24.6667 17.1667V22.5C24.6667 23.5667 23.7333 24.5 22.6667 24.5H18.9333L15.0667 27.0334C14.9333 27.1667 14.8 27.1667 14.6667 27.1667ZM13.3333 16.5C12.9333 16.5 12.6667 16.7667 12.6667 17.1667V22.5C12.6667 22.9 12.9333 23.1667 13.3333 23.1667H14.6667C15.0667 23.1667 15.3333 23.4334 15.3333 23.8334V25.3L18.2667 23.3C18.4 23.1667 18.5333 23.1667 18.6667 23.1667H22.6667C23.0667 23.1667 23.3333 22.9 23.3333 22.5V17.1667C23.3333 16.7667 23.0667 16.5 22.6667 16.5H13.3333ZM23.3333 37.8334H21.3333C20.9333 37.8334 20.6667 37.5667 20.6667 37.1667C20.6667 36.7667 20.9333 36.5 21.3333 36.5H23.3333C24.1333 36.5 24.6667 35.9667 24.6667 35.1667V33.8334C24.6667 33.4334 24.9333 33.1667 25.3333 33.1667C25.7333 33.1667 26 33.4334 26 33.8334V35.1667C26 36.6334 24.8 37.8334 23.3333 37.8334ZM41.4667 19.1667C41.0667 19.1667 40.8 18.9 40.8 18.5C40.8 18.1 41.0667 17.8334 41.4667 17.8334H48.1333C48.5333 17.8334 48.8 18.1 48.8 18.5C48.8 18.9 48.5333 19.1667 48.1333 19.1667H41.4667ZM44.1333 21.8334C43.7333 21.8334 43.4667 21.5667 43.4667 21.1667C43.4667 20.7667 43.7333 20.5 44.1333 20.5H48.1333C48.5333 20.5 48.8 20.7667 48.8 21.1667C48.8 21.5667 48.5333 21.8334 48.1333 21.8334H44.1333Z" fill="#3D6CB4"/>
<path d="M48 27.1667C47.8667 27.1667 47.7333 27.1667 47.6 27.0334L43.8667 24.5H40C38.9333 24.5 38 23.5667 38 22.5V17.1667C38 16.1 38.9333 15.1667 40 15.1667H49.3333C50.4 15.1667 51.3333 16.1 51.3333 17.1667V22.5C51.3333 23.5667 50.4 24.5 49.3333 24.5H48.6667V26.5C48.6667 26.7667 48.5333 27.0334 48.2667 27.0334C48.2667 27.1667 48.1333 27.1667 48 27.1667ZM40 16.5C39.6 16.5 39.3333 16.7667 39.3333 17.1667V22.5C39.3333 22.9 39.6 23.1667 40 23.1667H44C44.1333 23.1667 44.2667 23.1667 44.4 23.3L47.3333 25.3V23.8334C47.3333 23.4334 47.6 23.1667 48 23.1667H49.3333C49.7333 23.1667 50 22.9 50 22.5V17.1667C50 16.7667 49.7333 16.5 49.3333 16.5H40ZM48 43.1667C47.6 43.1667 47.3333 42.9 47.3333 42.5V33.8334C47.3333 30.9 44.9333 28.5 42 28.5C39.0667 28.5 36.6667 30.9 36.6667 33.8334V42.5C36.6667 42.9 36.4 43.1667 36 43.1667C35.6 43.1667 35.3333 42.9 35.3333 42.5V33.8334C35.3333 30.1 38.2667 27.1667 42 27.1667C45.7333 27.1667 48.6667 30.1 48.6667 33.8334V42.5C48.6667 42.9 48.4 43.1667 48 43.1667Z" fill="#3D6CB4"/>
<path d="M39.3333 35.1667H38.6667C38.2667 35.1667 38 34.9 38 34.5C38 34.1 38.2667 33.8333 38.6667 33.8333H39.3333C39.7333 33.8333 40 33.5667 40 33.1667C40 32.7667 40.2667 32.5 40.6667 32.5C41.0667 32.5 41.3333 32.7667 41.3333 33.1667C41.3333 34.2333 40.4 35.1667 39.3333 35.1667Z" fill="#3D6CB4"/>
<path d="M45.3333 35.1667H42C40.9333 35.1667 40 34.2333 40 33.1667V31.8333C40 31.4333 40.2667 31.1667 40.6667 31.1667C41.0667 31.1667 41.3333 31.4333 41.3333 31.8333V33.1667C41.3333 33.5667 41.6 33.8333 42 33.8333H45.3333C45.7333 33.8333 46 34.1 46 34.5C46 34.9 45.7333 35.1667 45.3333 35.1667Z" fill="#3D6CB4"/>
<path d="M32 64.5C14.4 64.5 0 50.1 0 32.5C0 14.9 14.4 0.5 32 0.5C49.6 0.5 64 14.9 64 32.5C64 50.1 49.6 64.5 32 64.5ZM32 1.83333C15.0667 1.83333 1.33333 15.5667 1.33333 32.5C1.33333 49.4333 15.0667 63.1667 32 63.1667C48.9333 63.1667 62.6667 49.4333 62.6667 32.5C62.6667 15.5667 48.9333 1.83333 32 1.83333Z" fill="#3D6CB4"/>
</g>
<defs>
<clipPath id="clip0_248_51">
<rect width="64" height="64" fill="white" transform="translate(0 0.5)"/>
</clipPath>
</defs>
</svg>
